<svg width="720" height="720" viewBox="0 0 720 720" fill="none" xmlns="http://www.w3.org/2000/svg">
<rect width="720" height="720" rx="130" fill="#019ACD"/>
<path d="M427.88 302.306C427.88 302.306 505.822 301.329 542.329 370.071C542.329 370.071 551.206 262.049 427.88 302.306Z" fill="white"/>
<path d="M571.658 356.071C571.658 356.071 544.02 261.659 405.798 263.622C405.798 263.622 274.496 264.608 265.613 400.34C265.613 400.34 223.162 251.824 407.777 225.269C407.777 225.269 571.658 218.384 571.658 356.071Z" fill="white"/>
<path d="M278.054 481.418C278.054 481.418 174.542 313.929 335.225 224.271C335.225 224.271 479.149 155.305 584.63 258.758C584.63 258.758 558.012 152.351 407.187 157.273C407.187 157.273 266.22 166.146 229.745 337.576C229.753 337.576 218.907 422.304 278.054 481.418Z" fill="white"/>
<path d="M473.283 145.07C473.283 145.07 214.695 92.808 196.926 349.192C196.926 349.192 193.958 511.893 376.555 581.908C376.555 581.908 259.131 628.247 172.256 506.967C172.256 506.967 55.7877 343.277 240.347 178.599C240.347 178.599 344.975 94.7768 473.283 145.07Z" fill="white"/>
</svg>
