<svg version="1.1" id="Layer_1" xmlns="http://www.w3.org/2000/svg" xmlns:xlink="http://www.w3.org/1999/xlink" x="0px" y="0px"
	 width="100%" viewBox="0 0 400 400" enable-background="new 0 0 400 400" xml:space="preserve">
<path fill="#F64A17" opacity="1.000000" stroke="none" 
	d="
M188.000000,401.000000 
	C125.352760,401.000000 63.205513,401.000000 1.029136,401.000000 
	C1.029136,267.727753 1.029136,134.455505 1.029136,1.091625 
	C134.230530,1.091625 267.461151,1.091625 400.845886,1.091625 
	C400.845886,134.333191 400.845886,267.666565 400.845886,401.000000 
	C330.122253,401.000000 259.311127,401.000000 188.000000,401.000000 
M272.645630,288.153595 
	C277.163116,287.053864 281.796051,286.293335 286.179962,284.801147 
	C324.224060,271.852051 326.898712,226.344055 305.930420,205.313232 
	C301.704041,201.074280 296.565735,197.744522 291.459717,193.687134 
	C292.130280,193.155685 292.974304,192.609222 293.672211,191.915787 
	C316.751434,168.984604 310.733826,133.154785 281.456543,118.963211 
	C270.687317,113.743042 259.169403,112.506714 247.438538,112.498932 
	C197.614807,112.465904 147.791046,112.482323 97.967285,112.495468 
	C96.216576,112.495934 94.465904,112.652916 92.484886,112.747993 
	C92.484886,125.353943 92.314507,137.347168 92.614113,149.328644 
	C92.682297,152.055527 93.757866,155.224854 95.427925,157.364700 
	C103.521858,167.735367 111.982750,177.819412 120.301109,188.015228 
	C128.782120,198.410400 137.248581,208.817429 146.424088,220.081940 
	C127.869377,220.081940 110.359650,220.081940 92.765778,220.081940 
	C92.765778,243.419708 92.765778,266.174927 92.765778,289.227692 
	C94.469673,289.333679 95.927467,289.503143 97.385315,289.503540 
	C149.708588,289.516998 202.031937,289.553345 254.355057,289.460358 
	C260.160645,289.450043 265.964905,288.690094 272.645630,288.153595 
z"/>
<path fill="#FFFDFC" opacity="1.000000" stroke="none" 
	d="
M272.207703,288.215698 
	C265.964905,288.690094 260.160645,289.450043 254.355057,289.460358 
	C202.031937,289.553345 149.708588,289.516998 97.385315,289.503540 
	C95.927467,289.503143 94.469673,289.333679 92.765778,289.227692 
	C92.765778,266.174927 92.765778,243.419708 92.765778,220.081940 
	C110.359650,220.081940 127.869377,220.081940 146.424088,220.081940 
	C137.248581,208.817429 128.782120,198.410400 120.301109,188.015228 
	C111.982750,177.819412 103.521858,167.735367 95.427925,157.364700 
	C93.757866,155.224854 92.682297,152.055527 92.614113,149.328644 
	C92.314507,137.347168 92.484886,125.353943 92.484886,112.747993 
	C94.465904,112.652916 96.216576,112.495934 97.967285,112.495468 
	C147.791046,112.482323 197.614807,112.465904 247.438538,112.498932 
	C259.169403,112.506714 270.687317,113.743042 281.456543,118.963211 
	C310.733826,133.154785 316.751434,168.984604 293.672211,191.915787 
	C292.974304,192.609222 292.130280,193.155685 291.459717,193.687134 
	C296.565735,197.744522 301.704041,201.074280 305.930420,205.313232 
	C326.898712,226.344055 324.224060,271.852051 286.179962,284.801147 
	C281.796051,286.293335 277.163116,287.053864 272.207703,288.215698 
M254.036758,246.999847 
	C261.006012,243.409332 263.930756,238.435425 262.897705,231.930573 
	C261.935028,225.868607 257.359375,221.725021 250.083893,220.473541 
	C248.457642,220.193802 246.771881,220.180161 245.113449,220.179291 
	C214.137268,220.163116 183.161087,220.167419 152.184906,220.167419 
	C150.568649,220.167419 148.952408,220.167419 147.178345,220.167419 
	C147.178345,229.764389 147.178345,238.805435 147.178345,247.937057 
	C148.152405,248.030228 148.797653,248.145767 149.442932,248.145966 
	C181.917938,248.156082 214.392990,248.174240 246.867889,248.116638 
	C248.994049,248.112854 251.119171,247.520706 254.036758,246.999847 
M198.499908,181.832611 
	C211.310883,181.832062 224.124008,181.976471 236.932205,181.787918 
	C248.434357,181.618607 255.467453,171.065628 250.474274,161.597321 
	C247.200668,155.389755 241.392258,153.823792 234.866196,153.829025 
	C206.748627,153.851562 178.630997,153.835312 150.513397,153.851028 
	C149.404739,153.851654 148.296188,154.034088 147.245255,154.126709 
	C147.245255,163.489288 147.245255,172.514938 147.245255,181.832611 
	C164.267532,181.832611 180.883713,181.832611 198.499908,181.832611 
z"/>
<path fill="#F64C19" opacity="1.000000" stroke="none" 
	d="
M253.640762,247.101044 
	C251.119171,247.520706 248.994049,248.112854 246.867889,248.116638 
	C214.392990,248.174240 181.917938,248.156082 149.442932,248.145966 
	C148.797653,248.145767 148.152405,248.030228 147.178345,247.937057 
	C147.178345,238.805435 147.178345,229.764389 147.178345,220.167419 
	C148.952408,220.167419 150.568649,220.167419 152.184906,220.167419 
	C183.161087,220.167419 214.137268,220.163116 245.113449,220.179291 
	C246.771881,220.180161 248.457642,220.193802 250.083893,220.473541 
	C257.359375,221.725021 261.935028,225.868607 262.897705,231.930573 
	C263.930756,238.435425 261.006012,243.409332 253.640762,247.101044 
z"/>
<path fill="#F64C19" opacity="1.000000" stroke="none" 
	d="
M197.999908,181.832611 
	C180.883713,181.832611 164.267532,181.832611 147.245255,181.832611 
	C147.245255,172.514938 147.245255,163.489288 147.245255,154.126709 
	C148.296188,154.034088 149.404739,153.851654 150.513397,153.851028 
	C178.630997,153.835312 206.748627,153.851562 234.866196,153.829025 
	C241.392258,153.823792 247.200668,155.389755 250.474274,161.597321 
	C255.467453,171.065628 248.434357,181.618607 236.932205,181.787918 
	C224.124008,181.976471 211.310883,181.832062 197.999908,181.832611 
z"/>
</svg>