<svg width="434" height="360" xmlns="http://www.w3.org/2000/svg" xmlns:xlink="http://www.w3.org/1999/xlink" xml:space="preserve" overflow="hidden"><defs><clipPath id="clip0"><rect x="190" y="128" width="434" height="360"/></clipPath><clipPath id="clip1"><rect x="190" y="128" width="434" height="360"/></clipPath><clipPath id="clip2"><rect x="191" y="129" width="433" height="358"/></clipPath><clipPath id="clip3"><rect x="191" y="129" width="433" height="359"/></clipPath><clipPath id="clip4"><rect x="191" y="129" width="1675" height="359"/></clipPath></defs><g clip-path="url(#clip0)" transform="translate(-190 -128)"><g clip-path="url(#clip1)"><g clip-path="url(#clip2)"><g clip-path="url(#clip3)"><g clip-path="url(#clip4)"><path d="M179.82 19.6053C223.142 19.6053 262.476 36.9163 291.343 64.9481 277.655 66.7036 264.394 70.9102 252.198 77.3665 231.055 62.3427 205.757 54.2804 179.82 54.3005 110.607 54.3005 54.3005 110.61 54.3005 179.82 54.3005 249.029 110.607 305.339 179.82 305.339 205.756 305.359 231.054 297.298 252.198 282.277 264.393 288.734 277.652 292.941 291.339 294.699 262.476 322.731 223.142 340.038 179.82 340.038 91.4748 340.038 19.6015 268.165 19.6015 179.82 19.6015 91.4786 91.4748 19.6053 179.82 19.6053M402.465 179.82C402.465 223.161 373.663 259.877 334.203 271.899 350.88 244.083 359.674 212.253 359.64 179.82 359.674 147.39 350.88 115.562 334.203 87.7485 373.663 99.7704 402.465 136.483 402.465 179.82M305.339 179.82C305.339 145.267 291.304 113.933 268.635 91.2092 280.516 86.1541 293.297 83.5549 306.209 83.568 306.771 83.568 307.314 83.6411 307.876 83.6527 328.78 111.352 340.073 145.118 340.038 179.82 340.075 214.524 328.781 248.292 307.872 275.991 307.314 276.006 306.771 276.076 306.209 276.076 292.882 276.076 280.183 273.346 268.635 268.431 291.304 245.715 305.339 214.373 305.339 179.82M234.336 270.594C217.886 280.521 199.033 285.758 179.82 285.738 121.42 285.738 73.902 238.224 73.902 179.82 73.902 121.42 121.42 73.9058 179.82 73.9058 199.033 73.8854 217.886 79.1224 234.336 89.0496 207.567 110.291 190.348 143.073 190.348 179.82 190.348 216.571 207.567 249.349 234.336 270.594M209.954 179.82C209.954 147.388 226.125 118.71 250.781 101.264 272.23 120.658 285.738 148.689 285.738 179.82 285.738 210.954 272.23 238.986 250.777 258.384 226.125 240.934 209.954 212.255 209.954 179.82M179.82 359.644C235.133 359.644 284.672 334.522 317.685 295.111 376.204 289.329 422.07 239.837 422.07 179.82 422.07 119.811 376.204 70.3181 317.688 64.5362 284.675 25.1216 235.133 0 179.82 0 80.6655 0 0 80.6693 0 179.82 0 278.974 80.6655 359.644 179.82 359.644" fill="#FFAE5F" fill-rule="nonzero" fill-opacity="1" transform="matrix(1.00913 0 0 1 191 129)"/><path d="M1457.44 92.8721C1457.44 121.239 1457.62 149.609 1457.33 177.972 1457.25 185.825 1456.57 193.851 1454.79 201.477 1450.28 220.771 1438.99 234.81 1420.03 241.785 1404.79 247.39 1389.12 247.601 1373.53 243.455 1356.37 238.894 1344.14 228.327 1337.14 211.951 1333.52 203.475 1331.52 194.563 1331.46 185.382 1331.26 154.506 1331.31 123.633 1331.25 92.7643L1331.25 89.015 1307.44 89.015C1307.39 89.985 1307.3 90.8627 1307.3 91.7404 1307.29 121.208 1307.06 150.683 1307.44 180.147 1307.55 189.297 1308.5 198.609 1310.5 207.532 1316.08 232.492 1329.99 251.277 1354.11 261.317 1372.41 268.931 1391.47 270.198 1410.81 266.009 1427.91 262.306 1441.67 253.383 1451.77 239.048 1453.63 236.403 1455.24 233.574 1457.43 230.094 1457.43 240.618 1457.65 250.304 1457.35 259.973 1457.15 266.256 1456.7 272.619 1455.46 278.763 1451.29 299.419 1439.42 313.723 1418.94 319.852 1402.33 324.825 1385.46 324.856 1368.74 320.071 1354.96 316.133 1344.07 308.23 1336.8 295.723 1335.31 293.163 1334.53 289.449 1332.34 288.232 1329.94 286.908 1326.28 287.84 1323.17 287.832 1318.59 287.813 1314.02 287.828 1309.43 287.828 1309.43 288.467 1309.4 288.667 1309.44 288.844 1309.58 289.422 1309.73 290.011 1309.92 290.577 1317.39 312.938 1332.01 328.783 1353.99 337.286 1378.55 346.783 1403.68 346.863 1428.69 339.211 1450.35 332.582 1465.9 318.774 1474.5 297.625 1479.76 284.71 1481.42 271.141 1481.43 257.313 1481.43 202.285 1481.43 147.257 1481.43 92.2254L1481.43 89.0689 1457.45 89.0689 1457.45 92.8721ZM722.517 163.017C723.649 154.44 726.336 146.553 730.624 139.281 741.899 120.142 759.064 109.933 780.81 107.065 796.789 104.956 812.202 106.93 826.734 114.275 846.451 124.238 858.315 143.6 860.813 163.017L722.517 163.017ZM884.849 161.346C880.484 132.56 866.102 110.268 840.365 96.0133 819.835 84.6458 797.62 81.9589 774.689 85.5389 747.061 89.858 724.962 103.239 710.264 127.383 698.154 147.277 694.763 169.107 698.165 191.919 702.203 218.95 715.488 240.36 738.885 254.95 758.152 266.968 779.454 270.837 801.839 268.804 828.889 266.348 851.586 255.385 868.308 233.462 872.427 228.065 875.853 222.237 878.436 215.485 870.421 215.485 862.815 215.558 855.212 215.431 853.237 215.397 852.167 216.047 851.162 217.714 846.027 226.285 838.69 233.325 829.913 238.101 814.854 246.366 798.636 248.598 781.799 246.543 760.769 243.983 743.701 234.582 732.102 216.436 725.966 206.832 722.706 196.242 721.697 184.597L886.55 184.597C885.992 176.494 885.985 168.834 884.849 161.346M1238.49 170.993C1224.39 168.002 1210.07 165.993 1195.83 163.648 1187.12 162.212 1178.34 161.1 1170.31 157.066 1164.59 154.186 1160.39 149.983 1158.89 143.539 1156.05 131.305 1161.51 118.971 1173.21 112.574 1188.32 104.317 1204.4 103.97 1220.53 108.709 1233.71 112.589 1243.13 120.619 1245.39 135.112 1245.49 135.763 1246.62 136.733 1247.29 136.744 1254.41 136.864 1261.52 136.818 1269.4 136.818 1268.63 132.371 1268.3 128.364 1267.22 124.565 1262.23 107.107 1250.3 95.9979 1233.73 89.7733 1214.09 82.3939 1193.99 82.2245 1174 88.145 1148.13 95.8093 1133.45 115.934 1134.29 141.995 1134.77 156.827 1140.91 168.633 1154.46 175.482 1160.66 178.615 1167.35 181.29 1174.12 182.68 1186.97 185.321 1200.04 186.891 1213.02 188.878 1221.36 190.156 1229.72 191.357 1237.41 195.079 1246.77 199.606 1251 207.744 1249.6 217.98 1248.18 228.354 1242.59 236.068 1233.43 240.476 1212.89 250.35 1191.93 250.404 1171.29 240.718 1162.63 236.653 1157.04 229.505 1154.87 219.989 1154.52 218.465 1154.32 216.913 1154.06 215.466L1129.95 215.466C1130.06 216.886 1130.09 218.087 1130.25 219.262 1132.9 239.086 1144.03 252.856 1161.83 260.893 1186.69 272.122 1212.35 272.361 1237.73 262.891 1257.88 255.373 1270.96 241.134 1273.65 219.057 1275.2 206.339 1273.02 194.429 1263.79 184.716 1256.88 177.429 1248.08 173.026 1238.49 170.993M1649.88 184.986C1642.94 177.545 1634.06 173.08 1624.37 171.012 1610.28 167.998 1595.96 166 1581.72 163.656 1573.01 162.224 1564.23 161.115 1556.2 157.097 1550.46 154.229 1546.24 150.04 1544.73 143.6 1541.83 131.255 1547.32 118.798 1559.25 112.489 1575.86 103.708 1593.25 103.689 1610.51 110.229 1621.94 114.556 1629.49 122.721 1631.2 135.355 1631.26 135.813 1631.53 136.244 1631.67 136.617L1654.86 136.617C1654.7 134.623 1654.66 132.837 1654.4 131.086 1654.07 128.915 1653.69 126.724 1653.08 124.619 1648.04 107.177 1636.17 96.0364 1619.61 89.7926 1599.98 82.3977 1579.88 82.2399 1559.88 88.1257 1533.95 95.7554 1519.14 116.088 1520.11 142.238 1520.66 156.946 1526.79 168.656 1540.23 175.455 1546.42 178.592 1553.1 181.287 1559.88 182.672 1572.82 185.325 1586 186.895 1599.09 188.909 1607.42 190.194 1615.77 191.403 1623.45 195.202 1632.64 199.745 1636.81 207.794 1635.43 217.926 1634 228.419 1628.33 236.165 1619.04 240.591 1598.68 250.28 1577.89 250.35 1557.43 240.911 1548.65 236.857 1542.91 229.694 1540.71 220.051 1540.36 218.526 1540.15 216.96 1539.87 215.35L1515.78 215.35C1515.88 216.844 1515.9 218.034 1516.06 219.208 1518.69 239.032 1529.8 252.829 1547.6 260.874 1572.54 272.161 1598.32 272.392 1623.77 262.818 1643.91 255.242 1656.9 240.899 1659.51 218.83 1661 206.339 1658.84 194.602 1649.88 184.986M645.451 203.783C643.368 203.74 642.498 204.48 641.759 206.339 638.085 215.61 632.211 223.848 624.645 230.344 612.754 240.634 598.734 245.788 583.209 246.924 562.776 248.425 544.037 243.863 528.427 229.982 512.679 215.982 506.02 197.82 505.904 177.168 505.789 156.993 511.682 138.723 526.945 124.946 550.057 104.086 577.034 101.641 605.413 111.669 622.808 117.817 634.834 130.312 641.967 147.392 642.352 148.316 643.445 149.586 644.234 149.605 651.737 149.771 659.243 149.706 666.677 149.706 666.773 149.355 666.835 149.251 666.819 149.163 666.754 148.77 666.692 148.378 666.581 148 659.313 123.137 644.057 104.948 620.653 93.7691 601.117 84.4418 580.46 82.1745 559.25 85.535 531.642 89.9119 509.542 103.258 494.856 127.402 482.753 147.3 479.335 169.126 482.78 191.926 487.13 220.717 501.735 242.909 527.384 257.21 546.878 268.08 568.019 271.068 590.015 268.442 611.406 265.886 630.165 257.594 645.455 242.174 656.06 231.48 663.004 218.688 667.027 203.837 659.655 203.837 652.549 203.929 645.451 203.783M1091.33 145.356C1085.19 118.186 1069.3 98.9081 1042.55 89.7425 1020.47 82.1783 997.938 82.0898 975.6 88.6416 953.581 95.101 937.621 108.917 928.386 130.058 922.435 143.689 920.387 158.109 920.38 172.868 920.36 202.532 920.372 232.2 920.372 261.864L920.372 264.493 944.327 264.493 944.327 260.755C944.327 232.192 944.2 203.629 944.416 175.066 944.473 167.694 944.939 160.192 946.413 152.989 950.602 132.545 961.942 117.632 982.075 110.356 994.32 105.933 1007.03 105.294 1019.8 107.184 1040.39 110.229 1055.85 120.527 1064.41 139.97 1068.31 148.801 1070.34 158.342 1070.37 167.994 1070.54 198.963 1070.49 229.932 1070.53 260.901L1070.53 264.52 1094.51 264.52 1094.51 262.037C1094.51 232.073 1094.73 202.104 1094.36 172.136 1094.25 163.19 1093.31 154.079 1091.33 145.356" fill="#000000" fill-rule="nonzero" fill-opacity="1" transform="matrix(1.00913 0 0 1 191 129)"/></g></g></g></g></g></svg>