<svg version="1.1" id="Layer_1" xmlns="http://www.w3.org/2000/svg" xmlns:xlink="http://www.w3.org/1999/xlink" x="0px" y="0px"
	 width="100%" viewBox="0 0 512 512" enable-background="new 0 0 512 512" xml:space="preserve">
<path fill="#000000" opacity="1.000000" stroke="none" 
	d="
M261.000000,1.000003 
	C344.964111,1.000000 428.928223,1.000000 512.946167,1.000000 
	C512.946167,171.557831 512.946167,342.115662 512.946167,513.000000 
	C429.311615,513.000000 345.622772,513.000000 261.194031,512.702576 
	C261.074005,511.901642 261.638397,511.301453 262.322021,510.908875 
	C276.542816,502.742981 290.801422,494.642731 305.002869,486.443481 
	C325.434540,474.647217 345.815613,462.763336 366.238739,450.952271 
	C384.554230,440.360077 402.916290,429.848358 421.222992,419.241028 
	C439.092773,408.886871 456.829163,398.297272 474.843292,388.202179 
	C478.205017,386.318237 479.070374,384.428528 479.062042,380.927307 
	C478.964874,340.112061 479.002258,299.296509 478.990692,258.481018 
	C478.990234,256.913055 478.855103,255.345184 478.764526,253.382904 
	C477.415955,253.964661 476.484833,254.264938 475.653717,254.740067 
	C462.563690,262.223358 449.464722,269.691376 436.412170,277.239685 
	C421.785492,285.698303 407.240204,294.298035 392.588745,302.713165 
	C383.513824,307.925354 374.307220,312.908295 365.096008,317.527588 
	C365.042908,276.404602 365.053528,235.748123 365.419678,195.041794 
	C403.563965,173.122208 441.352692,151.252487 479.754150,129.028168 
	C460.260773,117.685341 441.630035,106.756554 422.914124,95.975670 
	C397.907196,81.570984 372.814148,67.315811 347.794983,52.932285 
	C321.784302,37.978733 295.789581,22.996748 269.867310,7.890916 
	C266.661621,6.022838 263.943848,3.317415 261.000000,1.000003 
z"/>
<path fill="#000000" opacity="1.000000" stroke="none" 
	d="
M254.000000,513.000000 
	C169.702667,513.000000 85.405334,513.000000 1.054001,513.000000 
	C1.054001,342.442200 1.054001,171.884384 1.054001,1.000000 
	C84.688400,1.000000 168.377213,1.000000 252.875153,1.234583 
	C253.233902,1.930512 252.858978,2.521026 252.322250,2.834491 
	C234.483200,13.252984 216.660797,23.700615 198.768707,34.027454 
	C173.831451,48.420586 148.819977,62.685127 123.877762,77.069710 
	C96.255402,92.999985 68.660210,108.977608 41.105812,125.024994 
	C38.927952,126.293350 37.161392,128.267929 35.123768,130.384003 
	C35.030453,214.751480 35.016598,298.649292 35.010311,382.547089 
	C35.010250,383.376343 35.110435,384.205566 35.243866,385.371674 
	C50.096287,394.223602 64.856438,402.759979 79.644150,411.248322 
	C98.414444,422.022705 117.233864,432.711700 135.982910,443.522797 
	C156.560577,455.388336 177.049179,467.408447 197.638748,479.253143 
	C214.575012,488.996185 231.626907,498.538330 248.556778,508.292389 
	C250.597778,509.468292 252.196365,511.412109 254.000000,513.000000 
z"/>
<path fill="#3374AE" opacity="1.000000" stroke="none" 
	d="
M365.159729,317.994110 
	C374.307220,312.908295 383.513824,307.925354 392.588745,302.713165 
	C407.240204,294.298035 421.785492,285.698303 436.412170,277.239685 
	C449.464722,269.691376 462.563690,262.223358 475.653717,254.740067 
	C476.484833,254.264938 477.415955,253.964661 478.764526,253.382904 
	C478.855103,255.345184 478.990234,256.913055 478.990692,258.481018 
	C479.002258,299.296509 478.964874,340.112061 479.062042,380.927307 
	C479.070374,384.428528 478.205017,386.318237 474.843292,388.202179 
	C456.829163,398.297272 439.092773,408.886871 421.222992,419.241028 
	C402.916290,429.848358 384.554230,440.360077 366.238739,450.952271 
	C345.815613,462.763336 325.434540,474.647217 305.002869,486.443481 
	C290.801422,494.642731 276.542816,502.742981 262.322021,510.908875 
	C261.638397,511.301453 261.074005,511.901642 260.727051,512.702576 
	C260.250000,513.000000 259.500000,513.000000 258.351440,512.531799 
	C257.661041,468.336945 257.369141,424.610321 257.402466,380.792206 
	C261.669128,378.389954 265.597351,376.056213 269.554169,373.772095 
	C295.460297,358.817413 321.390747,343.904785 347.267914,328.900269 
	C352.594177,325.811920 357.729126,322.393646 363.252502,319.030640 
	C364.088440,318.620636 364.624084,318.307373 365.159729,317.994110 
z"/>
<path fill="#3374AE" opacity="1.000000" stroke="none" 
	d="
M260.600006,1.000003 
	C263.943848,3.317415 266.661621,6.022838 269.867310,7.890916 
	C295.789581,22.996748 321.784302,37.978733 347.794983,52.932285 
	C372.814148,67.315811 397.907196,81.570984 422.914124,95.975670 
	C441.630035,106.756554 460.260773,117.685341 479.754150,129.028168 
	C441.352692,151.252487 403.563965,173.122208 365.139343,194.837646 
	C341.636047,181.439804 318.790131,168.158936 295.892822,154.967224 
	C282.936798,147.502899 269.896423,140.184937 256.912140,132.345184 
	C256.953491,88.259552 256.976746,44.629776 257.000000,1.000000 
	C258.066681,1.000000 259.133331,1.000000 260.600006,1.000003 
z"/>
<path fill="#5090CA" opacity="1.000000" stroke="none" 
	d="
M257.077271,380.883667 
	C257.369141,424.610321 257.661041,468.336945 257.976440,512.531799 
	C256.933319,513.000000 255.866653,513.000000 254.399994,513.000000 
	C252.196365,511.412109 250.597778,509.468292 248.556778,508.292389 
	C231.626907,498.538330 214.575012,488.996185 197.638748,479.253143 
	C177.049179,467.408447 156.560577,455.388336 135.982910,443.522797 
	C117.233864,432.711700 98.414444,422.022705 79.644150,411.248322 
	C64.856438,402.759979 50.096287,394.223602 35.575302,385.273438 
	C36.728168,384.415985 37.666866,384.058014 38.525726,383.561829 
	C66.300400,367.515076 94.090019,351.493927 121.822701,335.374817 
	C130.999207,330.041168 140.026031,324.449982 149.434998,318.990356 
	C150.167847,319.041901 150.587006,319.079651 151.162231,319.429016 
	C152.375153,320.166626 153.505325,320.467438 154.477829,321.037292 
	C168.199280,329.077332 181.871674,337.201324 195.611023,345.210541 
	C216.076889,357.140839 236.586349,368.996338 257.077271,380.883667 
z"/>
<path fill="#5090CA" opacity="1.000000" stroke="none" 
	d="
M256.600006,1.000000 
	C256.976746,44.629776 256.953491,88.259552 256.951477,132.417282 
	C256.972687,132.945236 257.085510,133.064590 256.729065,133.106232 
	C255.038254,133.823578 253.667343,134.436081 252.374939,135.184204 
	C217.942429,155.115784 183.518005,175.061325 148.836075,194.776367 
	C121.681007,179.018661 94.814964,163.431686 67.866982,147.987717 
	C57.072109,141.801163 46.096840,135.929382 35.203690,129.914307 
	C37.161392,128.267929 38.927952,126.293350 41.105812,125.024994 
	C68.660210,108.977608 96.255402,92.999985 123.877762,77.069710 
	C148.819977,62.685127 173.831451,48.420586 198.768707,34.027454 
	C216.660797,23.700615 234.483200,13.252984 252.322250,2.834491 
	C252.858978,2.521026 253.233902,1.930512 253.342133,1.234583 
	C254.066666,1.000000 255.133347,1.000000 256.600006,1.000000 
z"/>
<path fill="#808184" opacity="1.000000" stroke="none" 
	d="
M256.933350,132.873138 
	C269.896423,140.184937 282.936798,147.502899 295.892822,154.967224 
	C318.790131,168.158936 341.636047,181.439804 364.783813,194.887497 
	C365.053528,235.748123 365.042908,276.404602 365.096008,317.527588 
	C364.624084,318.307373 364.088440,318.620636 362.931427,318.884644 
	C354.620789,314.244476 346.988678,309.554413 339.231873,305.080536 
	C311.865356,289.296478 284.456085,273.586517 257.048706,257.389587 
	C257.051422,215.642014 257.068451,174.353302 257.085510,133.064590 
	C257.085510,133.064590 256.972687,132.945236 256.933350,132.873138 
z"/>
<path fill="#3374AE" opacity="1.000000" stroke="none" 
	d="
M35.123764,130.384003 
	C46.096840,135.929382 57.072109,141.801163 67.866982,147.987717 
	C94.814964,163.431686 121.681007,179.018661 148.835266,195.246704 
	C149.100815,236.955612 149.111053,277.966064 149.121292,318.976532 
	C140.026031,324.449982 130.999207,330.041168 121.822701,335.374817 
	C94.090019,351.493927 66.300400,367.515076 38.525726,383.561829 
	C37.666866,384.058014 36.728168,384.415985 35.495255,384.936584 
	C35.110435,384.205566 35.010250,383.376343 35.010311,382.547089 
	C35.016598,298.649292 35.030453,214.751480 35.123764,130.384003 
z"/>
<path fill="#000000" opacity="1.000000" stroke="none" 
	d="
M257.063019,257.848450 
	C284.456085,273.586517 311.865356,289.296478 339.231873,305.080536 
	C346.988678,309.554413 354.620789,314.244476 362.631165,318.981415 
	C357.729126,322.393646 352.594177,325.811920 347.267914,328.900269 
	C321.390747,343.904785 295.460297,358.817413 269.554169,373.772095 
	C265.597351,376.056213 261.669128,378.389954 257.402466,380.792206 
	C236.586349,368.996338 216.076889,357.140839 195.611023,345.210541 
	C181.871674,337.201324 168.199280,329.077332 154.477829,321.037292 
	C153.505325,320.467438 152.375153,320.166626 151.478409,319.272034 
	C186.780029,298.485046 221.921524,278.166748 257.063019,257.848450 
z"/>
<path fill="#58595B" opacity="1.000000" stroke="none" 
	d="
M257.048706,257.389587 
	C221.921524,278.166748 186.780029,298.485046 151.322357,318.960358 
	C150.587006,319.079651 150.167847,319.041901 149.434998,318.990356 
	C149.111053,277.966064 149.100815,236.955612 149.091400,195.474823 
	C183.518005,175.061325 217.942429,155.115784 252.374939,135.184204 
	C253.667343,134.436081 255.038254,133.823578 256.729034,133.106232 
	C257.068451,174.353302 257.051422,215.642014 257.048706,257.389587 
z"/>
</svg>