<svg version="1.1" id="Layer_1" xmlns="http://www.w3.org/2000/svg" xmlns:xlink="http://www.w3.org/1999/xlink" x="0px" y="0px"
	 width="100%" viewBox="0 0 361 309" enable-background="new 0 0 361 309" xml:space="preserve">
<path fill="#FFFEFE" opacity="1.000000" stroke="none" 
	d="
M362.000000,114.000000 
	C362.000000,179.642349 362.000000,244.784714 362.000000,309.963531 
	C241.735886,309.963531 121.471748,309.963531 1.103806,309.963531 
	C1.103806,207.107727 1.103806,104.215309 1.103806,1.161444 
	C121.333153,1.161444 241.666565,1.161444 362.000000,1.161444 
	C362.000000,38.528164 362.000000,76.014084 362.000000,114.000000 
M71.315422,91.017601 
	C70.833862,91.594688 70.352303,92.171783 69.271919,93.068481 
	C64.825882,97.656479 60.379848,102.244469 55.323513,107.134430 
	C52.247669,110.493629 49.171822,113.852821 45.502022,117.480186 
	C33.266525,130.067932 21.031027,142.655670 8.285552,155.768066 
	C20.034271,167.701691 31.510799,179.358841 43.258400,191.624771 
	C52.486897,201.115692 61.715393,210.606613 71.174820,220.723160 
	C76.016563,225.522903 80.858315,230.322662 85.987999,235.740891 
	C89.306015,239.204773 92.624031,242.668640 96.159821,246.761139 
	C103.731255,254.251678 111.302689,261.742249 119.169685,269.834808 
	C133.350952,282.196320 149.045807,291.976013 167.638687,298.307404 
	C174.640472,300.131531 181.551056,302.861206 188.664398,303.577484 
	C200.740967,304.793518 212.945343,304.740479 225.734604,305.307220 
	C226.151398,305.223572 226.568192,305.139923 227.660690,305.207367 
	C228.091370,305.057648 228.522049,304.907928 229.769302,304.852448 
	C244.515610,303.195862 258.682739,299.500885 272.716553,292.792694 
	C311.669556,273.329468 338.281250,243.359985 350.819427,201.304291 
	C336.913208,221.742233 318.263916,235.063675 293.192596,240.096817 
	C291.145325,240.481689 289.098053,240.866562 286.113739,241.206741 
	C281.417572,241.240616 276.721405,241.274490 271.548950,241.057053 
	C271.371246,241.082275 271.193512,241.107513 270.360382,240.928238 
	C269.905426,240.955948 269.450439,240.983658 268.416656,240.557617 
	C266.942505,240.417343 265.468353,240.277054 263.248047,239.887299 
	C247.624756,236.406693 234.183014,228.799759 222.153122,217.621933 
	C204.125198,199.348175 186.097260,181.074432 167.793274,162.193329 
	C161.428238,155.558426 161.369705,156.765213 167.737747,150.524292 
	C168.197128,150.074081 168.518799,149.483307 169.525864,148.662155 
	C170.025635,147.815826 170.379196,146.825928 171.047638,146.145264 
	C178.242676,138.818741 185.549561,131.601395 192.703705,124.235550 
	C203.095596,113.536118 213.387100,102.739174 224.123703,91.404015 
	C228.018005,88.620308 231.827164,85.707329 235.821808,83.075951 
	C250.739304,73.249420 267.352203,69.644905 285.740845,70.202637 
	C314.081482,73.038208 335.428253,87.109787 350.825836,111.021904 
	C351.083557,109.624901 351.130676,108.490997 350.705261,107.576981 
	C345.674591,96.767693 341.446259,85.463310 335.309143,75.315948 
	C322.464722,54.078518 305.350494,36.821003 282.903351,24.246758 
	C273.694489,20.244511 264.712646,15.542862 255.206268,12.457253 
	C247.342133,9.904688 238.858673,9.260265 230.156219,7.218658 
	C229.438629,7.157078 228.721054,7.095497 227.180466,6.740461 
	C225.158279,6.623218 223.136078,6.505974 220.327347,6.115347 
	C203.627808,5.522451 187.225525,7.115842 170.644592,12.662108 
	C155.909088,17.447823 142.008575,23.863413 129.226746,33.770672 
	C128.793976,34.169388 128.361206,34.568104 127.306404,35.148193 
	C126.371147,36.053680 125.435898,36.959167 123.861191,37.986332 
	C117.867165,43.979061 111.873138,49.971794 105.270180,56.208687 
	C103.855499,57.498352 102.440819,58.788013 100.454185,60.277042 
	C99.696167,61.185898 98.938148,62.094753 97.750702,63.326054 
	C97.426880,63.746265 97.103058,64.166473 96.190865,64.937759 
	C89.873474,71.762054 83.556076,78.586349 77.262985,85.437164 
	C77.262985,85.437164 77.232170,85.445641 76.673531,85.521278 
	C76.034332,86.272110 75.395134,87.022942 74.905182,88.022507 
	C74.905182,88.022507 74.776321,87.763771 74.214310,88.027863 
	C73.414574,88.969131 72.614830,89.910408 71.959503,90.943207 
	C71.959503,90.943207 71.849098,90.812660 71.315422,91.017601 
M280.282227,110.107925 
	C278.721649,111.013771 277.161041,111.919624 275.011047,113.094269 
	C271.629944,116.313538 268.248871,119.532806 264.271423,123.100220 
	C249.865540,142.573364 249.309586,167.403839 263.197906,186.812759 
	C267.764893,190.887100 272.331909,194.961441 277.195679,199.676208 
	C280.797272,201.446533 284.398865,203.216843 288.634186,205.431793 
	C293.076355,206.057449 297.518524,206.683105 302.873413,207.479004 
	C308.292023,206.450836 313.710602,205.422684 319.772308,204.248505 
	C320.187439,204.104797 320.602539,203.961090 321.580994,203.844513 
	C321.751617,203.558762 321.922211,203.273010 322.589233,202.518616 
	C324.454224,201.704651 326.319214,200.890686 328.787811,199.982086 
	C329.904785,199.128662 331.021790,198.275238 332.771942,197.131851 
	C350.481384,182.757431 357.000671,164.280319 351.748566,142.210678 
	C349.160858,131.336975 343.913177,121.549599 333.360840,114.851723 
	C329.618622,112.545525 325.876404,110.239326 321.642273,107.369858 
	C320.449646,107.041359 319.257019,106.712868 317.539154,105.932648 
	C314.896332,105.569092 312.253510,105.205528 308.922211,104.219002 
	C303.616791,104.517548 298.311401,104.816093 292.250885,105.095253 
	C288.473175,106.677383 284.695435,108.259514 280.282227,110.107925 
z"/>
<path fill="#ED2588" opacity="1.000000" stroke="none" 
	d="
M129.802277,33.586014 
	C142.008575,23.863413 155.909088,17.447823 171.408417,12.877811 
	C173.828171,13.728353 175.492813,14.917708 177.138367,14.891835 
	C181.686615,14.820322 183.287720,16.686550 183.066772,21.205496 
	C182.548569,31.804735 182.194992,42.420120 182.137589,53.030930 
	C182.099609,60.047668 182.843323,67.065117 182.966629,74.087006 
	C183.190155,86.814041 182.870926,99.559311 183.418594,112.269379 
	C183.914368,123.774849 181.280319,133.708969 172.179611,141.343185 
	C171.164719,142.194534 169.899353,143.063599 169.455658,144.199921 
	C168.893997,145.638336 169.055099,147.358978 168.904495,148.957901 
	C168.518799,149.483307 168.197128,150.074081 167.737747,150.524292 
	C161.369705,156.765213 161.428238,155.558426 167.913467,162.875748 
	C169.135986,165.318954 170.002029,167.295319 171.379562,168.804977 
	C179.374130,177.566437 186.331284,186.207657 184.289200,199.700745 
	C182.808044,209.487473 184.127884,219.680801 183.966766,229.689087 
	C183.777008,241.475433 183.133972,253.256729 183.075958,265.042114 
	C183.036713,273.012299 183.741135,280.983582 183.978043,288.958374 
	C184.194244,296.237122 183.388306,297.057343 176.330566,296.967102 
	C174.033279,296.937775 171.740631,296.364655 169.446503,296.369080 
	C168.633820,296.370636 167.823029,297.349701 167.011383,297.882538 
	C149.045807,291.976013 133.350952,282.196320 119.201828,269.258026 
	C123.771591,271.431458 128.171188,274.456757 132.898590,276.828766 
	C135.734024,278.251465 139.081467,278.653717 142.648621,279.638824 
	C143.097000,269.846741 143.583755,261.514465 143.827057,253.175110 
	C144.021240,246.519592 143.845581,239.853958 143.977707,233.195663 
	C144.047897,229.657959 144.752365,226.111130 144.590149,222.595200 
	C144.285355,215.989365 143.157379,209.406143 143.105057,202.807709 
	C143.030899,193.450943 143.878540,184.088394 143.859070,174.729294 
	C143.835983,163.619797 143.071625,152.511307 143.073181,141.402451 
	C143.074600,131.181442 143.951950,120.957863 143.857651,110.740829 
	C143.819473,106.604263 142.221802,102.483421 141.357925,98.350380 
	C141.295273,98.050629 141.430237,97.709572 141.510696,97.108444 
	C142.563202,96.454414 143.759674,95.710922 145.035889,94.917877 
	C144.094925,91.047684 142.512985,87.439415 142.491928,83.822052 
	C142.453751,77.266495 143.697571,70.709229 143.766602,64.145950 
	C143.869476,54.368118 142.847183,44.549034 143.451706,34.818832 
	C143.736038,30.242062 143.412079,29.104317 139.148117,30.833626 
	C137.214951,31.617645 135.434616,32.804085 133.472000,33.479984 
	C132.367584,33.860340 131.033112,33.572716 129.802277,33.586014 
z"/>
<path fill="#F0298D" opacity="1.000000" stroke="none" 
	d="
M129.514511,33.678345 
	C131.033112,33.572716 132.367584,33.860340 133.472000,33.479984 
	C135.434616,32.804085 137.214951,31.617645 139.148117,30.833626 
	C143.412079,29.104317 143.736038,30.242062 143.451706,34.818832 
	C142.847183,44.549034 143.869476,54.368118 143.766602,64.145950 
	C143.697571,70.709229 142.453751,77.266495 142.491928,83.822052 
	C142.512985,87.439415 144.094925,91.047684 145.035889,94.917877 
	C143.759674,95.710922 142.563202,96.454414 141.510696,97.108444 
	C141.430237,97.709572 141.295273,98.050629 141.357925,98.350380 
	C142.221802,102.483421 143.819473,106.604263 143.857651,110.740829 
	C143.951950,120.957863 143.074600,131.181442 143.073181,141.402451 
	C143.071625,152.511307 143.835983,163.619797 143.859070,174.729294 
	C143.878540,184.088394 143.030899,193.450943 143.105057,202.807709 
	C143.157379,209.406143 144.285355,215.989365 144.590149,222.595200 
	C144.752365,226.111130 144.047897,229.657959 143.977707,233.195663 
	C143.845581,239.853958 144.021240,246.519592 143.827057,253.175110 
	C143.583755,261.514465 143.097000,269.846741 142.648621,279.638824 
	C139.081467,278.653717 135.734024,278.251465 132.898590,276.828766 
	C128.171188,274.456757 123.771591,271.431458 119.054054,268.957031 
	C111.302689,261.742249 103.731255,254.251678 96.072472,246.091003 
	C95.987274,244.945709 95.989426,244.470551 96.311592,244.020706 
	C97.421005,244.363998 98.210411,244.682007 99.145248,245.300705 
	C104.325584,250.210266 109.360481,254.819122 114.395386,259.427979 
	C115.158203,259.112915 115.921021,258.797852 116.683830,258.482819 
	C116.748070,251.392776 116.773834,244.302078 116.894112,237.213013 
	C116.947670,234.056244 117.437576,230.890900 117.286812,227.750702 
	C117.098717,223.833221 116.178612,219.945541 116.066605,216.030914 
	C115.864601,208.970978 115.345314,201.814606 116.221405,194.857529 
	C117.195915,187.118958 116.949516,179.652267 116.343307,171.894211 
	C115.496613,161.058487 116.663841,150.063171 117.020882,139.137833 
	C117.079910,137.331757 117.452797,135.538086 117.587669,133.731750 
	C117.709625,132.098419 117.827370,130.448471 117.732857,128.818283 
	C117.419678,123.416435 116.649254,118.015160 116.724594,112.623032 
	C116.828346,105.196075 117.762688,97.782257 117.918953,90.353935 
	C118.022820,85.416710 117.225533,80.467323 117.123825,75.517372 
	C116.974197,68.234474 117.085243,60.946217 117.085243,52.892876 
	C114.655647,53.305832 112.932388,53.448029 111.302475,53.915627 
	C109.451126,54.446747 107.683266,55.268890 105.879112,55.964527 
	C111.873138,49.971794 117.867165,43.979061 124.572899,37.956558 
	C128.664886,37.541531 128.789093,37.402470 127.928436,34.966820 
	C128.361206,34.568104 128.793976,34.169388 129.514511,33.678345 
z"/>
<path fill="#E92080" opacity="1.000000" stroke="none" 
	d="
M169.215179,148.810028 
	C169.055099,147.358978 168.893997,145.638336 169.455658,144.199921 
	C169.899353,143.063599 171.164719,142.194534 172.179611,141.343185 
	C181.280319,133.708969 183.914368,123.774849 183.418594,112.269379 
	C182.870926,99.559311 183.190155,86.814041 182.966629,74.087006 
	C182.843323,67.065117 182.099609,60.047668 182.137589,53.030930 
	C182.194992,42.420120 182.548569,31.804735 183.066772,21.205496 
	C183.287720,16.686550 181.686615,14.820322 177.138367,14.891835 
	C175.492813,14.917708 173.828171,13.728353 171.773880,12.932329 
	C187.225525,7.115842 203.627808,5.522451 220.814209,6.622764 
	C223.142273,8.092216 224.992111,9.038138 226.822556,10.020167 
	C229.384476,11.394608 233.618271,12.334140 234.150497,14.277564 
	C235.438583,18.980995 235.405212,24.178818 235.149750,29.138491 
	C234.839417,35.163559 233.098633,41.154789 233.154129,47.149757 
	C233.242828,56.731659 234.369400,66.301056 234.869156,75.885544 
	C234.935287,77.153328 234.234283,78.831299 233.310165,79.713356 
	C230.127396,82.751350 226.592178,85.421967 223.439590,88.487915 
	C222.905441,89.007385 223.596436,90.786613 223.721405,91.983818 
	C213.387100,102.739174 203.095596,113.536118 192.703705,124.235550 
	C185.549561,131.601395 178.242676,138.818741 171.047638,146.145264 
	C170.379196,146.825928 170.025635,147.815826 169.215179,148.810028 
z"/>
<path fill="#E92080" opacity="1.000000" stroke="none" 
	d="
M167.325043,298.094971 
	C167.823029,297.349701 168.633820,296.370636 169.446503,296.369080 
	C171.740631,296.364655 174.033279,296.937775 176.330566,296.967102 
	C183.388306,297.057343 184.194244,296.237122 183.978043,288.958374 
	C183.741135,280.983582 183.036713,273.012299 183.075958,265.042114 
	C183.133972,253.256729 183.777008,241.475433 183.966766,229.689087 
	C184.127884,219.680801 182.808044,209.487473 184.289200,199.700745 
	C186.331284,186.207657 179.374130,177.566437 171.379562,168.804977 
	C170.002029,167.295319 169.135986,165.318954 168.051498,163.179413 
	C186.097260,181.074432 204.125198,199.348175 222.136322,218.361786 
	C222.558945,220.268066 222.699219,221.723190 223.493958,222.546768 
	C225.872772,225.011810 229.089355,226.855316 230.885498,229.645340 
	C232.839767,232.681046 234.291412,236.431686 234.659500,240.004822 
	C235.202835,245.278931 234.495193,250.671814 234.504456,256.013794 
	C234.514099,261.585358 234.800125,267.155914 234.859100,272.728027 
	C234.924301,278.888000 234.364868,285.101196 234.993179,291.196808 
	C235.787262,298.900574 234.628860,301.035889 226.615860,301.945526 
	C223.752228,302.270599 224.278625,303.519531 225.095993,305.220825 
	C212.945343,304.740479 200.740967,304.793518 188.664398,303.577484 
	C181.551056,302.861206 174.640472,300.131531 167.325043,298.094971 
z"/>
<path fill="#E51A78" opacity="1.000000" stroke="none" 
	d="
M223.922546,91.693916 
	C223.596436,90.786613 222.905441,89.007385 223.439590,88.487915 
	C226.592178,85.421967 230.127396,82.751350 233.310165,79.713356 
	C234.234283,78.831299 234.935287,77.153328 234.869156,75.885544 
	C234.369400,66.301056 233.242828,56.731659 233.154129,47.149757 
	C233.098633,41.154789 234.839417,35.163559 235.149750,29.138491 
	C235.405212,24.178818 235.438583,18.980995 234.150497,14.277564 
	C233.618271,12.334140 229.384476,11.394608 226.822556,10.020167 
	C224.992111,9.038138 223.142273,8.092216 221.207489,6.759456 
	C223.136078,6.505974 225.158279,6.623218 227.838638,7.156926 
	C229.214417,7.639057 229.932007,7.704722 230.649612,7.770388 
	C238.858673,9.260265 247.342133,9.904688 255.206268,12.457253 
	C264.712646,15.542862 273.694489,20.244511 282.840088,24.701344 
	C283.107330,26.064362 283.167603,27.317223 283.813324,27.823877 
	C287.320068,30.575262 291.097198,32.990170 294.528931,35.826221 
	C296.843689,37.739178 299.851166,39.862377 300.531433,42.426693 
	C301.299622,45.322372 299.942169,48.846249 299.257507,52.043026 
	C298.695923,54.665279 297.194824,57.188610 297.103790,59.790550 
	C296.808746,68.227119 295.557159,69.322250 287.230255,67.624115 
	C285.070740,67.183731 282.806396,67.257584 280.590179,67.095230 
	C280.571899,67.504890 280.553589,67.914551 280.535309,68.324203 
	C282.020416,68.861732 283.505524,69.399269 284.990631,69.936798 
	C267.352203,69.644905 250.739304,73.249420 235.821808,83.075951 
	C231.827164,85.707329 228.018005,88.620308 223.922546,91.693916 
z"/>
<path fill="#E51A78" opacity="1.000000" stroke="none" 
	d="
M225.415298,305.264008 
	C224.278625,303.519531 223.752228,302.270599 226.615860,301.945526 
	C234.628860,301.035889 235.787262,298.900574 234.993179,291.196808 
	C234.364868,285.101196 234.924301,278.888000 234.859100,272.728027 
	C234.800125,267.155914 234.514099,261.585358 234.504456,256.013794 
	C234.495193,250.671814 235.202835,245.278931 234.659500,240.004822 
	C234.291412,236.431686 232.839767,232.681046 230.885498,229.645340 
	C229.089355,226.855316 225.872772,225.011810 223.493958,222.546768 
	C222.699219,221.723190 222.558945,220.268066 222.210999,218.670731 
	C234.183014,228.799759 247.624756,236.406693 263.668213,240.302704 
	C265.724091,240.815857 267.359772,240.913605 268.995483,241.011383 
	C269.450439,240.983658 269.905426,240.955948 270.801971,241.229065 
	C271.448456,241.767883 271.699951,241.936264 272.092102,242.429169 
	C273.693604,243.216125 275.194244,243.913940 276.709747,243.947845 
	C282.614929,244.080017 288.524841,244.001740 294.378418,244.001740 
	C295.008942,245.868439 295.759491,248.000610 296.449707,250.152161 
	C298.051483,255.145447 300.230957,259.916626 298.099548,265.508362 
	C295.969330,271.096985 295.295288,277.221985 289.043335,280.434875 
	C284.063446,282.994019 279.364349,286.127380 274.685150,289.224243 
	C273.508759,290.002808 272.886871,291.619202 272.010162,292.850555 
	C258.682739,299.500885 244.515610,303.195862 229.186768,304.615204 
	C228.064484,304.604065 227.524734,304.830170 226.984985,305.056274 
	C226.568192,305.139923 226.151398,305.223572 225.415298,305.264008 
z"/>
<path fill="#F22D92" opacity="1.000000" stroke="none" 
	d="
M98.999809,245.000000 
	C98.210411,244.682007 97.421005,244.363998 96.167084,243.722137 
	C92.368401,240.639664 89.034225,237.881042 85.700058,235.122421 
	C80.858315,230.322662 76.016563,225.522903 71.264839,220.134888 
	C75.084442,221.518631 78.814018,223.490646 83.515839,225.976746 
	C84.339928,223.282104 85.736328,220.603180 85.883835,217.857178 
	C86.235954,211.302231 85.999687,204.715668 85.999870,198.141861 
	C86.000282,183.303925 85.999855,168.465973 86.000046,153.628036 
	C86.000175,143.280380 86.000946,132.932724 86.001099,122.585068 
	C86.001297,109.504723 86.001152,96.424370 86.001152,82.431496 
	C82.361015,83.669106 79.799850,84.539879 77.238686,85.410645 
	C83.556076,78.586349 89.873474,71.762054 96.687965,65.084534 
	C99.265762,64.989502 101.346458,64.747696 102.847794,64.573219 
	C108.577660,73.169716 103.078079,82.137115 104.317940,91.134415 
	C105.972771,103.143028 104.305885,115.616264 103.977905,127.887604 
	C103.858948,132.338120 102.343704,137.098053 103.467598,141.163330 
	C105.851952,149.787842 103.055763,158.142670 103.539978,166.616150 
	C103.917000,173.213882 103.176567,179.869125 103.120972,186.500366 
	C103.088455,190.378220 103.403038,194.260315 103.602646,198.138382 
	C103.784737,201.676270 104.231529,205.214371 104.179680,208.746780 
	C104.121841,212.687393 103.436577,216.618515 103.372818,220.559387 
	C103.238632,228.853760 103.332039,237.151825 103.332039,245.522583 
	C101.919174,245.352142 100.459496,245.176071 98.999809,245.000000 
z"/>
<path fill="#F42F95" opacity="1.000000" stroke="none" 
	d="
M77.250839,85.423904 
	C79.799850,84.539879 82.361015,83.669106 86.001152,82.431496 
	C86.001152,96.424370 86.001297,109.504723 86.001099,122.585068 
	C86.000946,132.932724 86.000175,143.280380 86.000046,153.628036 
	C85.999855,168.465973 86.000282,183.303925 85.999870,198.141861 
	C85.999687,204.715668 86.235954,211.302231 85.883835,217.857178 
	C85.736328,220.603180 84.339928,223.282104 83.515839,225.976746 
	C78.814018,223.490646 75.084442,221.518631 71.149376,219.822083 
	C61.715393,210.606613 52.486897,201.115692 43.333385,191.057343 
	C44.776394,191.045761 46.237835,191.445282 47.490688,192.193878 
	C49.402683,193.336273 51.170506,194.719971 53.035511,196.352173 
	C55.928719,200.758392 58.094254,205.685577 64.557594,205.971786 
	C65.359436,199.900375 66.142296,194.182358 66.827934,188.452713 
	C66.895531,187.887787 66.220276,187.269897 66.142525,186.645142 
	C65.867989,184.439133 65.429649,182.204239 65.551720,180.007980 
	C65.843864,174.751877 66.812416,169.507828 66.762833,164.265961 
	C66.718918,159.622742 64.089317,154.461349 65.421677,150.470306 
	C67.618553,143.889618 66.895782,138.362350 65.639900,131.758926 
	C63.953697,122.892860 65.222054,113.464867 65.222054,102.825783 
	C62.679260,104.709091 60.943611,105.965324 59.241211,107.265091 
	C57.968666,108.236671 56.616486,110.213463 55.933815,106.832466 
	C60.379848,102.244469 64.825882,97.656479 69.758102,93.182724 
	C70.779221,92.468857 71.314156,91.640755 71.849091,90.812660 
	C71.849098,90.812660 71.959503,90.943207 72.284943,90.937576 
	C73.332359,89.875885 74.054344,88.819832 74.776321,87.763771 
	C74.776321,87.763771 74.905182,88.022507 75.238152,87.965309 
	C76.124802,87.087288 76.678490,86.266464 77.232178,85.445641 
	C77.232170,85.445641 77.262985,85.437164 77.250839,85.423904 
z"/>
<path fill="#F12A90" opacity="1.000000" stroke="none" 
	d="
M99.145248,245.300705 
	C100.459496,245.176071 101.919174,245.352142 103.332039,245.522583 
	C103.332039,237.151825 103.238632,228.853760 103.372818,220.559387 
	C103.436577,216.618515 104.121841,212.687393 104.179680,208.746780 
	C104.231529,205.214371 103.784737,201.676270 103.602646,198.138382 
	C103.403038,194.260315 103.088455,190.378220 103.120972,186.500366 
	C103.176567,179.869125 103.917000,173.213882 103.539978,166.616150 
	C103.055763,158.142670 105.851952,149.787842 103.467598,141.163330 
	C102.343704,137.098053 103.858948,132.338120 103.977905,127.887604 
	C104.305885,115.616264 105.972771,103.143028 104.317940,91.134415 
	C103.078079,82.137115 108.577660,73.169716 102.847794,64.573219 
	C101.346458,64.747696 99.265762,64.989502 96.982147,64.908997 
	C97.103058,64.166473 97.426880,63.746265 98.318329,63.155571 
	C99.599358,62.015949 100.312744,61.046814 101.026138,60.077675 
	C102.440819,58.788013 103.855499,57.498352 105.574646,56.086609 
	C107.683266,55.268890 109.451126,54.446747 111.302475,53.915627 
	C112.932388,53.448029 114.655647,53.305832 117.085243,52.892876 
	C117.085243,60.946217 116.974197,68.234474 117.123825,75.517372 
	C117.225533,80.467323 118.022820,85.416710 117.918953,90.353935 
	C117.762688,97.782257 116.828346,105.196075 116.724594,112.623032 
	C116.649254,118.015160 117.419678,123.416435 117.732857,128.818283 
	C117.827370,130.448471 117.709625,132.098419 117.587669,133.731750 
	C117.452797,135.538086 117.079910,137.331757 117.020882,139.137833 
	C116.663841,150.063171 115.496613,161.058487 116.343307,171.894211 
	C116.949516,179.652267 117.195915,187.118958 116.221405,194.857529 
	C115.345314,201.814606 115.864601,208.970978 116.066605,216.030914 
	C116.178612,219.945541 117.098717,223.833221 117.286812,227.750702 
	C117.437576,230.890900 116.947670,234.056244 116.894112,237.213013 
	C116.773834,244.302078 116.748070,251.392776 116.683830,258.482819 
	C115.921021,258.797852 115.158203,259.112915 114.395386,259.427979 
	C109.360481,254.819122 104.325584,250.210266 99.145248,245.300705 
z"/>
<path fill="#F6349B" opacity="1.000000" stroke="none" 
	d="
M52.999535,196.001221 
	C51.170506,194.719971 49.402683,193.336273 47.490688,192.193878 
	C46.237835,191.445282 44.776394,191.045761 43.197849,190.752960 
	C31.510799,179.358841 20.034271,167.701691 8.285552,155.768066 
	C21.031027,142.655670 33.266525,130.067932 46.053967,117.581718 
	C48.027836,117.474266 49.452396,117.082367 50.871010,117.102859 
	C52.622303,117.128151 54.368649,117.496338 56.117130,117.716362 
	C55.695301,119.225685 55.273476,120.735016 54.591244,123.176094 
	C54.839851,125.644547 59.425560,128.337524 56.869164,132.681625 
	C55.227482,132.081619 53.971504,131.622574 52.715530,131.163528 
	C52.362282,131.432693 52.009033,131.701859 51.655785,131.971039 
	C53.528816,135.986008 55.401848,140.000977 57.311897,144.095291 
	C56.907951,144.714478 55.633469,145.787125 55.787025,146.584900 
	C56.457909,150.070343 57.881351,153.377747 54.309864,156.399658 
	C53.651924,156.956360 54.883720,159.547302 54.957462,161.211975 
	C55.086327,164.121063 54.993370,167.039978 54.993370,169.954758 
	C54.349232,169.943665 53.705093,169.932571 53.060955,169.921478 
	C57.856506,174.453445 56.277279,178.524109 52.215958,182.268036 
	C54.351006,183.233734 56.089962,184.020264 58.374058,185.053375 
	C56.527721,187.355850 55.026413,189.228058 53.539902,191.081802 
	C56.749275,194.752136 56.749275,194.752136 52.999535,196.001221 
z"/>
<path fill="#E21571" opacity="1.000000" stroke="none" 
	d="
M272.363342,292.821625 
	C272.886871,291.619202 273.508759,290.002808 274.685150,289.224243 
	C279.364349,286.127380 284.063446,282.994019 289.043335,280.434875 
	C295.295288,277.221985 295.969330,271.096985 298.099548,265.508362 
	C300.230957,259.916626 298.051483,255.145447 296.449707,250.152161 
	C295.759491,248.000610 295.008942,245.868439 294.378418,244.001740 
	C288.524841,244.001740 282.614929,244.080017 276.709747,243.947845 
	C275.194244,243.913940 273.693604,243.216125 272.107971,242.247650 
	C272.029816,241.671982 272.025238,241.308365 272.025238,241.308365 
	C276.721405,241.274490 281.417572,241.240616 286.846619,241.454315 
	C289.713593,241.196930 291.847717,240.691956 293.981812,240.186981 
	C318.263916,235.063675 336.913208,221.742233 350.819427,201.304291 
	C338.281250,243.359985 311.669556,273.329468 272.363342,292.821625 
z"/>
<path fill="#EA2081" opacity="1.000000" stroke="none" 
	d="
M319.129211,204.394516 
	C313.710602,205.422684 308.292023,206.450836 302.471924,207.004395 
	C308.043762,203.899170 307.073334,198.629395 307.014526,193.661377 
	C306.952393,188.414642 306.899567,183.163956 307.029602,177.919617 
	C307.284393,167.643509 307.870178,157.371765 307.929260,147.095963 
	C307.968658,140.237549 306.885223,133.359497 307.124969,126.518990 
	C307.377777,119.305359 310.330109,111.938286 303.683441,105.320999 
	C306.331207,105.107010 307.970947,104.974487 309.610687,104.841965 
	C312.253510,105.205528 314.896332,105.569092 317.806030,106.582489 
	C319.047913,110.315697 320.933105,113.421814 320.856689,116.478905 
	C320.124207,145.781494 323.109283,175.161850 319.129211,204.394516 
z"/>
<path fill="#E21572" opacity="1.000000" stroke="none" 
	d="
M285.365723,70.069717 
	C283.505524,69.399269 282.020416,68.861732 280.535309,68.324203 
	C280.553589,67.914551 280.571899,67.504890 280.590179,67.095230 
	C282.806396,67.257584 285.070740,67.183731 287.230255,67.624115 
	C295.557159,69.322250 296.808746,68.227119 297.103790,59.790550 
	C297.194824,57.188610 298.695923,54.665279 299.257507,52.043026 
	C299.942169,48.846249 301.299622,45.322372 300.531433,42.426693 
	C299.851166,39.862377 296.843689,37.739178 294.528931,35.826221 
	C291.097198,32.990170 287.320068,30.575262 283.813324,27.823877 
	C283.167603,27.317223 283.107330,26.064362 283.064331,24.975185 
	C305.350494,36.821003 322.464722,54.078518 335.309143,75.315948 
	C341.446259,85.463310 345.674591,96.767693 350.705261,107.576981 
	C351.130676,108.490997 351.083557,109.624901 350.825836,111.021904 
	C335.428253,87.109787 314.081482,73.038208 285.365723,70.069717 
z"/>
<path fill="#ED2588" opacity="1.000000" stroke="none" 
	d="
M309.266449,104.530487 
	C307.970947,104.974487 306.331207,105.107010 303.683441,105.320999 
	C310.330109,111.938286 307.377777,119.305359 307.124969,126.518990 
	C306.885223,133.359497 307.968658,140.237549 307.929260,147.095963 
	C307.870178,157.371765 307.284393,167.643509 307.029602,177.919617 
	C306.899567,183.163956 306.952393,188.414642 307.014526,193.661377 
	C307.073334,198.629395 308.043762,203.899170 302.015564,206.919281 
	C297.518524,206.683105 293.076355,206.057449 288.399628,204.828308 
	C289.652618,203.810028 291.257965,203.619034 292.593719,202.915878 
	C293.861908,202.248245 295.784241,201.074036 295.815674,200.072266 
	C296.204315,187.691467 296.428925,175.301498 296.436066,162.913757 
	C296.444580,148.165878 295.708191,133.396973 296.331512,118.681099 
	C296.553497,113.439789 296.025269,109.181633 293.005981,105.114639 
	C298.311401,104.816093 303.616791,104.517548 309.266449,104.530487 
z"/>
<path fill="#F53097" opacity="1.000000" stroke="none" 
	d="
M53.035507,196.352173 
	C56.749275,194.752136 56.749275,194.752136 53.539902,191.081802 
	C55.026413,189.228058 56.527721,187.355850 58.374058,185.053375 
	C56.089962,184.020264 54.351006,183.233734 52.215958,182.268036 
	C56.277279,178.524109 57.856506,174.453445 53.060955,169.921478 
	C53.705093,169.932571 54.349232,169.943665 54.993370,169.954758 
	C54.993370,167.039978 55.086327,164.121063 54.957462,161.211975 
	C54.883720,159.547302 53.651924,156.956360 54.309864,156.399658 
	C57.881351,153.377747 56.457909,150.070343 55.787025,146.584900 
	C55.633469,145.787125 56.907951,144.714478 57.311897,144.095291 
	C55.401848,140.000977 53.528816,135.986008 51.655785,131.971039 
	C52.009033,131.701859 52.362282,131.432693 52.715530,131.163528 
	C53.971504,131.622574 55.227482,132.081619 56.869164,132.681625 
	C59.425560,128.337524 54.839851,125.644547 54.591244,123.176094 
	C55.273476,120.735016 55.695301,119.225685 56.117130,117.716362 
	C54.368649,117.496338 52.622303,117.128151 50.871010,117.102859 
	C49.452396,117.082367 48.027836,117.474266 46.350945,117.447632 
	C49.171822,113.852821 52.247669,110.493629 55.628662,106.983444 
	C56.616486,110.213463 57.968666,108.236671 59.241211,107.265091 
	C60.943611,105.965324 62.679260,104.709091 65.222054,102.825783 
	C65.222054,113.464867 63.953697,122.892860 65.639900,131.758926 
	C66.895782,138.362350 67.618553,143.889618 65.421677,150.470306 
	C64.089317,154.461349 66.718918,159.622742 66.762833,164.265961 
	C66.812416,169.507828 65.843864,174.751877 65.551720,180.007980 
	C65.429649,182.204239 65.867989,184.439133 66.142525,186.645142 
	C66.220276,187.269897 66.895531,187.887787 66.827934,188.452713 
	C66.142296,194.182358 65.359436,199.900375 64.557594,205.971786 
	C58.094254,205.685577 55.928719,200.758392 53.035507,196.352173 
z"/>
<path fill="#F32E94" opacity="1.000000" stroke="none" 
	d="
M264.867767,122.752075 
	C268.248871,119.532806 271.629944,116.313538 275.705353,113.124588 
	C278.115540,113.651047 279.831421,114.147186 282.000000,114.774231 
	C282.000000,116.567780 282.000000,118.366310 282.000000,120.164833 
	C282.000000,143.825089 282.031097,167.485428 281.956085,191.145447 
	C281.947754,193.764603 281.333344,196.381866 280.589905,198.999786 
	C279.086182,199.011658 277.992554,199.023712 276.898926,199.035767 
	C272.331909,194.961441 267.764893,190.887100 263.237305,186.228394 
	C265.210938,186.252441 267.145203,186.860870 269.697845,187.663818 
	C269.797272,185.811432 270.055023,183.924103 269.967407,182.052933 
	C269.767548,177.783722 269.229370,173.525772 269.144684,169.256973 
	C269.056366,164.804718 269.365753,160.345581 269.447479,155.888474 
	C269.486237,153.772461 268.842377,151.472198 269.463928,149.567444 
	C272.667908,139.748520 269.144440,131.213730 264.867767,122.752075 
z"/>
<path fill="#E71C7B" opacity="1.000000" stroke="none" 
	d="
M319.450745,204.321503 
	C323.109283,175.161850 320.124207,145.781494 320.856689,116.478905 
	C320.933105,113.421814 319.047913,110.315697 318.068634,106.808350 
	C319.257019,106.712868 320.449646,107.041359 321.635315,107.839516 
	C323.296082,109.818649 325.129883,111.184547 326.590210,112.873360 
	C328.484924,115.064514 331.259949,117.366394 331.572327,119.879601 
	C332.313446,125.842667 331.931763,131.960632 331.801361,138.011612 
	C331.703705,142.542526 331.012970,147.070587 331.077209,151.592957 
	C331.200531,160.274170 331.736542,168.948792 331.956268,177.629822 
	C332.013794,179.903763 330.907288,182.348907 331.430389,184.441711 
	C332.788269,189.874069 331.473053,194.091492 327.234192,197.625839 
	C327.019165,197.805115 327.843689,199.231171 328.184204,200.076721 
	C326.319214,200.890686 324.454224,201.704651 322.119812,202.831329 
	C321.364807,203.298279 321.153870,203.522720 321.017670,203.817383 
	C320.602539,203.961090 320.187439,204.104797 319.450745,204.321503 
z"/>
<path fill="#E41876" opacity="1.000000" stroke="none" 
	d="
M328.486023,200.029404 
	C327.843689,199.231171 327.019165,197.805115 327.234192,197.625839 
	C331.473053,194.091492 332.788269,189.874069 331.430389,184.441711 
	C330.907288,182.348907 332.013794,179.903763 331.956268,177.629822 
	C331.736542,168.948792 331.200531,160.274170 331.077209,151.592957 
	C331.012970,147.070587 331.703705,142.542526 331.801361,138.011612 
	C331.931763,131.960632 332.313446,125.842667 331.572327,119.879601 
	C331.259949,117.366394 328.484924,115.064514 326.590210,112.873360 
	C325.129883,111.184547 323.296082,109.818649 321.881256,108.121155 
	C325.876404,110.239326 329.618622,112.545525 333.686798,115.360596 
	C334.372314,116.766983 334.508026,117.876968 335.126617,118.528625 
	C340.363739,124.045937 344.009644,130.475098 345.347778,137.922592 
	C346.175201,142.527908 347.706085,148.128662 345.907745,151.810776 
	C343.448120,156.846848 342.909912,162.045425 344.561737,166.082733 
	C347.832947,174.078262 342.616119,179.236435 340.087402,185.191315 
	C338.215912,189.598541 334.842865,193.368134 332.138763,197.421799 
	C331.021790,198.275238 329.904785,199.128662 328.486023,200.029404 
z"/>
<path fill="#F0288D" opacity="1.000000" stroke="none" 
	d="
M277.047302,199.355988 
	C277.992554,199.023712 279.086182,199.011658 280.866211,199.288635 
	C283.583710,199.577667 285.614807,199.577667 288.000000,199.577667 
	C288.000000,197.240219 288.000000,195.435349 288.000000,193.630478 
	C288.000000,169.569458 288.000000,145.508453 288.000000,121.447433 
	C288.000000,112.243500 288.000000,112.243500 280.917725,109.841644 
	C284.695435,108.259514 288.473175,106.677383 292.628418,105.104950 
	C296.025269,109.181633 296.553497,113.439789 296.331512,118.681099 
	C295.708191,133.396973 296.444580,148.165878 296.436066,162.913757 
	C296.428925,175.301498 296.204315,187.691467 295.815674,200.072266 
	C295.784241,201.074036 293.861908,202.248245 292.593719,202.915878 
	C291.257965,203.619034 289.652618,203.810028 288.082764,204.605988 
	C284.398865,203.216843 280.797272,201.446533 277.047302,199.355988 
z"/>
<path fill="#F6359B" opacity="1.000000" stroke="none" 
	d="
M264.569580,122.926147 
	C269.144440,131.213730 272.667908,139.748520 269.463928,149.567444 
	C268.842377,151.472198 269.486237,153.772461 269.447479,155.888474 
	C269.365753,160.345581 269.056366,164.804718 269.144684,169.256973 
	C269.229370,173.525772 269.767548,177.783722 269.967407,182.052933 
	C270.055023,183.924103 269.797272,185.811432 269.697845,187.663818 
	C267.145203,186.860870 265.210938,186.252441 263.067230,185.940735 
	C249.309586,167.403839 249.865540,142.573364 264.569580,122.926147 
z"/>
<path fill="#F12A8F" opacity="1.000000" stroke="none" 
	d="
M280.599976,109.974785 
	C288.000000,112.243500 288.000000,112.243500 288.000000,121.447433 
	C288.000000,145.508453 288.000000,169.569458 288.000000,193.630478 
	C288.000000,195.435349 288.000000,197.240219 288.000000,199.577667 
	C285.614807,199.577667 283.583710,199.577667 281.276306,199.288834 
	C281.333344,196.381866 281.947754,193.764603 281.956085,191.145447 
	C282.031097,167.485428 282.000000,143.825089 282.000000,120.164833 
	C282.000000,118.366310 282.000000,116.567780 282.000000,114.774231 
	C279.831421,114.147186 278.115540,113.651047 276.000061,112.990189 
	C277.161041,111.919624 278.721649,111.013771 280.599976,109.974785 
z"/>
<path fill="#E21672" opacity="1.000000" stroke="none" 
	d="
M332.455353,197.276825 
	C334.842865,193.368134 338.215912,189.598541 340.087402,185.191315 
	C342.616119,179.236435 347.832947,174.078262 344.561737,166.082733 
	C342.909912,162.045425 343.448120,156.846848 345.907745,151.810776 
	C347.706085,148.128662 346.175201,142.527908 345.347778,137.922592 
	C344.009644,130.475098 340.363739,124.045937 335.126617,118.528625 
	C334.508026,117.876968 334.372314,116.766983 334.008545,115.512238 
	C343.913177,121.549599 349.160858,131.336975 351.748566,142.210678 
	C357.000671,164.280319 350.481384,182.757431 332.455353,197.276825 
z"/>
<path fill="#F13795" opacity="1.000000" stroke="none" 
	d="
M85.844025,235.431656 
	C89.034225,237.881042 92.368401,240.639664 95.847076,243.696838 
	C95.989426,244.470551 95.987274,244.945709 95.963593,245.776672 
	C92.624031,242.668640 89.306015,239.204773 85.844025,235.431656 
z"/>
<path fill="#E6247D" opacity="1.000000" stroke="none" 
	d="
M293.587219,240.141891 
	C291.847717,240.691956 289.713593,241.196930 287.315125,241.476654 
	C289.098053,240.866562 291.145325,240.481689 293.587219,240.141891 
z"/>
<path fill="#E6247D" opacity="1.000000" stroke="none" 
	d="
M268.706055,240.784485 
	C267.359772,240.913605 265.724091,240.815857 264.041290,240.427429 
	C265.468353,240.277054 266.942505,240.417343 268.706055,240.784485 
z"/>
<path fill="#ED2588" opacity="1.000000" stroke="none" 
	d="
M127.617416,35.057507 
	C128.789093,37.402470 128.664886,37.541531 124.892624,37.895718 
	C125.435898,36.959167 126.371147,36.053680 127.617416,35.057507 
z"/>
<path fill="#F22D92" opacity="1.000000" stroke="none" 
	d="
M74.495316,87.895813 
	C74.054344,88.819832 73.332359,89.875885 72.212738,90.891815 
	C72.614830,89.910408 73.414574,88.969131 74.495316,87.895813 
z"/>
<path fill="#F22D92" opacity="1.000000" stroke="none" 
	d="
M100.740158,60.177361 
	C100.312744,61.046814 99.599358,62.015949 98.533051,62.994350 
	C98.938148,62.094753 99.696167,61.185898 100.740158,60.177361 
z"/>
<path fill="#F22D92" opacity="1.000000" stroke="none" 
	d="
M71.582260,90.915131 
	C71.314156,91.640755 70.779221,92.468857 70.057510,93.022919 
	C70.352303,92.171783 70.833862,91.594688 71.582260,90.915131 
z"/>
<path fill="#F22D92" opacity="1.000000" stroke="none" 
	d="
M76.952850,85.483459 
	C76.678490,86.266464 76.124802,87.087288 75.163528,87.840942 
	C75.395134,87.022942 76.034332,86.272110 76.952850,85.483459 
z"/>
<path fill="#E92080" opacity="1.000000" stroke="none" 
	d="
M230.402924,7.494523 
	C229.932007,7.704722 229.214417,7.639057 228.250137,7.303654 
	C228.721054,7.095497 229.438629,7.157078 230.402924,7.494523 
z"/>
<path fill="#E92080" opacity="1.000000" stroke="none" 
	d="
M227.322845,305.131836 
	C227.524734,304.830170 228.064484,304.604065 228.778488,304.568115 
	C228.522049,304.907928 228.091370,305.057648 227.322845,305.131836 
z"/>
<path fill="#EA2081" opacity="1.000000" stroke="none" 
	d="
M321.299316,203.830933 
	C321.153870,203.522720 321.364807,203.298279 321.871613,203.065643 
	C321.922211,203.273010 321.751617,203.558762 321.299316,203.830933 
z"/>
<path fill="#E6247D" opacity="1.000000" stroke="none" 
	d="
M271.787109,241.182709 
	C272.025238,241.308365 272.029816,241.671982 272.013916,241.853516 
	C271.699951,241.936264 271.448456,241.767883 271.129700,241.331299 
	C271.193512,241.107513 271.371246,241.082275 271.787109,241.182709 
z"/>
</svg>