<svg version="1.1" id="Layer_1" xmlns="http://www.w3.org/2000/svg" xmlns:xlink="http://www.w3.org/1999/xlink" x="0px" y="0px"
	 width="100%" viewBox="0 0 180 180" enable-background="new 0 0 180 180" xml:space="preserve">
<path fill="#06394E" opacity="1.000000" stroke="none" 
	d="
M102.000000,181.000000 
	C68.000000,181.000000 34.500004,181.000000 1.000005,181.000000 
	C1.000003,121.000008 1.000003,61.000011 1.000001,1.000013 
	C60.999989,1.000008 120.999977,1.000008 180.999969,1.000004 
	C180.999985,60.999985 180.999985,120.999969 181.000000,180.999969 
	C154.833328,181.000000 128.666672,181.000000 102.000000,181.000000 
M138.817291,85.534286 
	C138.640350,85.195969 138.371231,85.088478 137.076721,85.105026 
	C111.830154,85.105026 86.583580,85.105026 61.273163,85.105026 
	C61.273163,69.653244 61.273163,55.057068 61.273163,39.724987 
	C88.574577,39.724987 115.611946,39.724987 142.613144,39.724987 
	C142.613144,32.740784 142.613144,26.501659 142.613144,20.308859 
	C107.828011,20.308859 73.431473,20.308859 38.947006,20.308859 
	C38.947006,67.966507 38.947006,115.206718 38.947006,162.999115 
	C44.764381,162.999115 50.234734,162.771088 55.675751,163.072556 
	C59.894733,163.306320 61.124195,161.722198 61.073933,157.614044 
	C60.882309,141.952026 60.997162,126.286263 60.997509,110.621895 
	C60.997547,108.865570 60.997509,107.109245 60.997509,104.865913 
	C87.348228,104.865913 112.931351,104.865913 138.834000,104.865913 
	C138.834000,98.253548 138.834000,92.130257 138.817291,85.534286 
z"/>
<path fill="#00B1EB" opacity="1.000000" stroke="none" 
	d="
M138.834000,86.006966 
	C138.834000,92.130257 138.834000,98.253548 138.834000,104.865913 
	C112.931351,104.865913 87.348228,104.865913 60.997509,104.865913 
	C60.997509,107.109245 60.997547,108.865570 60.997509,110.621895 
	C60.997162,126.286263 60.882309,141.952026 61.073933,157.614044 
	C61.124195,161.722198 59.894733,163.306320 55.675751,163.072556 
	C50.234734,162.771088 44.764381,162.999115 38.947006,162.999115 
	C38.947006,115.206718 38.947006,67.966507 38.947006,20.308859 
	C73.431473,20.308859 107.828011,20.308859 142.613144,20.308859 
	C142.613144,26.501659 142.613144,32.740784 142.613144,39.724987 
	C115.611946,39.724987 88.574577,39.724987 61.273163,39.724987 
	C61.273163,55.057068 61.273163,69.653244 61.273163,85.105026 
	C86.583580,85.105026 111.830154,85.105026 137.669510,85.302185 
	C138.438980,85.684204 138.629547,85.853409 138.834000,86.006966 
z"/>
<path fill="#01A3D8" opacity="1.000000" stroke="none" 
	d="
M138.825653,85.770630 
	C138.629547,85.853409 138.438980,85.684204 138.136108,85.355576 
	C138.371231,85.088478 138.640350,85.195969 138.825653,85.770630 
z"/>
</svg>
