<svg version="1.1" id="Layer_1" xmlns="http://www.w3.org/2000/svg" xmlns:xlink="http://www.w3.org/1999/xlink" x="0px" y="0px"
	 width="100%" viewBox="0 0 272 288" enable-background="new 0 0 272 288" xml:space="preserve">
<path fill="#000000" opacity="1.000000" stroke="none" 
	d="
M29.683956,145.999939 
	C29.684551,131.502090 29.598196,117.503517 29.715162,103.506653 
	C29.802589,93.044472 34.215252,84.828941 43.384563,79.560837 
	C71.408150,63.460281 99.460602,47.409496 127.556946,31.436306 
	C137.283264,25.906742 147.116806,25.803215 156.965317,31.448584 
	C184.280106,47.105980 211.560989,62.825253 239.012665,78.239777 
	C250.226852,84.536697 255.275711,93.829933 255.242920,106.442238 
	C255.164062,136.770676 255.159821,167.099625 255.244751,197.428024 
	C255.281876,210.685394 249.655457,219.939941 237.851013,226.446548 
	C211.751938,240.832397 185.905777,255.690460 160.203201,270.776306 
	C148.449280,277.675110 137.358994,278.317322 125.423920,271.358337 
	C98.514977,255.668640 71.408897,240.316116 44.336845,224.907547 
	C34.419090,219.262650 29.678833,210.789886 29.684895,199.491272 
	C29.694372,181.827499 29.685444,164.163712 29.683956,145.999939 
M245.683151,170.500061 
	C245.680481,148.668274 245.615112,126.836212 245.708878,105.004829 
	C245.742035,97.283409 242.626328,91.397118 236.022537,87.604462 
	C207.709641,71.343933 179.341949,55.178596 150.967590,39.025391 
	C145.340744,35.822098 139.592163,35.701908 133.883255,38.966251 
	C105.547173,55.168762 77.216743,71.381180 48.867237,87.560150 
	C42.161930,91.386841 39.123112,96.959602 39.164898,104.787605 
	C39.332146,136.117844 39.362965,167.450500 39.132362,198.779984 
	C39.071381,207.065277 42.393234,212.750198 49.389896,216.738480 
	C77.469994,232.744858 105.509941,248.821732 133.604889,264.801971 
	C139.055161,267.902069 144.919006,268.125641 150.343628,265.052307 
	C179.190781,248.708755 207.958038,232.223618 236.701828,215.698608 
	C242.844849,212.166931 245.705444,206.591690 245.681610,199.498093 
	C245.650238,190.165527 245.679382,180.832764 245.683151,170.500061 
z"/>
<path fill="#000000" opacity="1.000000" stroke="none" 
	d="
M161.754059,222.080246 
	C119.732887,232.115784 80.838936,208.723221 71.417320,168.099213 
	C61.831947,126.769127 89.934357,85.759560 131.910553,79.822029 
	C171.119812,74.275887 208.225586,101.406837 214.171570,139.969498 
	C219.899109,177.115479 198.496002,210.850754 161.754059,222.080246 
M166.951599,191.944122 
	C169.724503,192.949707 170.867874,190.727951 172.197113,189.151474 
	C182.479828,176.956268 186.629288,162.697845 185.473251,146.993118 
	C185.136536,142.418625 185.063797,137.365799 181.591339,133.336075 
	C179.348907,134.016449 177.304764,134.666122 175.242889,135.253433 
	C173.414459,135.774231 172.010727,135.409668 171.261688,133.406540 
	C170.463409,131.271713 172.024490,130.846619 173.371521,130.205917 
	C180.529205,126.801476 180.550537,126.786652 176.004623,119.918884 
	C174.813156,118.118889 173.401947,116.465866 172.163223,114.695274 
	C170.198364,111.886818 168.120605,111.229874 164.579636,112.561554 
	C150.919586,117.698807 136.974457,117.799316 123.012276,113.630074 
	C114.493935,111.086403 114.504356,111.034431 109.437012,118.392159 
	C108.777267,119.350098 108.155182,120.337502 107.571121,121.343452 
	C104.167717,127.205223 104.271774,127.439781 110.758003,129.969391 
	C111.807770,130.378784 113.029579,130.590317 113.652763,131.734695 
	C112.197182,136.241913 112.108192,136.476059 106.926247,134.506577 
	C103.177376,133.081741 101.654701,133.897156 100.693878,137.829681 
	C99.046501,144.572189 98.854004,151.376999 99.393806,158.151428 
	C100.377220,170.493073 105.626358,181.105942 113.602081,190.478653 
	C116.230331,193.567245 118.759163,191.245041 121.321037,190.643768 
	C123.777756,190.067200 123.808456,188.373138 123.102707,186.375549 
	C122.598740,184.949066 122.815010,183.731369 124.448692,183.171158 
	C126.051460,182.621567 127.584328,182.811508 128.257462,184.475235 
	C129.623962,187.852615 132.339371,188.127579 135.255081,187.626129 
	C140.399460,186.741394 145.503387,187.424866 150.616791,187.732880 
	C152.979111,187.875168 154.760742,187.416351 155.949295,185.074371 
	C157.463486,182.090714 159.607513,182.250793 161.997009,184.300308 
	C161.559113,186.014664 161.157257,187.587936 160.739517,189.223328 
	C162.420715,190.764694 164.474472,190.997589 166.951599,191.944122 
M204.843094,143.435669 
	C204.203049,136.793259 202.310608,130.580994 198.931107,124.489784 
	C195.780746,126.195839 193.209198,127.692078 190.544983,128.999466 
	C188.285187,130.108398 187.936874,131.880783 188.537613,133.995575 
	C191.980820,146.116455 191.835220,158.224121 188.537994,170.342209 
	C188.126602,171.854156 188.013306,173.484283 189.617981,174.327332 
	C192.641815,175.915909 195.307877,178.267120 199.242554,179.187622 
	C204.323471,167.917023 207.060974,156.537491 204.843094,143.435669 
M87.645752,125.364120 
	C85.245987,124.094398 84.829811,126.076416 84.160812,127.534027 
	C79.221603,138.295654 78.242012,149.697906 79.729584,161.200119 
	C80.540382,167.469330 82.098373,173.822891 85.948471,179.475174 
	C88.643211,177.940460 90.854774,176.451996 93.251007,175.373993 
	C96.270599,174.015533 96.783821,172.243057 95.878662,169.039078 
	C93.129562,159.308014 93.008705,149.399155 94.700371,139.424103 
	C96.248230,130.297028 96.153809,130.281021 87.645752,125.364120 
M176.661285,111.181145 
	C179.043915,114.760345 181.509354,118.288139 183.775665,121.939529 
	C184.984894,123.887794 186.178421,125.094032 188.512238,123.643509 
	C190.339096,122.508072 192.219208,121.458397 194.047363,120.324982 
	C195.457901,119.450478 195.534134,118.262833 194.693924,116.928459 
	C191.668869,112.124199 188.162811,107.646851 183.517715,104.400909 
	C180.418594,102.235306 178.638214,106.044151 176.265442,107.110802 
	C174.096664,108.085754 175.263626,109.471954 176.661285,111.181145 
M100.959572,121.330849 
	C103.855309,116.970688 106.751038,112.610527 109.610222,108.305405 
	C102.068764,102.434204 101.807663,102.436630 96.021362,109.024445 
	C94.377106,110.896469 92.784981,112.831512 91.351501,114.866257 
	C90.091080,116.655373 87.668869,118.977005 91.064438,120.550278 
	C93.942871,121.883949 96.685516,127.149216 100.959572,121.330849 
M181.515320,185.928680 
	C179.813507,189.308533 176.597031,191.737213 175.216385,195.750778 
	C178.097748,197.094681 180.050476,201.683792 183.579453,199.275421 
	C188.736313,195.756058 192.659241,190.755890 195.616943,185.259628 
	C187.158783,177.901840 186.186981,177.937149 181.515320,185.928680 
M95.448448,194.052933 
	C102.518921,201.553604 103.110023,201.604553 109.368996,195.125992 
	C106.661148,191.029892 103.639305,187.060516 101.298248,182.723633 
	C99.485939,179.366287 97.722672,179.150055 94.655167,180.918808 
	C88.472549,184.483765 88.233330,185.225266 92.714394,190.870895 
	C93.436050,191.780106 94.213104,192.645340 95.448448,194.052933 
M136.498932,103.975792 
	C135.597015,105.983604 133.598129,107.591133 134.031448,110.331299 
	C139.769089,111.261566 145.284134,111.247841 151.599503,110.129768 
	C148.541443,105.160965 146.460663,100.240471 142.429733,96.477570 
	C139.660690,98.483246 138.620956,101.200195 136.498932,103.975792 
M142.337738,207.026123 
	C146.300064,203.414322 148.935226,198.974731 150.899490,193.881500 
	C144.951981,192.157257 139.415207,191.816345 133.666290,194.172760 
	C135.933578,198.982437 138.284805,203.315308 142.337738,207.026123 
M157.079666,94.282562 
	C160.043304,96.415428 163.043625,98.499458 165.962357,100.692108 
	C170.883255,104.388855 171.633301,104.329750 176.420029,99.138924 
	C168.306580,93.444572 159.526321,90.200806 149.591141,90.087242 
	C151.876938,91.364845 154.162720,92.642456 157.079666,94.282562 
M174.413895,206.275726 
	C175.779938,205.339813 177.009659,204.244308 175.015640,202.870117 
	C172.931274,201.433609 170.962814,199.152756 168.004013,201.609116 
	C162.281769,206.359634 156.086990,210.443771 149.578247,214.156311 
	C158.367249,213.784302 166.349121,210.991058 174.413895,206.275726 
M129.601471,93.080025 
	C131.456818,91.993736 133.312180,90.907455 136.365997,89.119484 
	C125.027275,90.192024 116.149223,93.643379 107.774933,99.131119 
	C113.326271,104.392365 113.712883,104.376404 118.828918,100.556747 
	C122.138031,98.086151 125.594643,95.813110 129.601471,93.080025 
M115.428696,209.102997 
	C121.478905,211.918091 127.711876,214.004898 134.509277,214.041565 
	C128.864838,210.448425 123.212730,207.045578 118.097900,202.827393 
	C113.898399,199.364075 112.313248,199.703674 108.736885,204.648972 
	C110.150269,206.871201 112.686279,207.494064 115.428696,209.102997 
M126.828484,108.234886 
	C129.657898,105.416512 131.156555,101.782761 133.912292,97.511078 
	C128.357010,100.078796 124.298668,102.548485 120.848938,106.198151 
	C122.669502,107.916122 124.275146,108.598938 126.828484,108.234886 
M152.548447,203.454178 
	C152.338165,204.363693 151.135406,204.899857 151.619019,206.285065 
	C155.884750,203.746979 160.213684,201.461746 163.597076,197.337296 
	C160.063278,194.832611 157.372726,194.307480 155.407501,198.628342 
	C154.724243,200.130585 153.746094,201.498718 152.548447,203.454178 
M155.339294,105.216904 
	C157.252167,109.697861 159.893127,109.105339 163.215820,106.297798 
	C159.890747,102.439911 155.869003,100.053955 151.019135,97.576530 
	C152.583374,100.331764 153.793442,102.463165 155.339294,105.216904 
M132.494034,204.090866 
	C131.287979,202.127792 129.970154,200.223526 128.899567,198.189163 
	C126.789940,194.180359 124.419739,194.910873 121.442963,197.543564 
	C124.858444,201.147949 128.593826,203.723267 132.747894,205.735428 
	C132.835709,205.482910 132.963669,205.235199 132.994705,204.975906 
	C133.010620,204.842789 132.853516,204.688995 132.494034,204.090866 
z"/>
<path fill="#000000" opacity="1.000000" stroke="none" 
	d="
M131.535156,121.560776 
	C133.472244,121.669067 134.768845,122.376801 135.974167,123.311401 
	C139.653397,126.164230 144.492157,126.277054 148.154053,123.600616 
	C153.469162,119.715866 159.288528,120.875687 162.456787,126.672188 
	C167.402679,135.720993 172.341461,144.780121 176.991501,153.982315 
	C181.386703,162.680222 178.263016,172.499176 170.132538,176.680725 
	C161.637146,181.049911 152.085480,178.351639 147.540955,169.545303 
	C145.366989,165.332611 142.166122,166.703079 138.982758,166.127106 
	C135.829636,173.436295 131.052643,178.416046 122.511093,178.381790 
	C110.004837,178.331650 101.865898,166.594513 107.134354,155.191971 
	C111.801842,145.090118 117.428467,135.427795 122.729118,125.624130 
	C124.502838,122.343605 127.531693,121.199379 131.535156,121.560776 
M172.087769,156.554565 
	C169.293793,152.346191 165.519211,149.888458 160.363998,151.001953 
	C153.502701,152.483963 149.660156,159.036438 151.622635,165.355164 
	C153.363678,170.960922 159.841522,174.225052 165.697540,172.447403 
	C171.930695,170.555283 174.834457,163.999786 172.087769,156.554565 
M114.062958,154.634842 
	C107.838020,160.690613 112.326294,171.637466 120.210083,172.728180 
	C125.848206,173.508240 130.455658,171.031006 132.652649,165.874908 
	C134.628754,161.237183 133.199356,156.314529 128.954605,153.139389 
	C124.180923,149.568604 120.086113,149.844803 114.062958,154.634842 
z"/>
</svg>