<?xml version="1.0" standalone="no"?>
<!DOCTYPE svg PUBLIC "-//W3C//DTD SVG 20010904//EN"
 "http://www.w3.org/TR/2001/REC-SVG-20010904/DTD/svg10.dtd">
<svg version="1.0" xmlns="http://www.w3.org/2000/svg"
 width="225.000000pt" height="249.000000pt" viewBox="0 0 225.000000 249.000000"
 preserveAspectRatio="xMidYMid meet">

<g transform="translate(0.000000,249.000000) scale(0.100000,-0.100000)"
fill="#000000" stroke="none">
<path d="M1002 1950 c-277 -50 -504 -259 -572 -526 -27 -105 -27 -263 0 -368
63 -247 266 -447 520 -513 98 -25 264 -23 365 6 313 87 526 370 525 699 0 105
-23 202 -69 297 -49 102 -117 192 -189 250 -67 54 -194 119 -272 141 -69 18
-238 26 -308 14z m45 -105 c-65 -33 -118 -68 -178 -116 l-26 -21 -43 28 c-39
26 -41 29 -23 42 64 48 217 100 298 101 l40 1 -68 -35z m223 19 c65 -15 210
-80 210 -94 0 -9 -29 -35 -57 -49 -20 -10 -30 -6 -81 34 -33 25 -92 64 -133
85 -71 38 -72 39 -39 40 19 0 64 -7 100 -16z m-252 -133 c-24 -39 -46 -71 -51
-71 -21 0 -78 31 -72 39 8 14 157 112 162 108 2 -3 -15 -37 -39 -76z m134 47
c14 -18 37 -54 52 -79 32 -57 29 -59 -82 -59 -107 0 -112 6 -72 72 42 68 63
97 71 98 4 0 18 -15 31 -32z m96 -4 c60 -38 102 -73 102 -85 0 -4 -11 -10 -24
-13 -13 -3 -31 -8 -39 -12 -10 -4 -28 17 -61 70 -25 42 -43 76 -40 76 3 0 31
-16 62 -36z m-454 -80 c20 -14 20 -14 -2 -42 -12 -15 -35 -49 -51 -77 -17 -27
-34 -56 -39 -64 -7 -12 -17 -9 -61 15 -29 15 -56 34 -58 41 -6 16 68 114 111
148 32 25 40 24 100 -21z m782 -6 c56 -58 94 -106 94 -119 0 -7 -101 -69 -113
-69 -3 0 -17 21 -32 48 -16 26 -43 66 -62 89 l-33 42 42 29 c24 17 45 31 48
31 3 1 28 -23 56 -51z m-671 -47 c126 -48 298 -48 430 -2 l56 20 29 -32 c41
-46 93 -134 85 -146 -3 -6 -24 -16 -45 -22 -38 -11 -51 -31 -31 -43 5 -3 28 1
51 9 23 8 45 13 49 10 15 -9 34 -122 33 -200 0 -136 -54 -284 -136 -377 l-33
-37 -49 19 c-27 10 -48 22 -48 27 1 4 5 18 9 31 5 17 2 22 -13 22 -10 0 -23
-10 -29 -22 -9 -21 -16 -22 -141 -23 -127 -1 -131 0 -141 22 -6 13 -19 23 -31
23 -17 0 -19 -3 -10 -19 18 -34 11 -46 -37 -63 -56 -20 -56 -20 -118 71 -89
131 -123 299 -91 450 8 41 18 76 20 78 3 3 26 -3 51 -13 40 -15 48 -15 56 -3
13 21 11 26 -16 33 -13 3 -36 11 -50 16 l-26 10 20 38 c16 32 97 142 104 142
1 0 25 -9 52 -19z m-282 -150 c49 -28 57 -36 51 -55 -28 -87 -33 -267 -9 -356
8 -30 11 -57 7 -61 -4 -3 -32 -20 -63 -38 l-57 -31 -22 51 c-65 153 -63 329 6
494 8 20 18 35 22 33 4 -2 33 -18 65 -37z m1095 -13 c29 -79 31 -88 41 -166
11 -89 0 -189 -33 -283 -14 -39 -27 -73 -29 -75 -3 -4 -127 64 -127 70 0 0 7
33 15 71 19 89 19 201 0 289 -8 38 -12 72 -9 75 8 9 108 69 116 70 4 1 15 -23
26 -51z m-999 -536 c11 -22 36 -60 55 -86 20 -25 36 -50 36 -54 0 -4 -20 -19
-44 -33 l-43 -27 -34 32 c-58 53 -112 125 -106 140 5 13 90 64 109 66 4 0 16
-17 27 -38z m899 8 c28 -17 52 -33 52 -36 0 -13 -62 -92 -102 -131 l-43 -42
-47 30 -48 31 24 29 c13 15 41 55 61 89 20 33 39 60 43 60 4 0 31 -14 60 -30z
m-394 -119 c6 -10 -89 -161 -101 -161 -14 0 -105 149 -98 160 8 12 191 14 199
1z m-205 -82 c23 -39 41 -73 39 -75 -4 -4 -97 57 -143 94 -32 25 -31 25 10 40
48 17 50 16 94 -59z m300 60 c37 -13 38 -19 9 -46 -28 -26 -138 -96 -143 -91
-5 5 86 148 95 148 4 0 21 -5 39 -11z m-421 -78 c26 -22 85 -61 132 -86 l85
-46 -63 6 c-75 7 -184 42 -247 79 -25 15 -45 29 -45 31 0 6 73 55 83 55 5 0
29 -18 55 -39z m550 13 c50 -29 51 -27 -42 -75 -63 -33 -190 -69 -240 -69 -27
0 -22 5 44 41 41 22 100 60 130 84 30 24 57 44 59 44 2 1 24 -11 49 -25z"/>
<path d="M965 1529 c-11 -6 -58 -82 -108 -174 -77 -146 -87 -170 -87 -216 0
-69 29 -115 88 -141 83 -37 183 3 213 87 11 30 14 32 36 22 17 -8 27 -7 35 1
17 17 28 15 28 -4 0 -34 43 -87 88 -106 107 -48 222 27 222 144 0 35 -17 74
-89 208 -92 173 -115 199 -163 187 -27 -7 -53 -28 -60 -48 -3 -9 -10 -8 -26 2
-16 10 -26 11 -39 3 -14 -9 -23 -6 -44 17 -28 30 -58 35 -94 18z m22 -289
c111 -67 45 -238 -84 -217 -101 17 -135 138 -57 206 42 37 92 41 141 11z m400
0 c111 -67 45 -238 -84 -217 -101 17 -135 138 -57 206 42 37 92 41 141 11z"/>
</g>
</svg>
