<svg version="1.1" id="Layer_1" xmlns="http://www.w3.org/2000/svg" xmlns:xlink="http://www.w3.org/1999/xlink" x="0px" y="0px"
	 width="100%" viewBox="0 0 225 225" enable-background="new 0 0 225 225" xml:space="preserve">
<path fill="#FEFEFD" opacity="1.000000" stroke="none" 
	d="
M128.000000,226.000000 
	C85.333336,226.000000 43.166672,226.000000 1.000006,226.000000 
	C1.000004,151.000000 1.000004,76.000015 1.000002,1.000016 
	C75.999992,1.000010 150.999985,1.000010 225.999969,1.000005 
	C225.999985,75.999985 225.999985,150.999969 226.000000,225.999969 
	C193.500000,226.000000 161.000000,226.000000 128.000000,226.000000 
M177.297073,124.963501 
	C184.575928,121.432686 187.376068,115.317009 184.700241,108.794472 
	C182.357910,103.084908 175.723114,99.949539 169.919327,101.809578 
	C163.633682,103.824051 160.002289,110.129692 161.581024,116.288429 
	C163.298523,122.988480 169.123962,126.439697 177.297073,124.963501 
M8.376618,172.949478 
	C8.449590,182.095947 14.784949,188.161545 22.666573,186.630966 
	C28.625814,185.473694 33.071556,179.994080 32.805180,174.134567 
	C32.539379,168.287674 28.041164,163.338074 22.260597,162.531860 
	C15.825473,161.634354 10.918300,165.109085 8.376618,172.949478 
M32.637051,115.052231 
	C32.702099,106.038513 26.263231,99.815918 18.506414,101.396225 
	C12.352017,102.650070 8.086448,107.757133 8.249427,113.676643 
	C8.419654,119.859428 13.138528,124.902748 19.451689,125.649117 
	C25.389267,126.351082 30.345215,122.596802 32.637051,115.052231 
M176.581421,186.315231 
	C185.193359,182.887939 188.260025,174.397873 183.356583,167.558121 
	C179.954895,162.813141 173.488174,161.102432 168.237396,163.558487 
	C163.034897,165.991959 160.167740,171.787552 161.480789,177.216049 
	C163.065582,183.767975 168.191772,187.103622 176.581421,186.315231 
M32.449444,54.797424 
	C33.427715,45.591225 26.571583,38.584045 18.268829,40.304394 
	C12.496395,41.500450 8.187011,46.695618 8.240767,52.393684 
	C8.295653,58.211739 12.589928,63.205315 18.445021,64.259659 
	C24.709171,65.387665 29.481424,62.366558 32.449444,54.797424 
M92.593666,169.191864 
	C88.137848,162.318771 80.625687,160.377670 74.732727,164.576721 
	C69.587952,168.242630 68.002708,175.123611 71.052818,180.549850 
	C74.132164,186.028091 80.874619,188.300430 86.588074,185.785522 
	C92.594925,183.141449 95.038841,177.009872 92.593666,169.191864 
M69.504158,112.709976 
	C70.340843,121.650734 76.219391,126.915848 83.739738,125.460052 
	C89.818047,124.283409 94.147346,119.029030 93.948601,113.069763 
	C93.745911,106.992584 88.676186,101.738098 82.487915,101.191422 
	C76.367104,100.650711 71.319862,104.876961 69.504158,112.709976 
M103.473267,105.015984 
	C102.805916,105.966049 102.021866,106.855446 101.490974,107.876457 
	C98.890594,112.877556 99.927925,118.710876 104.008583,122.439316 
	C108.144966,126.218681 114.588600,126.635246 119.211784,123.422142 
	C123.704597,120.299644 125.456573,114.515846 123.678391,109.272064 
	C121.401840,102.558647 111.670792,97.736580 103.473267,105.015984 
M180.506790,62.198486 
	C185.797455,57.115562 187.002869,52.014473 184.184708,46.634270 
	C181.608154,41.715317 175.970230,39.079998 170.720306,40.415798 
	C165.736404,41.683910 162.564163,44.901634 161.476974,49.877735 
	C160.424133,54.696545 162.040970,58.829582 165.888016,61.843601 
	C170.285721,65.289040 175.061783,65.271263 180.506790,62.198486 
M216.037933,172.852203 
	C214.044968,165.637268 209.346237,161.903305 202.952393,162.453445 
	C197.058456,162.960556 192.338120,167.654480 191.917679,173.426453 
	C191.406021,180.450760 196.266525,186.252182 203.110367,186.785889 
	C210.362991,187.351456 215.759079,181.903595 216.037933,172.852203 
M109.323967,186.400833 
	C118.718979,187.633911 125.674744,181.291107 124.265388,172.776108 
	C123.288322,166.872864 118.460518,162.573532 112.595375,162.383545 
	C106.859528,162.197723 101.627304,166.297470 100.238747,172.065628 
	C98.864334,177.775040 102.118759,183.278290 109.323967,186.400833 
M77.841660,63.944958 
	C78.664604,64.070847 79.483521,64.242561 80.311134,64.315414 
	C87.191978,64.921097 92.925743,60.503353 93.850517,53.902451 
	C94.720184,47.694965 90.325081,41.649891 83.959618,40.298374 
	C78.391800,39.116211 72.307426,42.501293 70.278862,47.909756 
	C67.967674,54.071739 70.429192,59.745571 77.841660,63.944958 
M82.383926,95.044785 
	C90.539215,93.538582 95.176239,87.497948 93.595100,80.440033 
	C92.153534,74.005112 86.596359,70.141144 79.907402,70.922813 
	C74.183899,71.591660 69.717964,76.571167 69.542931,82.479172 
	C69.340408,89.314758 73.890930,94.074379 82.383926,95.044785 
M45.898163,154.993668 
	C51.208111,157.154282 56.082111,156.439957 60.029552,152.245361 
	C63.523251,148.532913 64.179413,144.006592 62.255032,139.293716 
	C60.277676,134.451096 55.600220,131.629761 50.416481,131.869858 
	C45.409267,132.101776 40.947754,135.631332 39.433331,140.558762 
	C37.822277,145.800613 39.792271,150.627731 45.898163,154.993668 
M212.738220,43.789993 
	C206.854980,39.211239 201.298279,38.869762 196.402435,42.786087 
	C192.077759,46.245533 190.617874,52.156761 192.846481,57.184540 
	C195.733170,63.696892 203.316345,66.374664 209.592850,63.098038 
	C216.622696,59.428131 218.086609,51.874790 212.738220,43.789993 
M39.722130,78.624718 
	C37.994476,83.692230 38.981022,88.172432 42.896332,91.815308 
	C46.327896,95.008110 50.434448,95.934120 54.913960,94.435730 
	C60.333797,92.622818 63.407467,87.960037 63.165752,82.187279 
	C62.951630,77.073677 59.379105,72.498627 54.556351,71.161880 
	C48.706169,69.540359 43.782501,71.814369 39.722130,78.624718 
M198.197754,93.619156 
	C204.328018,96.072655 209.041336,95.388672 212.813965,91.262917 
	C216.258301,87.496155 217.127731,83.093803 215.218536,78.321335 
	C213.218811,73.322548 208.875198,70.627495 203.445923,70.808044 
	C198.244202,70.981026 193.842987,74.338150 192.310791,79.301651 
	C190.704422,84.505440 192.422852,89.065529 198.197754,93.619156 
M134.794235,183.730408 
	C140.204071,187.449203 145.131531,187.792084 149.594742,184.760330 
	C153.886490,181.845062 155.924347,176.568665 154.655029,171.658325 
	C153.387863,166.756393 149.543182,163.300049 144.538818,162.563950 
	C139.694916,161.851456 134.764679,164.225296 132.257523,168.477249 
	C129.663086,172.877213 130.378769,178.217194 134.794235,183.730408 
M197.103806,103.412369 
	C191.771729,108.218521 190.374207,113.601463 193.081024,118.907188 
	C195.522339,123.692474 200.865829,126.402405 205.928848,125.446785 
	C210.997711,124.490074 214.439087,121.492790 215.748657,116.616386 
	C216.995850,111.972290 215.861847,107.598465 212.071854,104.387627 
	C207.693314,100.678185 202.847244,100.092155 197.103806,103.412369 
M26.014723,154.909378 
	C34.856506,148.762741 35.072273,138.217880 26.455753,133.355484 
	C21.699440,130.671448 15.723425,131.573456 11.800615,135.567520 
	C7.969744,139.467972 7.234948,145.608353 10.039186,150.287140 
	C13.104180,155.400986 18.440035,157.123260 26.014723,154.909378 
M161.219650,84.149918 
	C161.591232,85.424896 161.821762,86.762833 162.358078,87.964272 
	C165.117889,94.146622 172.681610,96.831718 178.772308,93.858162 
	C184.892929,90.870010 187.362579,83.332954 184.196411,77.304497 
	C181.577499,72.318031 176.401901,69.895004 170.759338,71.013733 
	C165.213486,72.113274 161.949677,76.312897 161.219650,84.149918 
M79.895607,131.966309 
	C74.347122,133.192169 70.636536,136.308624 69.793144,142.139145 
	C69.065582,147.168961 70.699226,151.319839 75.021103,154.162750 
	C79.330795,156.997620 84.978004,156.769058 89.035240,153.745972 
	C93.085976,150.727722 94.783646,145.336319 93.228065,140.430557 
	C91.465744,134.872803 87.495598,132.163223 79.895607,131.966309 
M147.326645,132.751389 
	C141.857681,130.723831 137.187637,132.048920 133.420776,136.345810 
	C130.344238,139.855240 129.833588,145.907013 132.175430,149.890839 
	C134.878067,154.488480 138.992096,156.533646 144.295517,156.046158 
	C149.286224,155.587433 153.478271,151.788391 154.735962,146.711655 
	C156.018127,141.536011 153.741867,136.869537 147.326645,132.751389 
M49.124306,64.224129 
	C54.693890,65.080978 58.976334,62.993828 61.728252,58.203159 
	C64.059753,54.144386 63.826023,49.875595 61.403118,45.874065 
	C58.594704,41.235863 53.140083,39.148067 48.029480,40.573936 
	C42.703407,42.059921 39.181606,46.396152 38.951874,51.750748 
	C38.696877,57.694393 41.869572,61.857941 49.124306,64.224129 
M115.637955,94.584862 
	C123.417366,91.049225 126.358185,84.587883 123.261841,77.834236 
	C120.402252,71.596985 113.146942,69.009071 106.867416,71.986465 
	C101.854401,74.363350 98.918854,80.544006 100.349281,85.710091 
	C102.145935,92.198822 107.107437,95.318680 115.637955,94.584862 
M166.636063,154.093246 
	C172.943542,157.204727 178.164932,156.657196 182.143845,152.467072 
	C185.832230,148.582901 186.632355,142.824066 184.040237,138.210327 
	C181.521667,133.727478 177.606155,131.574310 172.504822,131.926590 
	C167.371368,132.281097 163.784332,135.079956 162.041656,139.848358 
	C160.050735,145.296005 161.649811,149.933441 166.636063,154.093246 
M151.634598,43.915951 
	C145.207932,38.587677 137.769653,38.946541 133.202957,44.805199 
	C129.028519,50.160625 130.116714,57.972836 135.614273,62.116264 
	C140.198090,65.571022 146.986343,65.160355 151.202209,61.173233 
	C155.905518,56.725101 156.241760,50.754890 151.634598,43.915951 
M193.298233,138.150284 
	C190.831329,143.345428 191.307831,148.260788 195.252045,152.455078 
	C198.755371,156.180527 203.242523,157.072708 208.077316,155.454269 
	C212.995514,153.807938 216.091278,149.253693 216.096802,144.017212 
	C216.102341,138.759064 213.063919,134.411377 208.086121,132.554718 
	C202.759598,130.567963 198.101074,132.167542 193.298233,138.150284 
M120.616333,61.108021 
	C124.929695,55.969643 125.564240,50.439987 122.395226,45.606129 
	C119.533142,41.240444 114.256996,39.119526 109.367851,40.478680 
	C104.222313,41.909100 101.032738,45.361393 100.169678,50.562458 
	C99.326866,55.641506 101.408195,59.848133 105.687538,62.521816 
	C110.521103,65.541771 115.472984,65.197380 120.616333,61.108021 
M41.887260,182.507370 
	C48.033783,188.079498 55.034924,188.241547 59.950947,182.925491 
	C64.635986,177.859207 64.305374,170.118774 59.206543,165.496521 
	C54.950615,161.638397 48.139145,161.412430 43.599854,164.978806 
	C38.337147,169.113541 37.544518,175.161774 41.887260,182.507370 
M130.911789,80.875969 
	C129.662003,87.682938 133.974350,93.397179 140.620483,94.909119 
	C145.981110,96.128616 151.888641,92.774803 153.993301,87.673271 
	C156.678345,81.164879 153.807785,74.238075 147.358246,71.662491 
	C140.478790,68.915222 134.155518,72.153061 130.911789,80.875969 
M154.089874,108.783409 
	C150.703079,102.960762 145.922241,100.303757 140.767517,101.379356 
	C135.534668,102.471260 131.556854,106.478157 130.909042,111.349541 
	C130.209030,116.613609 131.865219,120.877136 136.431335,123.775864 
	C140.669968,126.466705 146.034897,126.303238 149.990891,123.248688 
	C154.556061,119.723778 156.039841,115.101822 154.089874,108.783409 
M17.275148,94.681587 
	C26.083580,97.226723 34.071526,89.148483 32.562527,80.921555 
	C31.451004,74.861633 26.696829,70.862411 20.727066,70.792099 
	C14.805710,70.722343 10.244994,74.254219 8.757209,80.061699 
	C7.194322,86.162338 9.907982,91.147629 17.275148,94.681587 
M55.204395,102.034737 
	C48.168228,100.195808 42.087933,102.986267 39.734604,109.134361 
	C37.570004,114.789398 39.934978,121.131836 45.296963,124.051613 
	C51.178478,127.254288 58.348999,125.236206 61.660347,119.446274 
	C65.290825,113.098328 63.101963,106.567986 55.204395,102.034737 
M110.790161,131.942307 
	C102.953773,133.890030 98.600548,140.027481 100.303482,146.727081 
	C101.922836,153.097855 107.761444,156.982742 114.261307,156.014343 
	C120.216576,155.127090 124.513756,149.884598 124.364792,143.688232 
	C124.199036,136.793396 119.435226,132.387375 110.790161,131.942307 
z"/>
<path fill="#FF9B07" opacity="1.000000" stroke="none" 
	d="
M176.921082,125.058617 
	C169.123962,126.439697 163.298523,122.988480 161.581024,116.288429 
	C160.002289,110.129692 163.633682,103.824051 169.919327,101.809578 
	C175.723114,99.949539 182.357910,103.084908 184.700241,108.794472 
	C187.376068,115.317009 184.575928,121.432686 176.921082,125.058617 
z"/>
<path fill="#696969" opacity="1.000000" stroke="none" 
	d="
M8.490696,172.575439 
	C10.918300,165.109085 15.825473,161.634354 22.260597,162.531860 
	C28.041164,163.338074 32.539379,168.287674 32.805180,174.134567 
	C33.071556,179.994080 28.625814,185.473694 22.666573,186.630966 
	C14.784949,188.161545 8.449590,182.095947 8.490696,172.575439 
z"/>
<path fill="#696969" opacity="1.000000" stroke="none" 
	d="
M32.537483,115.431946 
	C30.345215,122.596802 25.389267,126.351082 19.451689,125.649117 
	C13.138528,124.902748 8.419654,119.859428 8.249427,113.676643 
	C8.086448,107.757133 12.352017,102.650070 18.506414,101.396225 
	C26.263231,99.815918 32.702099,106.038513 32.537483,115.431946 
z"/>
<path fill="#686868" opacity="1.000000" stroke="none" 
	d="
M176.209442,186.436630 
	C168.191772,187.103622 163.065582,183.767975 161.480789,177.216049 
	C160.167740,171.787552 163.034897,165.991959 168.237396,163.558487 
	C173.488174,161.102432 179.954895,162.813141 183.356583,167.558121 
	C188.260025,174.397873 185.193359,182.887939 176.209442,186.436630 
z"/>
<path fill="#686868" opacity="1.000000" stroke="none" 
	d="
M32.334248,55.168671 
	C29.481424,62.366558 24.709171,65.387665 18.445021,64.259659 
	C12.589928,63.205315 8.295653,58.211739 8.240767,52.393684 
	C8.187011,46.695618 12.496395,41.500450 18.268829,40.304394 
	C26.571583,38.584045 33.427715,45.591225 32.334248,55.168671 
z"/>
<path fill="#686868" opacity="1.000000" stroke="none" 
	d="
M92.756332,169.546753 
	C95.038841,177.009872 92.594925,183.141449 86.588074,185.785522 
	C80.874619,188.300430 74.132164,186.028091 71.052818,180.549850 
	C68.002708,175.123611 69.587952,168.242630 74.732727,164.576721 
	C80.625687,160.377670 88.137848,162.318771 92.756332,169.546753 
z"/>
<path fill="#696969" opacity="1.000000" stroke="none" 
	d="
M69.565964,112.334839 
	C71.319862,104.876961 76.367104,100.650711 82.487915,101.191422 
	C88.676186,101.738098 93.745911,106.992584 93.948601,113.069763 
	C94.147346,119.029030 89.818047,124.283409 83.739738,125.460052 
	C76.219391,126.915848 70.340843,121.650734 69.565964,112.334839 
z"/>
<path fill="#FF9A06" opacity="1.000000" stroke="none" 
	d="
M103.740494,104.751038 
	C111.670792,97.736580 121.401840,102.558647 123.678391,109.272064 
	C125.456573,114.515846 123.704597,120.299644 119.211784,123.422142 
	C114.588600,126.635246 108.144966,126.218681 104.008583,122.439316 
	C99.927925,118.710876 98.890594,112.877556 101.490974,107.876457 
	C102.021866,106.855446 102.805916,105.966049 103.740494,104.751038 
z"/>
<path fill="#686868" opacity="1.000000" stroke="none" 
	d="
M180.203461,62.425362 
	C175.061783,65.271263 170.285721,65.289040 165.888016,61.843601 
	C162.040970,58.829582 160.424133,54.696545 161.476974,49.877735 
	C162.564163,44.901634 165.736404,41.683910 170.720306,40.415798 
	C175.970230,39.079998 181.608154,41.715317 184.184708,46.634270 
	C187.002869,52.014473 185.797455,57.115562 180.203461,62.425362 
z"/>
<path fill="#686868" opacity="1.000000" stroke="none" 
	d="
M216.064896,173.266022 
	C215.759079,181.903595 210.362991,187.351456 203.110367,186.785889 
	C196.266525,186.252182 191.406021,180.450760 191.917679,173.426453 
	C192.338120,167.654480 197.058456,162.960556 202.952393,162.453445 
	C209.346237,161.903305 214.044968,165.637268 216.064896,173.266022 
z"/>
<path fill="#686868" opacity="1.000000" stroke="none" 
	d="
M108.950150,186.282669 
	C102.118759,183.278290 98.864334,177.775040 100.238747,172.065628 
	C101.627304,166.297470 106.859528,162.197723 112.595375,162.383545 
	C118.460518,162.573532 123.288322,166.872864 124.265388,172.776108 
	C125.674744,181.291107 118.718979,187.633911 108.950150,186.282669 
z"/>
<path fill="#686868" opacity="1.000000" stroke="none" 
	d="
M77.482964,63.816742 
	C70.429192,59.745571 67.967674,54.071739 70.278862,47.909756 
	C72.307426,42.501293 78.391800,39.116211 83.959618,40.298374 
	C90.325081,41.649891 94.720184,47.694965 93.850517,53.902451 
	C92.925743,60.503353 87.191978,64.921097 80.311134,64.315414 
	C79.483521,64.242561 78.664604,64.070847 77.482964,63.816742 
z"/>
<path fill="#FF9A05" opacity="1.000000" stroke="none" 
	d="
M81.971947,95.046600 
	C73.890930,94.074379 69.340408,89.314758 69.542931,82.479172 
	C69.717964,76.571167 74.183899,71.591660 79.907402,70.922813 
	C86.596359,70.141144 92.153534,74.005112 93.595100,80.440033 
	C95.176239,87.497948 90.539215,93.538582 81.971947,95.046600 
z"/>
<path fill="#FF9A05" opacity="1.000000" stroke="none" 
	d="
M45.542988,154.826385 
	C39.792271,150.627731 37.822277,145.800613 39.433331,140.558762 
	C40.947754,135.631332 45.409267,132.101776 50.416481,131.869858 
	C55.600220,131.629761 60.277676,134.451096 62.255032,139.293716 
	C64.179413,144.006592 63.523251,148.532913 60.029552,152.245361 
	C56.082111,156.439957 51.208111,157.154282 45.542988,154.826385 
z"/>
<path fill="#686868" opacity="1.000000" stroke="none" 
	d="
M212.979614,44.083935 
	C218.086609,51.874790 216.622696,59.428131 209.592850,63.098038 
	C203.316345,66.374664 195.733170,63.696892 192.846481,57.184540 
	C190.617874,52.156761 192.077759,46.245533 196.402435,42.786087 
	C201.298279,38.869762 206.854980,39.211239 212.979614,44.083935 
z"/>
<path fill="#686868" opacity="1.000000" stroke="none" 
	d="
M39.860565,78.254990 
	C43.782501,71.814369 48.706169,69.540359 54.556351,71.161880 
	C59.379105,72.498627 62.951630,77.073677 63.165752,82.187279 
	C63.407467,87.960037 60.333797,92.622818 54.913960,94.435730 
	C50.434448,95.934120 46.327896,95.008110 42.896332,91.815308 
	C38.981022,88.172432 37.994476,83.692230 39.860565,78.254990 
z"/>
<path fill="#686868" opacity="1.000000" stroke="none" 
	d="
M197.872650,93.408661 
	C192.422852,89.065529 190.704422,84.505440 192.310791,79.301651 
	C193.842987,74.338150 198.244202,70.981026 203.445923,70.808044 
	C208.875198,70.627495 213.218811,73.322548 215.218536,78.321335 
	C217.127731,83.093803 216.258301,87.496155 212.813965,91.262917 
	C209.041336,95.388672 204.328018,96.072655 197.872650,93.408661 
z"/>
<path fill="#686868" opacity="1.000000" stroke="none" 
	d="
M134.513763,183.474701 
	C130.378769,178.217194 129.663086,172.877213 132.257523,168.477249 
	C134.764679,164.225296 139.694916,161.851456 144.538818,162.563950 
	C149.543182,163.300049 153.387863,166.756393 154.655029,171.658325 
	C155.924347,176.568665 153.886490,181.845062 149.594742,184.760330 
	C145.131531,187.792084 140.204071,187.449203 134.513763,183.474701 
z"/>
<path fill="#686868" opacity="1.000000" stroke="none" 
	d="
M197.426178,103.212509 
	C202.847244,100.092155 207.693314,100.678185 212.071854,104.387627 
	C215.861847,107.598465 216.995850,111.972290 215.748657,116.616386 
	C214.439087,121.492790 210.997711,124.490074 205.928848,125.446785 
	C200.865829,126.402405 195.522339,123.692474 193.081024,118.907188 
	C190.374207,113.601463 191.771729,108.218521 197.426178,103.212509 
z"/>
<path fill="#686868" opacity="1.000000" stroke="none" 
	d="
M25.644482,155.057007 
	C18.440035,157.123260 13.104180,155.400986 10.039186,150.287140 
	C7.234948,145.608353 7.969744,139.467972 11.800615,135.567520 
	C15.723425,131.573456 21.699440,130.671448 26.455753,133.355484 
	C35.072273,138.217880 34.856506,148.762741 25.644482,155.057007 
z"/>
<path fill="#686868" opacity="1.000000" stroke="none" 
	d="
M161.192566,83.754135 
	C161.949677,76.312897 165.213486,72.113274 170.759338,71.013733 
	C176.401901,69.895004 181.577499,72.318031 184.196411,77.304497 
	C187.362579,83.332954 184.892929,90.870010 178.772308,93.858162 
	C172.681610,96.831718 165.117889,94.146622 162.358078,87.964272 
	C161.821762,86.762833 161.591232,85.424896 161.192566,83.754135 
z"/>
<path fill="#FF9A04" opacity="1.000000" stroke="none" 
	d="
M80.308167,131.930359 
	C87.495598,132.163223 91.465744,134.872803 93.228065,140.430557 
	C94.783646,145.336319 93.085976,150.727722 89.035240,153.745972 
	C84.978004,156.769058 79.330795,156.997620 75.021103,154.162750 
	C70.699226,151.319839 69.065582,147.168961 69.793144,142.139145 
	C70.636536,136.308624 74.347122,133.192169 80.308167,131.930359 
z"/>
<path fill="#FF9A03" opacity="1.000000" stroke="none" 
	d="
M147.694504,132.890900 
	C153.741867,136.869537 156.018127,141.536011 154.735962,146.711655 
	C153.478271,151.788391 149.286224,155.587433 144.295517,156.046158 
	C138.992096,156.533646 134.878067,154.488480 132.175430,149.890839 
	C129.833588,145.907013 130.344238,139.855240 133.420776,136.345810 
	C137.187637,132.048920 141.857681,130.723831 147.694504,132.890900 
z"/>
<path fill="#686868" opacity="1.000000" stroke="none" 
	d="
M48.749939,64.170822 
	C41.869572,61.857941 38.696877,57.694393 38.951874,51.750748 
	C39.181606,46.396152 42.703407,42.059921 48.029480,40.573936 
	C53.140083,39.148067 58.594704,41.235863 61.403118,45.874065 
	C63.826023,49.875595 64.059753,54.144386 61.728252,58.203159 
	C58.976334,62.993828 54.693890,65.080978 48.749939,64.170822 
z"/>
<path fill="#FF9A04" opacity="1.000000" stroke="none" 
	d="
M115.256592,94.714523 
	C107.107437,95.318680 102.145935,92.198822 100.349281,85.710091 
	C98.918854,80.544006 101.854401,74.363350 106.867416,71.986465 
	C113.146942,69.009071 120.402252,71.596985 123.261841,77.834236 
	C126.358185,84.587883 123.417366,91.049225 115.256592,94.714523 
z"/>
<path fill="#FF9A04" opacity="1.000000" stroke="none" 
	d="
M166.311569,153.889069 
	C161.649811,149.933441 160.050735,145.296005 162.041656,139.848358 
	C163.784332,135.079956 167.371368,132.281097 172.504822,131.926590 
	C177.606155,131.574310 181.521667,133.727478 184.040237,138.210327 
	C186.632355,142.824066 185.832230,148.582901 182.143845,152.467072 
	C178.164932,156.657196 172.943542,157.204727 166.311569,153.889069 
z"/>
<path fill="#686868" opacity="1.000000" stroke="none" 
	d="
M151.888550,44.197105 
	C156.241760,50.754890 155.905518,56.725101 151.202209,61.173233 
	C146.986343,65.160355 140.198090,65.571022 135.614273,62.116264 
	C130.116714,57.972836 129.028519,50.160625 133.202957,44.805199 
	C137.769653,38.946541 145.207932,38.587677 151.888550,44.197105 
z"/>
<path fill="#686868" opacity="1.000000" stroke="none" 
	d="
M193.505051,137.820297 
	C198.101074,132.167542 202.759598,130.567963 208.086121,132.554718 
	C213.063919,134.411377 216.102341,138.759064 216.096802,144.017212 
	C216.091278,149.253693 212.995514,153.807938 208.077316,155.454269 
	C203.242523,157.072708 198.755371,156.180527 195.252045,152.455078 
	C191.307831,148.260788 190.831329,143.345428 193.505051,137.820297 
z"/>
<path fill="#676767" opacity="1.000000" stroke="none" 
	d="
M120.341385,61.373695 
	C115.472984,65.197380 110.521103,65.541771 105.687538,62.521816 
	C101.408195,59.848133 99.326866,55.641506 100.169678,50.562458 
	C101.032738,45.361393 104.222313,41.909100 109.367851,40.478680 
	C114.256996,39.119526 119.533142,41.240444 122.395226,45.606129 
	C125.564240,50.439987 124.929695,55.969643 120.341385,61.373695 
z"/>
<path fill="#686868" opacity="1.000000" stroke="none" 
	d="
M41.632450,182.221527 
	C37.544518,175.161774 38.337147,169.113541 43.599854,164.978806 
	C48.139145,161.412430 54.950615,161.638397 59.206543,165.496521 
	C64.305374,170.118774 64.635986,177.859207 59.950947,182.925491 
	C55.034924,188.241547 48.033783,188.079498 41.632450,182.221527 
z"/>
<path fill="#FF9A04" opacity="1.000000" stroke="none" 
	d="
M130.947998,80.461403 
	C134.155518,72.153061 140.478790,68.915222 147.358246,71.662491 
	C153.807785,74.238075 156.678345,81.164879 153.993301,87.673271 
	C151.888641,92.774803 145.981110,96.128616 140.620483,94.909119 
	C133.974350,93.397179 129.662003,87.682938 130.947998,80.461403 
z"/>
<path fill="#686868" opacity="1.000000" stroke="none" 
	d="
M154.220474,109.156837 
	C156.039841,115.101822 154.556061,119.723778 149.990891,123.248688 
	C146.034897,126.303238 140.669968,126.466705 136.431335,123.775864 
	C131.865219,120.877136 130.209030,116.613609 130.909042,111.349541 
	C131.556854,106.478157 135.534668,102.471260 140.767517,101.379356 
	C145.922241,100.303757 150.703079,102.960762 154.220474,109.156837 
z"/>
<path fill="#686868" opacity="1.000000" stroke="none" 
	d="
M16.907749,94.520889 
	C9.907982,91.147629 7.194322,86.162338 8.757209,80.061699 
	C10.244994,74.254219 14.805710,70.722343 20.727066,70.792099 
	C26.696829,70.862411 31.451004,74.861633 32.562527,80.921555 
	C34.071526,89.148483 26.083580,97.226723 16.907749,94.520889 
z"/>
<path fill="#FF9A05" opacity="1.000000" stroke="none" 
	d="
M55.561371,102.175041 
	C63.101963,106.567986 65.290825,113.098328 61.660347,119.446274 
	C58.348999,125.236206 51.178478,127.254288 45.296963,124.051613 
	C39.934978,121.131836 37.570004,114.789398 39.734604,109.134361 
	C42.087933,102.986267 48.168228,100.195808 55.561371,102.175041 
z"/>
<path fill="#676767" opacity="1.000000" stroke="none" 
	d="
M111.201927,131.918549 
	C119.435226,132.387375 124.199036,136.793396 124.364792,143.688232 
	C124.513756,149.884598 120.216576,155.127090 114.261307,156.014343 
	C107.761444,156.982742 101.922836,153.097855 100.303482,146.727081 
	C98.600548,140.027481 102.953773,133.890030 111.201927,131.918549 
z"/>
</svg>