<svg version="1.1" id="Layer_1" xmlns="http://www.w3.org/2000/svg" xmlns:xlink="http://www.w3.org/1999/xlink" x="0px" y="0px"
	 width="100%" viewBox="0 0 238 238" enable-background="new 0 0 238 238" xml:space="preserve">
<path fill="#FEFFFE" opacity="1.000000" stroke="none" 
	d="
M136.000000,239.000000 
	C90.666672,239.000000 45.833340,239.000000 1.000006,239.000000 
	C1.000004,159.666672 1.000004,80.333351 1.000002,1.000017 
	C80.333321,1.000011 159.666641,1.000011 238.999969,1.000006 
	C238.999985,80.333321 238.999985,159.666641 239.000000,238.999969 
	C204.833328,239.000000 170.666672,239.000000 136.000000,239.000000 
M77.950485,229.587555 
	C99.093903,237.879471 120.896477,240.080063 143.129486,235.647171 
	C204.185623,223.473618 243.999725,166.693954 235.161179,104.795311 
	C225.841095,39.524540 161.774429,-5.201376 97.415123,8.632703 
	C39.058601,21.176479 0.223895,73.008675 5.943510,132.329391 
	C10.388263,178.427933 35.024979,210.524048 77.950485,229.587555 
z"/>
<path fill="#8CC540" opacity="1.000000" stroke="none" 
	d="
M77.605545,229.415527 
	C35.024979,210.524048 10.388263,178.427933 5.943510,132.329391 
	C0.223895,73.008675 39.058601,21.176479 97.415123,8.632703 
	C161.774429,-5.201376 225.841095,39.524540 235.161179,104.795311 
	C243.999725,166.693954 204.185623,223.473618 143.129486,235.647171 
	C120.896477,240.080063 99.093903,237.879471 77.605545,229.415527 
M75.441147,73.937027 
	C57.303085,88.666321 42.476276,106.312889 29.902924,125.904854 
	C28.913187,127.447067 28.428366,129.664719 28.550638,131.512787 
	C29.415741,144.588394 32.517811,157.147644 38.495258,168.838409 
	C41.388950,174.497940 44.954998,179.813690 48.125591,185.132370 
	C49.228565,184.682587 49.470535,184.657593 49.506310,184.558304 
	C50.068577,182.997620 50.618549,181.432129 51.144005,179.858612 
	C60.453835,151.979599 73.429375,126.126427 93.029724,103.920273 
	C109.121307,85.689369 128.120132,72.011948 151.890030,65.437111 
	C163.189865,62.311531 174.614166,62.874146 186.083038,62.952095 
	C187.694839,62.963051 190.506943,62.084656 190.673737,61.216457 
	C190.989212,59.574322 190.349152,56.906319 189.113953,55.960987 
	C184.805054,52.663254 180.392853,49.128849 175.437927,47.119564 
	C162.734238,41.968060 149.401016,42.114792 136.133789,44.650887 
	C113.579651,48.962219 93.921623,59.462200 75.441147,73.937027 
M191.353226,160.811401 
	C194.572311,154.290283 198.888336,148.075333 200.809692,141.191986 
	C207.179214,118.372795 200.346161,98.124535 185.271317,81.027161 
	C169.616516,63.272045 172.470291,65.704247 151.803207,71.384918 
	C145.699356,73.062668 139.909225,75.881775 133.975311,78.177841 
	C135.711578,79.949013 137.222778,80.439079 138.703644,81.008133 
	C153.051208,86.521545 166.120392,93.855934 175.381073,106.658569 
	C189.145752,125.687843 186.880035,148.507385 169.194565,161.098206 
	C163.099564,165.437439 155.907074,169.119720 148.678925,170.822189 
	C123.750267,176.693710 100.934425,170.488342 80.010475,156.376740 
	C76.495514,154.006180 73.192993,151.320602 69.734619,148.737488 
	C65.964317,156.111923 65.678040,156.485077 71.665276,161.078400 
	C79.294678,166.931564 87.025803,172.881348 95.446335,177.432999 
	C126.071106,193.986969 169.127167,189.427170 191.353226,160.811401 
z"/>
<path fill="#FEFEFD" opacity="1.000000" stroke="none" 
	d="
M75.711243,73.706650 
	C93.921623,59.462200 113.579651,48.962219 136.133789,44.650887 
	C149.401016,42.114792 162.734238,41.968060 175.437927,47.119564 
	C180.392853,49.128849 184.805054,52.663254 189.113953,55.960987 
	C190.349152,56.906319 190.989212,59.574322 190.673737,61.216457 
	C190.506943,62.084656 187.694839,62.963051 186.083038,62.952095 
	C174.614166,62.874146 163.189865,62.311531 151.890030,65.437111 
	C128.120132,72.011948 109.121307,85.689369 93.029724,103.920273 
	C73.429375,126.126427 60.453835,151.979599 51.144005,179.858612 
	C50.618549,181.432129 50.068577,182.997620 49.506310,184.558304 
	C49.470535,184.657593 49.228565,184.682587 48.125591,185.132370 
	C44.954998,179.813690 41.388950,174.497940 38.495258,168.838409 
	C32.517811,157.147644 29.415741,144.588394 28.550638,131.512787 
	C28.428366,129.664719 28.913187,127.447067 29.902924,125.904854 
	C42.476276,106.312889 57.303085,88.666321 75.711243,73.706650 
z"/>
<path fill="#FDFEFC" opacity="1.000000" stroke="none" 
	d="
M191.145935,161.102264 
	C169.127167,189.427170 126.071106,193.986969 95.446335,177.432999 
	C87.025803,172.881348 79.294678,166.931564 71.665276,161.078400 
	C65.678040,156.485077 65.964317,156.111923 69.734619,148.737488 
	C73.192993,151.320602 76.495514,154.006180 80.010475,156.376740 
	C100.934425,170.488342 123.750267,176.693710 148.678925,170.822189 
	C155.907074,169.119720 163.099564,165.437439 169.194565,161.098206 
	C186.880035,148.507385 189.145752,125.687843 175.381073,106.658569 
	C166.120392,93.855934 153.051208,86.521545 138.703644,81.008133 
	C137.222778,80.439079 135.711578,79.949013 133.975311,78.177841 
	C139.909225,75.881775 145.699356,73.062668 151.803207,71.384918 
	C172.470291,65.704247 169.616516,63.272045 185.271317,81.027161 
	C200.346161,98.124535 207.179214,118.372795 200.809692,141.191986 
	C198.888336,148.075333 194.572311,154.290283 191.145935,161.102264 
z"/>
</svg>