<svg version="1.1" id="Layer_1" xmlns="http://www.w3.org/2000/svg" xmlns:xlink="http://www.w3.org/1999/xlink" x="0px" y="0px"
	 width="100%" viewBox="0 0 294 294" enable-background="new 0 0 294 294" xml:space="preserve">
<path fill="#4C6971" opacity="1.000000" stroke="none" 
	d="
M295.000000,100.000000 
	C295.000000,165.333328 295.000000,230.166641 295.000000,295.000000 
	C197.000031,295.000000 99.000061,295.000000 1.000066,295.000000 
	C1.000044,197.000046 1.000044,99.000092 1.000022,1.000105 
	C98.999939,1.000070 196.999878,1.000070 294.999908,1.000035 
	C295.000000,33.833332 295.000000,66.666664 295.000000,100.000000 
M289.000000,129.500000 
	C289.000000,108.339256 289.247040,87.173714 288.835999,66.020958 
	C288.725494,60.334652 287.540985,54.274181 285.238983,49.102322 
	C279.230225,35.602787 270.281586,24.701649 257.472473,16.332293 
	C246.625336,9.244855 234.780960,6.552206 222.934647,6.327207 
	C179.462570,5.501537 135.965118,6.078962 92.477730,5.955003 
	C78.168396,5.914215 63.815346,5.463937 50.261169,10.953687 
	C44.178074,13.417479 37.868649,16.078939 32.799305,20.088652 
	C27.072309,24.618546 22.060364,30.355812 17.747421,36.300732 
	C10.852506,45.804623 7.112174,56.803791 7.070097,68.593384 
	C6.900621,116.079407 6.981154,163.566391 7.013912,211.052994 
	C7.021505,222.060715 5.586730,233.314346 10.111971,243.784531 
	C13.228042,250.994263 16.460079,258.408661 21.105589,264.639038 
	C27.105391,272.685699 35.445465,278.233856 44.515156,283.032043 
	C53.976151,288.037231 64.252007,289.755768 74.055130,289.654877 
	C127.032143,289.109467 180.048706,292.412964 233.000015,288.122833 
	C245.604034,287.101685 255.754257,281.411133 265.360504,274.170380 
	C271.999695,269.166046 277.354919,262.864441 281.063873,255.354599 
	C285.104584,247.173050 288.825775,238.687912 288.898315,229.471329 
	C289.157898,196.482651 289.000000,163.490707 289.000000,129.500000 
z"/>
<path fill="#000000" opacity="1.000000" stroke="none" 
	d="
M289.000000,130.000000 
	C289.000000,163.490707 289.157898,196.482651 288.898315,229.471329 
	C288.825775,238.687912 285.104584,247.173050 281.063873,255.354599 
	C277.354919,262.864441 271.999695,269.166046 265.360504,274.170380 
	C255.754257,281.411133 245.604034,287.101685 233.000015,288.122833 
	C180.048706,292.412964 127.032143,289.109467 74.055130,289.654877 
	C64.252007,289.755768 53.976151,288.037231 44.515156,283.032043 
	C35.445465,278.233856 27.105391,272.685699 21.105589,264.639038 
	C16.460079,258.408661 13.228042,250.994263 10.111971,243.784531 
	C5.586730,233.314346 7.021505,222.060715 7.013912,211.052994 
	C6.981154,163.566391 6.900621,116.079407 7.070097,68.593384 
	C7.112174,56.803791 10.852506,45.804623 17.747421,36.300732 
	C22.060364,30.355812 27.072309,24.618546 32.799305,20.088652 
	C37.868649,16.078939 44.178074,13.417479 50.261169,10.953687 
	C63.815346,5.463937 78.168396,5.914215 92.477730,5.955003 
	C135.965118,6.078962 179.462570,5.501537 222.934647,6.327207 
	C234.780960,6.552206 246.625336,9.244855 257.472473,16.332293 
	C270.281586,24.701649 279.230225,35.602787 285.238983,49.102322 
	C287.540985,54.274181 288.725494,60.334652 288.835999,66.020958 
	C289.247040,87.173714 289.000000,108.339256 289.000000,130.000000 
M86.500031,265.999329 
	C133.155762,265.998840 179.811523,266.025085 226.467224,265.987122 
	C251.490448,265.966736 273.986023,243.409409 273.993744,218.391800 
	C274.009857,166.070724 274.018036,113.749619 273.952728,61.428616 
	C273.948639,58.146976 273.638397,54.779781 272.866669,51.598911 
	C267.620148,29.974180 247.056625,13.735965 225.245575,13.885777 
	C173.260208,14.242843 121.270638,14.054890 69.282928,13.977657 
	C44.511101,13.940856 21.950172,36.708031 21.981466,61.399689 
	C22.046932,113.054169 22.323488,164.711853 21.834234,216.361801 
	C21.651299,235.673920 35.155846,256.194244 54.428638,263.202728 
	C64.697845,266.937103 75.104515,265.592682 86.500031,265.999329 
z"/>
<path fill="#BC1E25" opacity="1.000000" stroke="none" 
	d="
M86.000046,265.999329 
	C75.104515,265.592682 64.697845,266.937103 54.428638,263.202728 
	C35.155846,256.194244 21.651299,235.673920 21.834234,216.361801 
	C22.323488,164.711853 22.046932,113.054169 21.981466,61.399689 
	C21.950172,36.708031 44.511101,13.940856 69.282928,13.977657 
	C121.270638,14.054890 173.260208,14.242843 225.245575,13.885777 
	C247.056625,13.735965 267.620148,29.974180 272.866669,51.598911 
	C273.638397,54.779781 273.948639,58.146976 273.952728,61.428616 
	C274.018036,113.749619 274.009857,166.070724 273.993744,218.391800 
	C273.986023,243.409409 251.490448,265.966736 226.467224,265.987122 
	C179.811523,266.025085 133.155762,265.998840 86.000046,265.999329 
M202.906097,136.666138 
	C192.981918,120.719513 178.286728,112.702568 159.853821,112.041618 
	C142.557037,111.421410 125.225792,111.757927 107.909630,111.698883 
	C107.310181,111.696838 106.709793,111.968330 106.076782,112.120262 
	C106.076782,153.944580 106.076782,195.519104 106.076782,237.108124 
	C106.724022,237.319962 107.185158,237.606262 107.643112,237.601273 
	C125.453110,237.406601 143.313461,237.938370 161.057571,236.744904 
	C177.149963,235.662552 192.091309,229.884674 200.856506,215.375031 
	C216.143387,190.069641 215.742020,163.755417 202.906097,136.666138 
M87.332413,213.500519 
	C87.332413,196.400604 87.332413,179.300690 87.332413,162.126312 
	C75.812653,162.126312 64.875587,162.126312 53.866920,162.126312 
	C53.866920,187.377457 53.866920,212.395096 53.866920,237.295929 
	C65.208351,237.295929 76.100861,237.295929 87.332375,237.295929 
	C87.332375,229.445938 87.332375,221.973221 87.332413,213.500519 
M53.417294,125.516632 
	C53.417294,131.775757 53.417294,138.034897 53.417294,144.512177 
	C64.961617,144.512177 75.852432,144.512177 86.967422,144.512177 
	C86.967422,133.528412 86.967422,122.696976 86.967422,111.923012 
	C75.696640,111.923012 64.797096,111.923012 53.417332,111.923012 
	C53.417332,116.301796 53.417332,120.413757 53.417294,125.516632 
z"/>
<path fill="#FEFDFD" opacity="1.000000" stroke="none" 
	d="
M203.051315,137.003967 
	C215.742020,163.755417 216.143387,190.069641 200.856506,215.375031 
	C192.091309,229.884674 177.149963,235.662552 161.057571,236.744904 
	C143.313461,237.938370 125.453110,237.406601 107.643112,237.601273 
	C107.185158,237.606262 106.724022,237.319962 106.076782,237.108124 
	C106.076782,195.519104 106.076782,153.944580 106.076782,112.120262 
	C106.709793,111.968330 107.310181,111.696838 107.909630,111.698883 
	C125.225792,111.757927 142.557037,111.421410 159.853821,112.041618 
	C178.286728,112.702568 192.981918,120.719513 203.051315,137.003967 
M139.769379,191.499786 
	C139.769379,198.597656 139.769379,205.695526 139.769379,212.714752 
	C159.685593,215.070770 171.699081,207.526535 174.595123,189.696594 
	C176.062500,180.662460 176.029434,171.078125 174.838196,161.983093 
	C172.436966,143.649780 158.865784,134.433914 139.769363,137.279617 
	C139.769363,154.968277 139.769363,172.734070 139.769379,191.499786 
z"/>
<path fill="#FEFBFB" opacity="1.000000" stroke="none" 
	d="
M87.332397,214.000519 
	C87.332375,221.973221 87.332375,229.445938 87.332375,237.295929 
	C76.100861,237.295929 65.208351,237.295929 53.866920,237.295929 
	C53.866920,212.395096 53.866920,187.377457 53.866920,162.126312 
	C64.875587,162.126312 75.812653,162.126312 87.332413,162.126312 
	C87.332413,179.300690 87.332413,196.400604 87.332397,214.000519 
z"/>
<path fill="#FDFAFA" opacity="1.000000" stroke="none" 
	d="
M53.417313,125.021179 
	C53.417332,120.413757 53.417332,116.301796 53.417332,111.923012 
	C64.797096,111.923012 75.696640,111.923012 86.967422,111.923012 
	C86.967422,122.696976 86.967422,133.528412 86.967422,144.512177 
	C75.852432,144.512177 64.961617,144.512177 53.417294,144.512177 
	C53.417294,138.034897 53.417294,131.775757 53.417313,125.021179 
z"/>
<path fill="#BC1E25" opacity="1.000000" stroke="none" 
	d="
M139.769379,190.999817 
	C139.769363,172.734070 139.769363,154.968277 139.769363,137.279617 
	C158.865784,134.433914 172.436966,143.649780 174.838196,161.983093 
	C176.029434,171.078125 176.062500,180.662460 174.595123,189.696594 
	C171.699081,207.526535 159.685593,215.070770 139.769379,212.714752 
	C139.769379,205.695526 139.769379,198.597656 139.769379,190.999817 
z"/>
</svg>