<?xml version="1.0" standalone="no"?>
<!DOCTYPE svg PUBLIC "-//W3C//DTD SVG 20010904//EN"
 "http://www.w3.org/TR/2001/REC-SVG-20010904/DTD/svg10.dtd">
<svg version="1.0" xmlns="http://www.w3.org/2000/svg"
 width="308.000000pt" height="279.000000pt" viewBox="0 0 308.000000 279.000000"
 preserveAspectRatio="xMidYMid meet">

<g transform="translate(0.000000,279.000000) scale(0.100000,-0.100000)"
fill="#000000" stroke="none">
<path d="M586 2641 c-17 -18 -18 -37 -12 -233 28 -921 36 -1205 36 -1285 0
-81 3 -95 23 -118 26 -31 20 -31 440 -33 l267 -2 0 -44 0 -44 -87 -4 c-99 -5
-127 -17 -146 -65 l-13 -33 -160 -3 c-119 -1 -165 -6 -177 -16 -31 -25 -18
-31 66 -31 46 0 108 -4 138 -10 30 -5 72 -11 94 -12 38 -3 40 -5 43 -41 l3
-37 -50 0 c-59 0 -81 -7 -75 -24 7 -18 -39 -26 -148 -26 -78 0 -89 -2 -84 -16
3 -9 6 -18 6 -20 0 -2 78 -4 174 -4 133 0 178 -3 188 -13 35 -35 55 -37 400
-37 l344 0 34 25 c33 24 38 25 215 25 169 0 181 1 193 20 12 19 10 20 -67 20
-104 0 -142 8 -139 29 3 13 -11 17 -82 21 l-85 5 0 35 0 35 70 3 c39 1 89 7
112 12 23 6 76 10 118 10 67 0 76 2 73 17 -5 26 -38 31 -215 32 -152 1 -163 2
-163 20 0 36 -44 69 -104 76 -31 4 -67 5 -81 3 -24 -5 -25 -3 -25 42 l0 47
325 6 c359 7 374 10 409 70 19 32 21 52 86 902 6 83 13 162 16 177 4 19 -1 33
-15 47 -19 19 -33 21 -165 21 l-143 0 -7 61 c-3 34 -6 76 -6 94 0 18 -9 41
-20 53 -21 22 -24 22 -365 22 l-345 0 -14 23 c-7 12 -21 57 -31 99 -27 125 4
117 -449 118 -368 0 -383 0 -400 -19z m783 -30 c15 -15 51 -137 51 -174 0 -6
10 -21 22 -34 l21 -23 342 0 c252 0 344 -3 353 -12 7 -7 12 -43 12 -93 l0 -80
-47 4 c-43 4 -45 5 -18 11 23 5 12 8 -45 13 -79 7 -485 23 -580 23 -141 1
-624 -25 -629 -33 -3 -5 -14 -12 -23 -16 -9 -3 -18 -18 -20 -34 -2 -20 -9 -29
-25 -31 -13 -2 -23 -8 -23 -13 0 -5 -15 -10 -32 -10 -26 -1 -22 -3 20 -11 46
-8 52 -12 52 -34 0 -13 -3 -24 -7 -25 -5 -1 -24 -2 -43 -4 -19 -2 -41 -3 -47
-4 -7 -1 -13 -10 -13 -21 0 -12 6 -20 13 -19 6 1 29 1 50 0 34 -1 38 -4 35
-23 -3 -23 -6 -24 -76 -27 -18 -1 -23 -6 -20 -23 2 -19 10 -24 46 -26 32 -2
42 -7 42 -21 0 -13 -9 -18 -35 -19 -47 -2 -53 -7 -47 -37 4 -23 13 -30 35 -26
4 0 7 -8 7 -19 0 -13 -7 -20 -20 -20 -27 0 -29 -59 -2 -61 15 -1 15 -2 -1 -6
-17 -4 -18 -15 -14 -113 3 -71 1 -112 -7 -120 -7 -7 -7 -16 2 -30 15 -24 16
-52 2 -66 -8 -8 -7 -19 1 -37 12 -27 5 -82 -10 -72 -5 2 -11 -1 -14 -9 -3 -8
2 -16 14 -19 25 -7 25 -43 -1 -57 -15 -8 -21 -8 -25 2 -2 7 -9 137 -15 288 -5
151 -17 442 -25 645 -18 464 -19 510 -11 524 5 8 112 11 372 11 342 0 365 -1
383 -19z m1129 -476 c5 -5 -7 -169 -48 -680 -29 -346 -33 -373 -60 -405 l-18
-21 -807 0 c-444 0 -810 2 -813 5 -3 3 1 12 7 20 7 9 16 72 22 148 5 73 16
216 24 318 8 102 22 275 30 385 9 110 18 209 20 220 4 20 11 20 821 17 450 -1
820 -5 822 -7z m-1788 -1038 c0 -27 -28 -70 -41 -62 -5 4 -9 24 -9 46 0 35 3
39 25 39 19 0 25 -5 25 -23z m749 -254 c14 -10 11 -12 -16 -13 -35 0 -36 2
-26 39 6 22 7 22 16 5 6 -11 18 -24 26 -31z m411 -110 l0 -63 -360 0 -360 0 0
58 c0 32 2 61 4 63 3 3 165 5 360 5 l356 0 0 -63z m-20 -185 c0 -5 -150 -8
-334 -8 -184 0 -337 3 -339 8 -3 4 147 7 334 7 186 0 339 -3 339 -7z"/>
<path d="M1230 2405 c0 -10 10 -15 34 -15 18 0 53 -2 77 -5 51 -7 81 7 61 27
-9 9 -12 9 -12 -2 0 -11 -3 -11 -12 -2 -7 7 -40 12 -80 12 -54 0 -68 -3 -68
-15z"/>
<path d="M1040 2321 c-51 -4 -75 -9 -60 -12 19 -5 15 -7 -20 -9 -112 -8 185
-18 520 -18 338 0 660 11 505 17 -40 2 -53 5 -40 10 16 7 14 9 -14 14 -39 8
-767 6 -891 -2z"/>
<path d="M1272 318 c-16 -16 -16 -54 1 -68 6 -6 27 -20 45 -30 55 -34 32 -77
-36 -67 -34 6 -35 5 -18 -8 44 -33 106 -9 106 40 0 27 -9 37 -57 65 -38 22
-42 44 -13 60 14 8 26 8 41 -1 17 -9 20 -8 17 3 -6 17 -70 22 -86 6z"/>
<path d="M1420 230 c0 -127 18 -133 22 -7 l3 92 35 -92 c19 -51 40 -93 45 -93
6 0 27 42 47 93 l37 92 1 -92 c0 -55 4 -93 10 -93 6 0 10 40 10 101 0 89 -2
100 -17 97 -10 -2 -29 -32 -48 -75 -17 -40 -34 -75 -37 -78 -3 -3 -20 30 -38
75 -24 60 -37 80 -51 80 -17 0 -19 -9 -19 -100z"/>
<path d="M1690 229 l0 -102 52 5 c73 7 99 47 58 88 -11 11 -15 22 -10 25 6 4
10 19 10 35 0 35 -23 50 -74 50 l-36 0 0 -101z m88 52 c4 -26 -12 -41 -45 -41
-20 0 -23 5 -23 36 0 34 1 35 33 32 25 -2 33 -8 35 -27z m2 -71 c30 -30 11
-60 -35 -60 -34 0 -35 1 -35 40 0 36 3 40 25 40 14 0 34 -9 45 -20z"/>
</g>
</svg>
