<svg version="1.1" id="Layer_1" xmlns="http://www.w3.org/2000/svg" xmlns:xlink="http://www.w3.org/1999/xlink" x="0px" y="0px"
	 width="100%" viewBox="0 0 158 148" enable-background="new 0 0 158 148" xml:space="preserve">
<path fill="#FFFEFB" opacity="1.000000" stroke="none" 
	d="
M89.000000,149.000000 
	C59.357178,149.000000 30.214355,149.000000 1.035767,149.000000 
	C1.035767,99.730865 1.035767,50.461697 1.035767,1.096265 
	C53.559277,1.096265 106.118790,1.096265 158.839142,1.096265 
	C158.839142,50.332916 158.839142,99.666405 158.839142,149.000000 
	C135.795395,149.000000 112.647697,149.000000 89.000000,149.000000 
M14.211499,85.016960 
	C20.066149,115.221252 37.738853,134.489822 67.814316,141.311539 
	C116.261589,152.300354 159.798752,107.415428 147.411041,59.235195 
	C140.629395,32.858982 123.111740,16.275591 96.873718,10.057847 
	C73.233475,4.455712 51.881622,10.600893 34.226974,27.393967 
	C18.077921,42.754921 11.994676,62.070057 14.211499,85.016960 
z"/>
<path fill="#F5B32D" opacity="1.000000" stroke="none" 
	d="
M14.169256,84.561310 
	C11.994676,62.070057 18.077921,42.754921 34.226974,27.393967 
	C51.881622,10.600893 73.233475,4.455712 96.873718,10.057847 
	C123.111740,16.275591 140.629395,32.858982 147.411041,59.235195 
	C159.798752,107.415428 116.261589,152.300354 67.814316,141.311539 
	C37.738853,134.489822 20.066149,115.221252 14.169256,84.561310 
M43.928883,108.572159 
	C61.729355,128.881424 93.943062,131.168335 114.010902,113.547401 
	C135.394867,94.770836 137.978806,64.247612 119.945831,43.440228 
	C101.632652,22.309532 69.395363,19.811016 48.664516,37.915649 
	C27.423765,56.465591 25.164833,86.805130 43.928883,108.572159 
z"/>
<path fill="#FBFAF4" opacity="1.000000" stroke="none" 
	d="
M43.685486,108.314880 
	C25.164833,86.805130 27.423765,56.465591 48.664516,37.915649 
	C69.395363,19.811016 101.632652,22.309532 119.945831,43.440228 
	C137.978806,64.247612 135.394867,94.770836 114.010902,113.547401 
	C93.943062,131.168335 61.729355,128.881424 43.685486,108.314880 
M55.829052,43.426060 
	C53.554016,44.347279 51.278984,45.268494 49.031933,46.178379 
	C49.031933,55.590660 48.737637,64.748383 49.100815,73.879959 
	C49.647305,87.620644 54.841072,99.382011 65.553986,108.309494 
	C70.638680,112.546753 76.003754,116.447571 81.436256,120.651283 
	C85.708832,117.535652 89.751236,114.669556 93.706413,111.687744 
	C103.879356,104.018326 111.815849,94.463554 112.981842,81.499557 
	C114.031868,69.825020 113.203285,57.981510 113.203285,46.115303 
	C103.673935,41.892460 93.547554,37.341873 83.342957,32.974014 
	C82.239563,32.501732 80.537361,32.742966 79.360283,33.239544 
	C71.723450,36.461300 64.155151,39.845497 55.829052,43.426060 
z"/>
<path fill="#0F0F0F" opacity="1.000000" stroke="none" 
	d="
M56.196724,43.301273 
	C64.155151,39.845497 71.723450,36.461300 79.360283,33.239544 
	C80.537361,32.742966 82.239563,32.501732 83.342957,32.974014 
	C93.547554,37.341873 103.673935,41.892460 113.203285,46.115303 
	C113.203285,57.981510 114.031868,69.825020 112.981842,81.499557 
	C111.815849,94.463554 103.879356,104.018326 93.706413,111.687744 
	C89.751236,114.669556 85.708832,117.535652 81.436256,120.651283 
	C76.003754,116.447571 70.638680,112.546753 65.553986,108.309494 
	C54.841072,99.382011 49.647305,87.620644 49.100815,73.879959 
	C48.737637,64.748383 49.031933,55.590660 49.031933,46.178379 
	C51.278984,45.268494 53.554016,44.347279 56.196724,43.301273 
M96.099792,96.589622 
	C98.608482,91.763802 102.467102,87.165596 103.327667,82.061882 
	C104.835281,73.120804 104.552467,63.871269 104.866264,54.745686 
	C104.897423,53.839619 104.088463,52.423317 103.292358,52.051769 
	C99.425514,50.247101 95.430138,48.717838 91.341431,47.033852 
	C91.341431,65.181427 91.341431,82.870445 91.341431,100.559464 
	C91.709435,100.843651 92.077431,101.127846 92.445435,101.412033 
	C93.530487,100.006660 94.615532,98.601295 96.099792,96.589622 
M72.089851,53.698505 
	C72.089851,51.607178 72.089851,49.515854 72.089851,46.940472 
	C67.755745,48.739258 63.922905,50.220367 60.208389,51.954876 
	C59.363846,52.349243 58.354088,53.648201 58.393463,54.485001 
	C58.852245,64.234406 58.784084,74.090309 60.333302,83.679245 
	C61.447193,90.573677 65.779671,96.406075 72.090286,101.265076 
	C72.090286,85.171631 72.090286,69.912354 72.089851,53.698505 
M84.841209,43.878792 
	C79.049248,41.887016 76.937035,43.185410 76.932175,48.814545 
	C76.916946,66.454308 77.042557,84.095451 76.835999,101.732811 
	C76.790604,105.608810 78.391090,108.440636 81.711983,108.375122 
	C85.034874,108.309570 86.520218,105.362061 86.476212,101.537132 
	C86.273315,83.899673 86.401825,66.258545 86.349487,48.618923 
	C86.345238,47.184185 85.873680,45.750839 84.841209,43.878792 
z"/>
<path fill="#F6F6F6" opacity="1.000000" stroke="none" 
	d="
M95.900192,96.892776 
	C94.615532,98.601295 93.530487,100.006660 92.445435,101.412033 
	C92.077431,101.127846 91.709435,100.843651 91.341431,100.559464 
	C91.341431,82.870445 91.341431,65.181427 91.341431,47.033852 
	C95.430138,48.717838 99.425514,50.247101 103.292358,52.051769 
	C104.088463,52.423317 104.897423,53.839619 104.866264,54.745686 
	C104.552467,63.871269 104.835281,73.120804 103.327667,82.061882 
	C102.467102,87.165596 98.608482,91.763802 95.900192,96.892776 
z"/>
<path fill="#F9F9F9" opacity="1.000000" stroke="none" 
	d="
M72.090073,54.175789 
	C72.090286,69.912354 72.090286,85.171631 72.090286,101.265076 
	C65.779671,96.406075 61.447193,90.573677 60.333302,83.679245 
	C58.784084,74.090309 58.852245,64.234406 58.393463,54.485001 
	C58.354088,53.648201 59.363846,52.349243 60.208389,51.954876 
	C63.922905,50.220367 67.755745,48.739258 72.089851,46.940472 
	C72.089851,49.515854 72.089851,51.607178 72.090073,54.175789 
z"/>
<path fill="#FAFAFA" opacity="1.000000" stroke="none" 
	d="
M85.230240,44.097816 
	C85.873680,45.750839 86.345238,47.184185 86.349487,48.618923 
	C86.401825,66.258545 86.273315,83.899673 86.476212,101.537132 
	C86.520218,105.362061 85.034874,108.309570 81.711983,108.375122 
	C78.391090,108.440636 76.790604,105.608810 76.835999,101.732811 
	C77.042557,84.095451 76.916946,66.454308 76.932175,48.814545 
	C76.937035,43.185410 79.049248,41.887016 85.230240,44.097816 
z"/>
</svg>