<?xml version="1.0" standalone="no"?>
<!DOCTYPE svg PUBLIC "-//W3C//DTD SVG 20010904//EN"
 "http://www.w3.org/TR/2001/REC-SVG-20010904/DTD/svg10.dtd">
<svg version="1.0" xmlns="http://www.w3.org/2000/svg"
 width="158.000000pt" height="148.000000pt" viewBox="0 0 158.000000 148.000000"
 preserveAspectRatio="xMidYMid meet">

<g transform="translate(0.000000,148.000000) scale(0.100000,-0.100000)"
fill="#000000" stroke="none">
<path d="M715 1126 c-49 -23 -123 -55 -164 -71 l-73 -28 4 -181 c4 -151 9
-191 26 -238 37 -102 112 -190 235 -279 69 -49 63 -50 187 48 88 69 146 147
177 236 15 43 18 85 18 236 l0 183 -40 15 c-58 23 -173 72 -229 99 -28 13 -50
24 -50 24 -1 -1 -41 -20 -91 -44z m119 -72 c14 -5 16 -43 16 -315 0 -306 0
-308 -22 -323 -19 -13 -25 -14 -43 -2 -19 13 -20 24 -23 322 -2 239 1 309 10
316 16 9 41 10 62 2z m-124 -306 l0 -272 -34 33 c-74 71 -109 197 -104 365 l3
89 65 28 c36 16 66 28 68 29 1 0 2 -122 2 -272z m265 242 l68 -30 -5 -143 c-5
-156 -17 -199 -81 -283 -58 -77 -57 -80 -57 216 0 149 2 270 4 270 2 0 34 -14
71 -30z"/>
</g>
</svg>
