<svg version="1.1" id="Layer_1" xmlns="http://www.w3.org/2000/svg" xmlns:xlink="http://www.w3.org/1999/xlink" x="0px" y="0px"
	 width="100%" viewBox="0 0 122 124" enable-background="new 0 0 122 124" xml:space="preserve">
<path fill="#FCFDFD" opacity="1.000000" stroke="none" 
	d="
M87.000000,125.000000 
	C58.000000,125.000000 29.500000,125.000000 1.000000,125.000000 
	C1.000000,83.666664 1.000000,42.333332 1.000000,1.000000 
	C41.666668,1.000000 82.333336,1.000000 123.000000,1.000000 
	C123.000000,42.333332 123.000000,83.666664 123.000000,125.000000 
	C111.166664,125.000000 99.333336,125.000000 87.000000,125.000000 
M61.393005,10.040643 
	C59.727451,10.040516 58.025730,10.262296 56.403263,9.997830 
	C51.893764,9.262772 50.165089,11.490208 48.615505,15.504313 
	C38.470978,41.783100 28.004816,67.937622 17.674225,94.144760 
	C15.099804,100.675674 12.637365,107.250717 9.826472,114.579842 
	C16.601221,114.579842 22.389633,114.685257 28.166428,114.473640 
	C29.103437,114.439316 30.446230,113.175919 30.830315,112.182495 
	C37.578625,94.728287 44.244854,77.241966 50.843681,59.730503 
	C53.725845,52.082031 56.416737,44.361481 59.645882,35.424366 
	C63.016098,44.828987 65.792519,52.929665 68.814987,60.937477 
	C75.138969,77.692390 81.525925,94.424683 88.099174,111.082542 
	C88.736221,112.696930 90.742332,114.657204 92.309074,114.848251 
	C96.575775,115.368507 100.963890,115.224922 105.265442,114.873627 
	C106.235397,114.794426 107.910423,112.670822 107.766663,111.712471 
	C107.393753,109.226570 106.240845,106.845139 105.308006,104.457664 
	C93.665733,74.661171 81.951347,44.892612 70.418823,15.053746 
	C68.859489,11.019187 66.636269,9.118249 61.393005,10.040643 
z"/>
<path fill="#094C60" opacity="1.000000" stroke="none" 
	d="
M61.860321,10.040421 
	C66.636269,9.118249 68.859489,11.019187 70.418823,15.053746 
	C81.951347,44.892612 93.665733,74.661171 105.308006,104.457664 
	C106.240845,106.845139 107.393753,109.226570 107.766663,111.712471 
	C107.910423,112.670822 106.235397,114.794426 105.265442,114.873627 
	C100.963890,115.224922 96.575775,115.368507 92.309074,114.848251 
	C90.742332,114.657204 88.736221,112.696930 88.099174,111.082542 
	C81.525925,94.424683 75.138969,77.692390 68.814987,60.937477 
	C65.792519,52.929665 63.016098,44.828987 59.645882,35.424366 
	C56.416737,44.361481 53.725845,52.082031 50.843681,59.730503 
	C44.244854,77.241966 37.578625,94.728287 30.830315,112.182495 
	C30.446230,113.175919 29.103437,114.439316 28.166428,114.473640 
	C22.389633,114.685257 16.601221,114.579842 9.826472,114.579842 
	C12.637365,107.250717 15.099804,100.675674 17.674225,94.144760 
	C28.004816,67.937622 38.470978,41.783100 48.615505,15.504313 
	C50.165089,11.490208 51.893764,9.262772 56.403263,9.997830 
	C58.025730,10.262296 59.727451,10.040516 61.860321,10.040421 
z"/>
</svg>