<svg version="1.1" id="Layer_1" xmlns="http://www.w3.org/2000/svg" xmlns:xlink="http://www.w3.org/1999/xlink" x="0px" y="0px"
	 width="100%" viewBox="0 0 200 200" enable-background="new 0 0 200 200" xml:space="preserve">
<path fill="#0296C0" opacity="1.000000" stroke="none" 
	d="
M201.000000,199.000000 
	C201.609192,202.021973 199.315979,200.963577 198.044983,200.968033 
	C183.675888,201.018494 169.306580,201.000000 154.274948,200.702805 
	C138.756927,195.807632 131.220200,185.287491 127.692169,170.481949 
	C124.378105,156.574341 137.705856,139.626053 150.436234,139.905350 
	C153.155228,139.965012 155.894684,139.091461 158.959366,138.593445 
	C158.340836,133.641678 155.236237,131.437439 151.470032,129.776169 
	C141.056763,125.182861 130.030914,124.711967 119.172592,126.562050 
	C109.931404,128.136597 100.984161,131.436447 91.819397,133.603058 
	C98.261192,118.636826 108.785156,109.346710 125.277618,108.003090 
	C128.259933,107.760124 131.251312,107.622215 134.230438,107.348053 
	C137.553253,107.042267 139.106125,104.980774 137.041153,102.342659 
	C134.365143,98.923897 131.339905,95.120522 127.584175,93.317520 
	C110.323570,85.031250 91.996506,84.544510 73.448059,87.597366 
	C66.338890,88.767448 59.309082,90.419746 51.716190,91.959137 
	C58.471462,74.784851 65.083389,58.134888 71.568993,41.435860 
	C76.791893,27.988010 81.862068,14.480849 87.000000,1.000001 
	C98.687561,1.000000 110.375122,1.000000 122.674461,1.332005 
	C127.157349,11.564793 131.034805,21.463097 134.898483,31.366779 
	C153.255127,78.419968 171.576416,125.487007 189.990097,172.517853 
	C193.474625,181.417847 197.320724,190.176270 201.000000,199.000000 
z"/>
<path fill="#FDFEFF" opacity="1.000000" stroke="none" 
	d="
M86.583336,1.000001 
	C81.862068,14.480849 76.791893,27.988010 71.568993,41.435860 
	C65.083389,58.134888 58.471462,74.784851 51.716190,91.959137 
	C59.309082,90.419746 66.338890,88.767448 73.448059,87.597366 
	C91.996506,84.544510 110.323570,85.031250 127.584175,93.317520 
	C131.339905,95.120522 134.365143,98.923897 137.041153,102.342659 
	C139.106125,104.980774 137.553253,107.042267 134.230438,107.348053 
	C131.251312,107.622215 128.259933,107.760124 125.277618,108.003090 
	C108.785156,109.346710 98.261192,118.636826 91.854851,133.613647 
	C91.977776,133.994202 92.004837,133.925003 91.729675,133.874023 
	C91.347687,134.170074 91.240852,134.517090 90.917038,135.198898 
	C90.307526,143.043030 88.357239,150.871796 89.819031,158.000916 
	C93.949516,178.145233 105.517082,193.013855 125.000000,201.000000 
	C113.312439,201.000000 101.624878,201.000000 89.339737,200.668732 
	C85.952309,197.586243 82.624298,196.979568 78.745262,197.008392 
	C56.749504,197.171875 34.751907,197.087494 12.754938,197.087479 
	C10.992632,197.087463 9.230326,197.087494 6.859529,197.087494 
	C32.073761,131.288132 57.036880,66.144066 82.000000,1.000000 
	C83.388893,1.000000 84.777779,1.000000 86.583336,1.000001 
z"/>
<path fill="#FEFFFF" opacity="1.000000" stroke="none" 
	d="
M201.000000,198.531342 
	C197.320724,190.176270 193.474625,181.417847 189.990097,172.517853 
	C171.576416,125.487007 153.255127,78.419968 134.898483,31.366779 
	C131.034805,21.463097 127.157349,11.564793 123.143120,1.332005 
	C148.958740,1.000000 174.917465,1.000000 201.000000,1.000000 
	C201.000000,66.687508 201.000000,132.375092 201.000000,198.531342 
z"/>
<path fill="#FEFFFF" opacity="1.000000" stroke="none" 
	d="
M1.000001,199.000000 
	C1.000000,133.105515 1.000000,67.211029 1.000000,1.000000 
	C26.020004,1.000000 51.041344,1.000000 76.679276,1.368756 
	C76.996582,2.687995 76.747078,3.657564 76.390930,4.586235 
	C53.487934,64.306824 30.593687,124.030785 7.634700,183.729843 
	C5.644441,188.905014 3.221798,193.913879 1.000001,199.000000 
z"/>
<path fill="#80CAE0" opacity="1.000000" stroke="none" 
	d="
M125.468658,201.000000 
	C105.517082,193.013855 93.949516,178.145233 89.819031,158.000916 
	C88.357239,150.871796 90.307526,143.043030 91.114990,135.099518 
	C91.753151,134.460205 91.911453,134.213425 92.004837,133.925003 
	C92.004837,133.925003 91.977776,133.994202 91.942322,133.983597 
	C100.984161,131.436447 109.931404,128.136597 119.172592,126.562050 
	C130.030914,124.711967 141.056763,125.182861 151.470032,129.776169 
	C155.236237,131.437439 158.340836,133.641678 158.959366,138.593445 
	C155.894684,139.091461 153.155228,139.965012 150.436234,139.905350 
	C137.705856,139.626053 124.378105,156.574341 127.692169,170.481949 
	C131.220200,185.287491 138.756927,195.807632 153.806290,200.702805 
	C144.645767,201.000000 135.291550,201.000000 125.468658,201.000000 
z"/>
<path fill="#0F9BC4" opacity="1.000000" stroke="none" 
	d="
M1.000001,199.500000 
	C3.221798,193.913879 5.644441,188.905014 7.634700,183.729843 
	C30.593687,124.030785 53.487934,64.306824 76.390930,4.586235 
	C76.747078,3.657564 76.996582,2.687995 77.147934,1.368756 
	C78.388893,1.000000 79.777779,1.000000 81.583336,1.000000 
	C57.036880,66.144066 32.073761,131.288132 6.859529,197.087494 
	C9.230326,197.087494 10.992632,197.087463 12.754938,197.087479 
	C34.751907,197.087494 56.749504,197.171875 78.745262,197.008392 
	C82.624298,196.979568 85.952309,197.586243 88.871078,200.668732 
	C60.990685,201.000000 32.981342,201.013626 4.972139,200.957535 
	C3.647461,200.954895 2.324020,200.333328 1.000001,199.500000 
z"/>
<path fill="#0296C0" opacity="1.000000" stroke="none" 
	d="
M91.729675,133.874023 
	C91.911453,134.213425 91.753151,134.460205 91.331970,134.764709 
	C91.240852,134.517090 91.347687,134.170074 91.729675,133.874023 
z"/>
</svg>