<svg version="1.1" id="Layer_1" xmlns="http://www.w3.org/2000/svg" xmlns:xlink="http://www.w3.org/1999/xlink" x="0px" y="0px"
	 width="100%" viewBox="0 0 466 452" enable-background="new 0 0 466 452" xml:space="preserve">
<path fill="#E4E4E5" opacity="1.000000" stroke="none" 
	d="
M255.000000,1.000000 
	C325.649719,1.000000 396.299408,1.000000 466.974548,1.000000 
	C466.974548,151.613556 466.974548,302.227112 466.974548,452.920349 
	C311.757080,452.920349 156.514130,452.920349 1.135582,452.920349 
	C1.135582,302.333405 1.135582,151.666718 1.135582,1.000000 
	C72.436142,1.000000 143.752045,1.000000 215.247574,1.250961 
	C212.494995,1.993516 209.554642,2.441469 206.632050,2.984841 
	C197.684662,4.648340 188.777542,6.563947 179.789093,7.958372 
	C173.831573,8.882592 172.264847,11.811682 171.500122,17.798807 
	C168.418686,41.923595 169.104706,66.052124 172.610367,89.843468 
	C175.394562,108.738586 180.690811,127.359688 186.065521,145.753632 
	C193.459991,171.059784 206.112030,194.034637 220.244110,216.167999 
	C221.587784,218.272430 224.074219,219.647217 225.939301,221.659363 
	C223.528198,223.634247 221.207916,225.310532 218.564758,226.923401 
	C212.585236,218.336990 206.193787,210.205170 201.408798,201.218048 
	C186.664108,173.524658 174.195343,144.894699 168.832993,113.656158 
	C168.659912,112.647873 167.224869,111.856216 166.285141,110.630981 
	C166.192139,109.839966 166.192123,109.381554 166.422455,108.622215 
	C166.866241,104.953720 168.358566,101.263496 164.211304,98.642685 
	C164.131210,97.855156 164.134750,97.399879 164.383835,96.636078 
	C164.598923,92.389465 166.867065,87.978447 162.202484,84.580795 
	C162.111038,83.109543 162.110703,82.032585 162.366043,80.638344 
	C162.728546,76.217621 163.186584,72.083130 162.827332,68.020912 
	C162.556473,64.958214 161.239075,61.988075 160.274185,58.522690 
	C160.217239,51.719833 160.273621,45.371021 160.669006,38.885818 
	C161.645432,30.760151 162.401657,22.775599 162.719589,14.773625 
	C162.748459,14.046976 159.699982,12.269996 158.528076,12.594898 
	C154.769714,13.636895 151.140961,15.269835 147.606033,16.973263 
	C130.338318,25.294321 113.109215,33.757500 98.176018,45.990879 
	C90.119003,52.591244 82.440331,59.674206 74.901253,66.864769 
	C73.704086,68.006592 74.148285,70.869347 73.889832,73.340385 
	C73.854065,74.820869 73.762108,75.897438 73.339508,77.093781 
	C72.341080,79.526772 71.130928,81.831772 71.095848,84.154533 
	C70.905327,96.769073 70.873116,109.390602 71.122192,122.003090 
	C71.168747,124.360138 72.742989,126.687004 73.722412,129.436920 
	C73.826981,131.254501 73.821342,132.662979 73.605438,134.290222 
	C73.275841,135.302078 73.156502,136.095169 72.596848,136.912323 
	C70.099113,136.940887 68.041702,136.945374 65.989975,136.574249 
	C65.435936,134.792145 64.876213,133.385696 64.218857,131.567368 
	C64.137817,129.747971 64.154404,128.340439 64.415878,126.609245 
	C66.300430,111.529129 65.278465,82.999107 62.966129,80.359718 
	C62.545315,80.550560 61.954285,80.631454 61.689575,80.968567 
	C59.750954,83.437454 57.916992,85.988548 55.977737,88.456924 
	C39.271889,109.720901 27.672844,133.653793 19.267868,159.203552 
	C18.159077,162.574097 18.302820,166.356689 17.892973,170.291748 
	C17.810917,171.078384 17.702353,171.521713 17.265163,172.052948 
	C16.570072,174.406616 16.203602,176.672348 15.875431,179.281769 
	C15.812042,180.072250 15.710352,180.519043 15.268131,181.058060 
	C11.864854,183.735687 12.707676,186.815918 13.878276,190.311417 
	C13.828370,191.450653 13.715491,192.208145 13.253220,193.063141 
	C9.352659,197.502945 10.964290,202.247971 11.889967,207.380646 
	C11.836989,210.206375 11.723452,212.586227 11.258637,215.063324 
	C10.312872,215.894974 9.228567,216.613144 9.203657,217.366364 
	C9.046034,222.132675 8.961540,226.916168 9.238246,231.671555 
	C9.305786,232.832306 10.811859,233.909363 11.765841,235.458191 
	C11.869673,238.279648 11.864189,240.667801 11.610102,243.371262 
	C11.519444,248.236435 8.910755,253.260757 13.760819,257.393677 
	C13.865917,258.527802 13.859126,259.293365 13.611523,260.354340 
	C13.311921,263.665863 11.285074,267.216858 15.752771,269.358612 
	C15.860465,270.141632 15.863841,270.597260 15.625380,271.337952 
	C16.068628,275.928833 16.194284,280.419983 17.547491,284.504456 
	C21.093266,295.206940 24.689598,305.943268 29.186195,316.265137 
	C33.260445,325.617523 38.381844,334.534943 43.394932,343.445312 
	C45.096867,346.470367 47.858627,347.756775 50.361656,343.278198 
	C51.146736,343.163788 51.605080,343.162994 52.349651,343.396301 
	C55.400330,343.867584 58.554386,345.390350 60.361259,341.275787 
	C61.146748,341.162964 61.605122,341.162720 62.338982,341.393677 
	C65.164337,342.070648 67.867218,342.959167 69.359505,339.288666 
	C70.141151,339.158569 70.598404,339.145752 71.329681,339.371735 
	C72.738014,339.669525 73.982277,340.065186 74.989830,339.736115 
	C86.888901,335.849701 98.876564,332.183502 110.579468,327.766602 
	C117.698311,325.079803 124.363426,321.190826 131.580017,317.945801 
	C132.625870,320.012848 133.324097,321.975983 133.843109,324.255402 
	C133.556549,324.697815 133.473846,324.889862 133.338287,324.940582 
	C117.949326,330.695709 102.533890,336.381256 87.183777,342.238037 
	C84.304176,343.336731 81.684769,345.117401 78.628174,346.707153 
	C77.860115,346.847778 77.409180,346.864594 76.702606,346.646149 
	C74.613625,347.139801 72.780273,347.868713 70.627846,348.716309 
	C69.857811,348.848145 69.406845,348.861267 68.683701,348.635101 
	C65.858536,347.970276 63.127686,347.025360 61.626953,350.725525 
	C60.853828,350.846252 60.401699,350.850891 59.660439,350.614014 
	C56.808605,350.911865 54.245899,351.451233 51.683193,351.990601 
	C52.448448,354.156281 53.181717,356.334167 53.999546,358.479797 
	C54.228439,359.080322 54.640549,359.646423 55.080486,360.125580 
	C59.343224,364.768402 63.629814,369.389313 68.163971,374.227356 
	C69.933311,376.014862 71.448273,377.591461 72.971504,379.520203 
	C75.259758,381.928009 77.539742,383.983643 80.088287,386.238464 
	C81.895470,388.010803 83.434090,389.583954 85.018715,391.487793 
	C90.160019,395.869110 94.742409,401.121704 100.515053,403.585052 
	C105.024742,405.509491 111.020508,404.133942 116.336433,403.854126 
	C117.614639,403.786865 118.815521,402.250488 120.454727,401.265625 
	C122.258278,401.152039 123.659081,401.162537 125.377762,401.416962 
	C127.636024,401.772369 129.653900,402.268555 131.497009,401.897247 
	C133.758469,401.441620 135.873795,400.260742 138.375137,399.277710 
	C139.152130,399.166504 139.606308,399.171051 140.364731,399.414368 
	C143.930313,399.452972 147.858353,402.017151 150.373001,397.274200 
	C151.146118,397.153656 151.598206,397.149048 152.334534,397.383789 
	C155.394958,397.873596 158.544769,399.368927 160.370789,395.273712 
	C161.139420,395.141296 161.589508,395.127289 162.321793,395.360046 
	C167.620773,395.906158 172.288284,395.091125 176.368622,391.272461 
	C177.133423,391.130310 177.581589,391.107910 178.286102,391.330902 
	C182.046478,390.189819 185.550552,388.803345 189.371002,387.293030 
	C190.137558,387.148346 190.587738,387.127472 191.282257,387.342407 
	C198.092346,385.439056 204.693985,383.399811 211.190369,381.067474 
	C212.343765,380.653381 213.059433,379.020050 214.079254,377.703552 
	C214.305893,377.330719 214.430511,377.204102 214.801361,377.070007 
	C215.382324,377.062805 215.717041,377.063110 216.043320,377.470337 
	C217.027771,380.875519 218.020645,383.873749 218.626007,386.953796 
	C216.967422,387.360901 215.638702,387.543976 214.433807,388.032440 
	C188.289459,398.632141 161.387512,406.313873 133.251282,409.330536 
	C127.041718,409.996307 120.854462,410.870056 114.656937,411.648010 
	C114.554466,412.092560 114.452003,412.537109 114.349533,412.981659 
	C148.614349,435.691101 186.738937,447.059967 227.697952,448.620026 
	C270.600250,450.254059 339.296265,431.081818 350.237427,415.427277 
	C345.269562,414.704681 340.370667,413.865509 335.440582,413.296844 
	C313.366608,410.750580 291.962189,405.457916 271.070923,397.946106 
	C263.449707,395.205719 255.738663,392.715240 248.088242,389.761292 
	C250.089294,387.594696 252.070724,385.777557 254.455093,383.966370 
	C256.437927,384.339783 258.072937,384.554474 259.588074,385.101379 
	C265.894379,387.377716 272.108978,389.919739 278.462036,392.052032 
	C286.480804,394.743378 294.523499,397.436005 302.709015,399.529358 
	C307.293976,400.701965 312.188446,400.664398 317.281067,401.126892 
	C318.064117,401.155212 318.509583,401.228760 319.044800,401.651001 
	C321.728546,405.140991 324.818085,404.346100 328.339478,403.074249 
	C329.459381,403.151489 330.202850,403.265625 331.045746,403.730347 
	C335.148224,407.508301 339.572723,406.022095 344.343201,405.116638 
	C345.811249,405.163849 346.878265,405.272766 348.044220,405.734894 
	C352.381989,406.723572 356.601746,407.670258 360.863495,407.931519 
	C370.558533,408.525940 375.578918,401.421204 381.197968,394.935638 
	C381.632355,394.503448 381.894104,394.270020 382.506897,394.029358 
	C383.752411,393.648590 384.864899,393.497375 385.507507,392.867096 
	C391.618652,386.873383 397.693787,380.840820 403.653168,374.697144 
	C404.467896,373.857208 404.591309,372.346710 405.192505,370.943054 
	C405.594360,370.498352 405.838470,370.257294 406.420593,369.973083 
	C409.331329,367.232117 412.205536,364.751129 414.361938,361.753754 
	C415.621704,360.002655 415.734558,357.426483 416.363403,355.221497 
	C413.927399,355.091644 411.491394,354.961761 408.716339,354.865967 
	C407.936615,354.801117 407.495972,354.702209 406.960114,354.262482 
	C406.282990,353.368134 405.786194,352.491211 405.105713,352.312103 
	C399.443146,350.821564 393.652985,349.756531 388.080505,347.995880 
	C377.197632,344.557404 366.354675,340.959198 355.642120,337.026764 
	C348.266388,334.319183 341.137970,330.937775 333.922180,327.499756 
	C334.671631,325.412140 335.397919,323.682312 336.488098,321.973450 
	C351.197052,327.746979 365.489288,333.637726 379.925842,339.150757 
	C383.352875,340.459473 387.263306,340.502380 391.293579,341.100830 
	C392.077698,341.181976 392.519623,341.289764 393.053223,341.734222 
	C397.482574,344.282837 401.726044,346.920135 407.290741,345.092285 
	C408.076782,345.140045 408.522583,345.224609 409.059082,345.663574 
	C413.638641,346.861176 418.117859,347.766724 422.629517,348.461823 
	C423.143250,348.540985 423.994965,347.539337 424.425049,346.868958 
	C427.374451,342.271790 430.859894,337.897034 433.041992,332.951782 
	C439.848328,317.526489 446.382294,301.969086 452.493256,286.257294 
	C454.052521,282.248444 453.654633,277.478394 454.117737,272.715698 
	C454.180237,271.928162 454.280914,271.482941 454.719208,270.947876 
	C458.131134,268.626587 457.294891,265.859711 456.085419,262.666931 
	C456.156830,261.534424 456.269165,260.782349 456.710449,259.910767 
	C460.151947,256.148254 459.267090,252.117111 458.112671,247.647171 
	C458.158905,245.831375 458.270325,244.434509 458.733826,242.940460 
	C459.720001,241.443039 460.877502,240.052383 460.903198,238.641098 
	C461.069305,229.531509 461.130676,220.413269 460.866974,211.308273 
	C460.814789,209.506866 459.201508,207.750641 458.211487,205.563660 
	C458.121338,203.751785 458.127869,202.349854 458.382019,200.639832 
	C458.629150,196.392166 460.807709,192.014877 456.244049,188.642029 
	C456.145569,187.855438 456.150574,187.397964 456.392883,186.650620 
	C457.035828,183.237411 457.979309,179.964890 454.207642,177.644562 
	C454.117401,176.860229 454.123047,176.405121 454.361206,175.693115 
	C453.861664,173.611115 453.129578,171.786026 452.280518,169.638336 
	C452.151184,168.860794 452.138824,168.405869 452.366089,167.678024 
	C452.608459,166.111435 452.969879,164.689484 452.559937,163.543442 
	C446.819366,147.495102 442.006775,131.015915 432.903656,116.414619 
	C426.075317,105.462074 418.775269,94.798813 411.472046,84.153008 
	C410.524261,82.771439 408.300323,82.265343 406.667511,81.353729 
	C406.114655,83.140450 405.103302,84.921875 405.082581,86.714745 
	C404.938385,99.194855 404.969635,111.677505 405.032318,124.158890 
	C405.040314,125.753471 405.555450,127.345497 405.893860,129.361237 
	C405.915100,131.203339 405.878174,132.622940 405.652954,134.155670 
	C405.246490,134.475235 405.088470,134.720459 404.632324,134.924973 
	C401.871613,134.257111 399.469177,133.668732 397.096741,132.683914 
	C399.975281,123.980286 399.520477,115.538162 398.101501,106.591141 
	C398.082947,101.062027 398.120270,96.000717 398.403717,90.616699 
	C399.256439,79.583641 401.340698,68.471176 390.458832,60.950279 
	C388.829865,59.824451 387.256348,58.589500 385.795563,57.253685 
	C364.087860,37.403099 339.120880,22.945379 311.688477,12.636198 
	C310.538177,12.203913 307.374390,13.749362 307.417084,14.038914 
	C307.913727,17.406599 308.846985,20.709896 309.762238,24.471109 
	C309.854065,27.628174 309.848267,30.344376 309.596252,33.383339 
	C309.532227,40.790997 309.714355,47.875893 309.935516,55.416363 
	C309.875977,58.905186 309.777405,61.938435 309.347626,65.096489 
	C306.218597,70.625374 306.398956,76.238594 307.894073,82.319901 
	C307.868958,83.457024 307.792053,84.214737 307.384796,85.086105 
	C306.646698,88.778358 306.238922,92.356964 305.879608,96.315567 
	C305.828674,97.450058 305.729279,98.204552 305.293945,99.050247 
	C301.861725,101.362762 302.716400,104.135635 303.895569,107.289261 
	C303.841888,108.073326 303.760559,108.518089 303.330505,109.053612 
	C302.362366,109.868172 301.400696,110.499214 301.175537,111.329895 
	C298.416382,121.508957 296.358826,131.921371 292.939514,141.867691 
	C288.397339,155.080154 283.595459,168.317062 277.466370,180.839218 
	C270.954010,194.144409 262.740204,206.615128 255.322693,219.480972 
	C254.352570,221.163666 253.699341,223.029068 252.894318,224.857544 
	C252.889313,224.905212 252.793472,224.902252 252.486130,224.926025 
	C251.764832,224.970612 251.350861,224.991455 250.582428,224.959991 
	C246.477371,223.107224 242.726776,221.306763 239.339767,219.423996 
	C242.990646,220.619324 245.224213,219.732269 247.091980,216.577515 
	C252.745880,207.027908 258.985687,197.813599 264.386353,188.128052 
	C275.739258,167.767761 284.505371,146.256485 289.962067,123.598724 
	C293.601501,108.486694 297.276245,93.170204 298.531342,77.749565 
	C300.185303,57.428192 299.498413,36.915150 299.752716,16.483698 
	C299.768799,15.190845 299.500397,13.728620 298.864471,12.636143 
	C298.097839,11.319160 296.976624,9.622649 295.696655,9.289329 
	C289.305481,7.624924 282.829773,6.264682 276.349609,4.968143 
	C269.252533,3.548172 262.118134,2.314732 255.000000,1.000000 
z"/>
<path fill="#66BCE7" opacity="1.000000" stroke="none" 
	d="
M254.531342,1.000000 
	C262.118134,2.314732 269.252533,3.548172 276.349609,4.968143 
	C282.829773,6.264682 289.305481,7.624924 295.696655,9.289329 
	C296.976624,9.622649 298.097839,11.319160 298.864471,12.636143 
	C299.500397,13.728620 299.768799,15.190845 299.752716,16.483698 
	C299.498413,36.915150 300.185303,57.428192 298.531342,77.749565 
	C297.276245,93.170204 293.601501,108.486694 289.962067,123.598724 
	C284.505371,146.256485 275.739258,167.767761 264.386353,188.128052 
	C258.985687,197.813599 252.745880,207.027908 247.091980,216.577515 
	C245.224213,219.732269 242.990646,220.619324 238.917786,219.282837 
	C234.098206,219.936234 230.064163,220.648499 226.030121,221.360748 
	C224.074219,219.647217 221.587784,218.272430 220.244110,216.167999 
	C206.112030,194.034637 193.459991,171.059784 186.065521,145.753632 
	C180.690811,127.359688 175.394562,108.738586 172.610367,89.843468 
	C169.104706,66.052124 168.418686,41.923595 171.500122,17.798807 
	C172.264847,11.811682 173.831573,8.882592 179.789093,7.958372 
	C188.777542,6.563947 197.684662,4.648340 206.632050,2.984841 
	C209.554642,2.441469 212.494995,1.993516 215.713608,1.250961 
	C228.687561,1.000000 241.375122,1.000000 254.531342,1.000000 
z"/>
<path fill="#56ADDE" opacity="1.000000" stroke="none" 
	d="
M309.678833,64.971680 
	C309.777405,61.938435 309.875977,58.905186 310.211548,55.110767 
	C310.246521,47.253254 310.044464,40.156918 309.842438,33.060577 
	C309.848267,30.344376 309.854065,27.628174 309.864136,24.028706 
	C309.868408,20.559444 309.868408,17.973450 309.868408,15.229907 
	C311.298706,15.229907 312.003571,15.049566 312.566956,15.255738 
	C343.236511,26.479246 369.997192,43.875839 393.163757,66.790390 
	C394.934113,68.541542 395.647858,71.719543 396.106262,74.363731 
	C397.056152,79.842827 397.503571,85.409019 398.157593,90.939400 
	C398.120270,96.000717 398.082947,101.062027 397.839539,106.901054 
	C397.113647,114.396194 396.445740,121.106766 396.133728,127.833832 
	C395.966705,131.435226 395.469971,134.211456 391.267212,135.274445 
	C389.620758,135.690872 388.364075,137.648407 386.657776,139.054962 
	C385.573456,140.133438 384.761261,141.060989 383.611908,142.068649 
	C379.424133,146.854355 377.956604,152.036285 380.116852,158.275467 
	C380.206696,159.039200 380.297424,159.470978 380.310913,160.254883 
	C382.167389,163.347031 384.101105,166.087067 386.295410,168.992706 
	C387.117035,169.747131 387.678131,170.335983 388.178009,171.344879 
	C386.179352,178.940887 384.501617,186.199051 382.260681,193.278946 
	C371.024475,228.777740 353.151825,260.702454 329.939789,289.723053 
	C327.772552,292.432648 325.425781,293.768829 321.758575,292.729980 
	C320.037476,292.242401 317.971069,292.973907 315.727448,293.130585 
	C314.954224,293.175781 314.514648,293.243317 313.711792,293.213989 
	C311.165680,294.344818 308.982849,295.572510 306.449524,296.883789 
	C305.129242,297.640778 304.159454,298.314178 302.867004,298.743927 
	C299.001740,296.361481 295.459198,294.222656 291.783813,291.776978 
	C277.784515,278.919037 263.918030,266.367950 250.295959,253.530273 
	C251.750412,250.546570 252.960495,247.849457 254.424286,245.078552 
	C254.791336,244.345535 254.904663,243.686310 255.104492,242.591827 
	C255.126633,240.094238 255.062256,238.031860 255.219727,235.815063 
	C255.009201,234.774475 254.576843,233.888321 254.111572,232.639099 
	C253.349319,230.510010 252.619995,228.743988 252.129700,226.794434 
	C252.510315,226.041336 252.651901,225.471802 252.793472,224.902252 
	C252.793472,224.902252 252.889313,224.905212 253.213806,224.761719 
	C254.298828,223.743179 255.153687,222.932968 255.806107,221.983612 
	C273.166779,196.721878 286.760040,169.572571 295.849457,140.293564 
	C299.036011,130.029007 301.101746,119.416489 303.679260,108.962860 
	C303.760559,108.518089 303.841888,108.073326 304.155090,107.033142 
	C304.801300,103.944824 305.215576,101.451935 305.629883,98.959045 
	C305.729279,98.204552 305.828674,97.450058 306.143738,96.051559 
	C306.811310,91.929199 307.263214,88.450829 307.715149,84.972450 
	C307.792053,84.214737 307.868958,83.457024 308.153809,82.036911 
	C308.800751,75.906906 309.239777,70.439293 309.678833,64.971680 
z"/>
<path fill="#56ADDE" opacity="1.000000" stroke="none" 
	d="
M73.815704,134.071442 
	C73.821342,132.662979 73.826981,131.254501 73.834496,128.977478 
	C73.835838,126.282227 73.886963,124.453835 73.825951,122.629181 
	C73.538025,114.018387 73.034492,105.409966 72.971657,96.798050 
	C72.923462,90.192085 73.417351,83.582161 73.670151,76.973999 
	C73.762108,75.897438 73.854065,74.820869 74.134796,73.102112 
	C75.830772,70.121414 76.987534,67.437599 78.899162,65.497612 
	C98.984871,45.113953 122.699226,30.105682 148.858536,18.802328 
	C152.565125,17.200729 156.389618,15.871974 160.330002,14.351135 
	C160.330002,23.254862 160.330002,31.138536 160.330002,39.022213 
	C160.273621,45.371021 160.217239,51.719833 160.162079,58.980698 
	C160.812332,66.913712 161.461365,73.934669 162.110382,80.955627 
	C162.110703,82.032585 162.111038,83.109543 162.115158,85.016098 
	C162.792068,89.545341 163.465179,93.244972 164.138290,96.944611 
	C164.134750,97.399879 164.131210,97.855156 164.125977,99.058655 
	C164.813538,102.845642 165.502808,105.884392 166.192093,108.923134 
	C166.192123,109.381554 166.192139,109.839966 166.186401,111.032249 
	C170.487411,127.072784 174.121613,142.609238 179.254654,157.633606 
	C187.464813,181.664810 199.553513,203.843887 213.837006,224.854843 
	C215.276978,226.973038 215.888290,230.578964 215.207581,233.028595 
	C213.622711,238.731949 214.558502,243.792816 216.678696,249.034821 
	C217.194839,250.310944 216.912064,252.692368 216.016876,253.640350 
	C201.580658,268.927917 185.863632,282.763123 168.230453,294.278595 
	C166.701904,295.276825 164.041931,294.788696 161.939941,294.609863 
	C157.968109,294.272003 154.019867,293.656830 149.728119,293.135498 
	C148.957581,293.195709 148.520767,293.277313 147.697388,293.262939 
	C142.921890,295.081757 139.830322,293.792969 137.427475,289.665405 
	C136.391144,287.885193 134.465866,286.622467 132.947006,285.082947 
	C132.949585,285.041199 132.866257,285.048126 132.830002,284.700043 
	C132.168991,283.186279 131.689346,281.910034 130.897964,280.871307 
	C116.294098,261.702911 105.043945,240.649536 95.873795,218.444397 
	C92.403046,210.040146 89.224380,201.515289 85.929688,192.694702 
	C85.836769,191.891052 85.726753,191.438126 85.685272,190.611343 
	C84.473503,186.507126 83.193199,182.776733 81.933273,178.698471 
	C81.856522,177.898163 81.759392,177.445724 81.753075,176.603821 
	C81.895370,175.153061 81.946854,174.091766 82.173889,172.750946 
	C83.940002,171.021011 85.530579,169.570602 87.453201,168.014282 
	C92.467224,161.658569 93.275276,151.445999 88.042038,146.553940 
	C85.328743,143.790222 82.697266,141.353653 79.962517,138.600800 
	C77.844734,136.880157 75.830215,135.475800 73.815704,134.071442 
z"/>
<path fill="#4597D0" opacity="1.000000" stroke="none" 
	d="
M454.381592,271.037750 
	C454.280914,271.482941 454.180237,271.928162 453.865967,272.979248 
	C453.165955,274.994019 452.542328,276.371674 452.213745,277.816467 
	C447.135345,300.144958 438.297119,320.930359 426.438751,340.456696 
	C421.996643,347.771240 421.896698,347.664490 413.860901,345.751129 
	C412.284363,345.375763 410.601959,345.445007 408.968384,345.309174 
	C408.522583,345.224609 408.076782,345.140045 407.043579,344.822662 
	C401.957977,343.525787 397.459778,342.461700 392.961548,341.397583 
	C392.519623,341.289764 392.077698,341.181976 391.059875,340.829529 
	C389.097626,340.059998 387.706940,339.546234 386.325653,339.008423 
	C371.351776,333.178192 356.358643,327.395966 341.438812,321.430573 
	C339.957153,320.838135 338.924866,319.121796 337.761536,317.603271 
	C337.843689,316.836945 337.848297,316.394409 338.087891,315.660400 
	C337.599731,311.197784 336.742981,307.043335 336.218170,302.847382 
	C336.003815,301.133514 335.846802,298.786560 336.782837,297.646790 
	C357.200623,272.785217 373.578125,245.488556 385.309692,215.580597 
	C390.440491,202.500290 393.946198,188.782532 398.602386,175.274857 
	C411.132477,174.043732 418.598053,167.761887 420.287231,157.296051 
	C421.929474,147.120819 416.702637,138.707245 405.841248,134.042526 
	C405.878174,132.622940 405.915100,131.203339 406.151520,129.067230 
	C407.117554,114.057877 407.884094,99.765060 408.650604,85.472244 
	C409.053345,85.106148 409.456055,84.740051 409.858765,84.373955 
	C410.466614,85.513161 410.914581,86.779823 411.706024,87.772682 
	C426.841644,106.760048 438.095978,127.858253 446.089050,150.741913 
	C448.093689,156.481003 450.113617,162.214752 452.126495,167.950943 
	C452.138824,168.405869 452.151184,168.860794 452.183563,170.000702 
	C452.845306,172.440475 453.487030,174.195236 454.128723,175.950012 
	C454.123047,176.405121 454.117401,176.860229 454.118896,178.045868 
	C454.802582,181.497772 455.479065,184.219131 456.155579,186.940491 
	C456.150574,187.397964 456.145569,187.855438 456.144043,189.069366 
	C456.809814,193.533173 457.472107,197.240540 458.134399,200.947906 
	C458.127869,202.349854 458.121338,203.751785 458.119141,206.026489 
	C458.209564,218.945374 458.295624,230.991516 458.381714,243.037659 
	C458.270325,244.434509 458.158905,245.831375 457.862549,247.932068 
	C457.245575,252.434036 456.813568,256.232147 456.381531,260.030243 
	C456.269165,260.782349 456.156830,261.534424 455.830383,262.929504 
	C455.204773,266.060913 454.793213,268.549316 454.381592,271.037750 
z"/>
<path fill="#4697D0" opacity="1.000000" stroke="none" 
	d="
M52.063423,343.162231 
	C51.605080,343.162994 51.146736,343.163788 49.976692,343.179321 
	C47.329872,341.938263 44.660038,341.132141 43.573532,339.356964 
	C32.948620,321.997345 25.011919,303.450104 19.762125,283.760834 
	C18.621473,279.482819 17.173594,275.286743 15.867216,271.052917 
	C15.863841,270.597260 15.860465,270.141632 15.847366,268.952423 
	C15.175874,265.498901 14.514103,262.778931 13.852333,260.058960 
	C13.859126,259.293365 13.865917,258.527802 13.859621,256.956726 
	C13.183925,251.786133 12.521316,247.421051 11.858707,243.055969 
	C11.864189,240.667801 11.869673,238.279648 11.863050,234.996475 
	C11.770601,227.723007 11.690257,221.344528 11.609913,214.966064 
	C11.723452,212.586227 11.836989,210.206375 12.145515,207.092438 
	C12.761206,201.894104 13.181909,197.429871 13.602612,192.965652 
	C13.715491,192.208145 13.828370,191.450653 14.124467,190.037689 
	C14.741343,186.576752 15.175001,183.771301 15.608660,180.965836 
	C15.710352,180.519043 15.812042,180.072250 16.124317,179.024612 
	C16.754530,176.270859 17.174158,174.117935 17.593788,171.965027 
	C17.702353,171.521713 17.810917,171.078384 18.160152,170.047302 
	C18.764280,168.716187 19.277433,168.009430 19.469515,167.224152 
	C25.980051,140.606934 38.072151,116.611130 53.760273,94.321533 
	C56.139557,90.941071 58.891426,87.822838 62.132099,83.753021 
	C62.750816,85.823959 63.091896,86.414719 63.076199,86.995850 
	C62.848179,95.437973 62.306751,103.882065 62.409931,112.318718 
	C62.469585,117.196556 63.549992,122.061920 64.170998,126.932899 
	C64.154404,128.340439 64.137817,129.747971 64.124374,131.951691 
	C62.904900,134.680954 61.852734,136.753098 60.417431,138.512695 
	C58.530933,140.825409 56.342842,142.892120 54.160374,145.267761 
	C54.036304,145.470917 53.921627,145.932983 53.586285,146.038605 
	C48.524437,152.900192 48.796352,162.116867 53.952263,167.463562 
	C56.541111,169.992264 59.048038,172.196518 61.771690,174.679901 
	C64.352921,175.498291 66.717422,176.037537 69.405060,176.684631 
	C70.397560,176.919952 71.066925,177.047424 71.790161,177.580383 
	C73.393593,184.074005 74.628929,190.263016 76.544975,196.233551 
	C87.070122,229.030762 102.366615,259.460297 122.571320,287.367981 
	C126.036819,292.154663 130.141113,296.478882 133.942474,301.420959 
	C133.393967,306.243256 132.853333,310.661316 132.198883,315.365967 
	C131.758972,316.170532 131.432907,316.688507 130.731445,317.146729 
	C129.870148,317.183716 129.356674,317.209930 128.902344,317.387482 
	C115.213264,322.736450 101.558167,328.173859 87.832108,333.425903 
	C82.319191,335.535309 76.652412,337.242615 71.055649,339.132935 
	C70.598404,339.145752 70.141151,339.158569 68.985626,339.192322 
	C66.212738,339.863037 64.138123,340.512756 62.063499,341.162476 
	C61.605122,341.162720 61.146748,341.162964 59.975132,341.184998 
	C56.862400,341.858582 54.462914,342.510406 52.063423,343.162231 
z"/>
<path fill="#326FA9" opacity="1.000000" stroke="none" 
	d="
M248.068604,390.110718 
	C255.738663,392.715240 263.449707,395.205719 271.070923,397.946106 
	C291.962189,405.457916 313.366608,410.750580 335.440582,413.296844 
	C340.370667,413.865509 345.269562,414.704681 350.237427,415.427277 
	C339.296265,431.081818 270.600250,450.254059 227.697952,448.620026 
	C186.738937,447.059967 148.614349,435.691101 114.349533,412.981659 
	C114.452003,412.537109 114.554466,412.092560 114.656937,411.648010 
	C120.854462,410.870056 127.041718,409.996307 133.251282,409.330536 
	C161.387512,406.313873 188.289459,398.632141 214.433807,388.032440 
	C215.638702,387.543976 216.967422,387.360901 218.845551,387.217102 
	C222.296539,389.302948 225.140457,391.207275 228.137924,393.377991 
	C228.858994,393.738342 229.426514,393.832336 230.345444,394.134583 
	C237.252182,396.071198 242.965790,394.344513 248.068604,390.110718 
z"/>
<path fill="#3D86C3" opacity="1.000000" stroke="none" 
	d="
M330.946350,403.379761 
	C330.202850,403.265625 329.459381,403.151489 328.074982,402.818176 
	C324.607727,402.166779 321.781403,401.734528 318.955048,401.302307 
	C318.509583,401.228760 318.064117,401.155212 317.009216,400.879089 
	C314.985077,400.200012 313.603271,399.551270 312.150574,399.273315 
	C294.483856,395.892853 277.447021,390.468231 260.970886,383.317413 
	C258.985382,382.455688 255.955475,380.137329 256.127563,378.860413 
	C256.751038,374.234467 253.470230,369.085419 259.473083,364.984253 
	C274.109222,354.984833 288.228973,344.215820 302.332672,333.462921 
	C305.096405,331.355774 306.977081,330.700928 310.240295,332.263763 
	C317.166626,335.580994 325.973419,333.859497 331.322632,328.797729 
	C332.459167,328.757965 333.216309,328.714264 334.126221,329.002594 
	C334.639801,329.674805 334.941620,330.164337 335.369965,330.333496 
	C350.919128,336.474945 366.348389,342.957489 382.094238,348.547760 
	C390.119629,351.397064 398.716644,352.636322 407.055298,354.603333 
	C407.495972,354.702209 407.936615,354.801117 408.966370,355.104553 
	C411.031525,355.976746 412.507568,356.644379 414.462769,357.528748 
	C411.498901,361.945312 408.790771,365.980804 406.082642,370.016235 
	C405.838470,370.257294 405.594360,370.498352 404.873535,371.026855 
	C396.983185,378.888428 389.569519,386.462524 382.155884,394.036621 
	C381.894104,394.270020 381.632355,394.503448 380.854797,394.939514 
	C377.869385,397.036896 375.328064,398.846313 372.946442,400.845886 
	C369.113159,404.064178 365.457855,406.823669 359.736176,405.487030 
	C356.001495,404.614594 351.888672,405.360657 347.945251,405.381714 
	C346.878265,405.272766 345.811249,405.163849 344.045471,404.874756 
	C339.213226,404.256317 335.079803,403.818054 330.946350,403.379761 
z"/>
<path fill="#3D86C3" opacity="1.000000" stroke="none" 
	d="
M72.963226,379.168060 
	C71.448273,377.591461 69.933311,376.014862 68.148514,373.884277 
	C62.999119,367.045563 58.119579,360.760803 52.933666,354.081451 
	C55.881466,352.726044 57.915516,351.790771 59.949566,350.855530 
	C60.401699,350.850891 60.853828,350.846252 62.002731,350.822205 
	C64.784966,350.159973 66.870430,349.517181 68.955887,348.874390 
	C69.406845,348.861267 69.857811,348.848145 70.989807,348.817108 
	C73.433304,348.159912 75.195770,347.520660 76.958237,346.881409 
	C77.409180,346.864594 77.860115,346.847778 79.009521,346.797638 
	C95.173615,341.261963 110.768570,336.088531 126.037560,330.085938 
	C131.687820,327.864685 136.578491,325.636139 141.983917,330.328217 
	C142.128906,330.453308 142.498276,330.554413 142.676880,330.802948 
	C143.598785,331.255432 144.342117,331.459412 145.436417,331.898743 
	C151.239838,331.905762 156.692276,331.677399 162.226028,331.771545 
	C162.883530,332.372314 163.459732,332.650543 164.021637,332.960388 
	C164.007339,332.991943 164.071869,332.966614 164.118500,333.270233 
	C164.788742,334.011902 165.412338,334.449982 166.150085,335.133545 
	C166.564774,335.566101 166.865326,335.753174 167.268463,336.250061 
	C169.248703,338.011047 171.126358,339.462280 173.168198,341.113831 
	C173.592987,341.540009 173.853592,341.765808 174.236099,342.296143 
	C187.761353,352.301544 201.164703,362.002441 214.503021,372.147797 
	C214.477036,374.087341 214.516083,375.582428 214.555115,377.077515 
	C214.430511,377.204102 214.305893,377.330719 213.712067,377.759705 
	C212.473907,378.359161 211.699631,378.643280 210.936798,378.955414 
	C204.302643,381.669586 197.670593,384.388855 191.037918,387.106598 
	C190.587738,387.127472 190.137558,387.148346 188.999359,387.201721 
	C184.884155,388.517944 181.456970,389.801727 178.029770,391.085510 
	C177.581589,391.107910 177.133423,391.130310 175.984253,391.182434 
	C170.868713,392.512512 166.454147,393.812897 162.039581,395.113281 
	C161.589508,395.127289 161.139420,395.141296 159.978760,395.176941 
	C156.862228,395.847229 154.456268,396.495850 152.050308,397.144470 
	C151.598206,397.149048 151.146118,397.153656 149.964905,397.178314 
	C146.177353,397.857422 143.118912,398.516510 140.060471,399.175598 
	C139.606308,399.171051 139.152130,399.166504 137.939392,399.172485 
	C133.140503,399.846344 129.100189,400.509705 125.059883,401.173065 
	C123.659081,401.162537 122.258278,401.152039 119.992218,401.159241 
	C113.676765,401.222321 108.188675,401.667664 102.791245,401.156281 
	C99.774071,400.870392 96.717209,399.323273 94.022003,397.754059 
	C90.813080,395.885712 87.972740,393.384277 84.972702,391.157135 
	C83.434090,389.583954 81.895470,388.010803 80.005157,385.923981 
	C77.423386,383.329590 75.193306,381.248840 72.963226,379.168060 
z"/>
<path fill="#FEFFFF" opacity="1.000000" stroke="none" 
	d="
M254.997879,235.969498 
	C255.062256,238.031860 255.126633,240.094238 254.839218,242.760773 
	C254.381805,243.960739 254.276199,244.556549 254.170563,245.152344 
	C252.960495,247.849457 251.750412,250.546570 250.240143,253.553894 
	C249.939972,253.864075 249.861588,253.964905 249.534149,254.018280 
	C247.464188,255.698090 245.721695,257.324554 243.611404,258.952454 
	C242.758514,259.020264 242.273407,259.086548 241.339264,259.133820 
	C236.946991,258.956055 233.003738,258.797272 228.999680,258.326599 
	C226.870529,257.102081 223.949631,256.751038 222.904617,255.164413 
	C220.442612,251.426331 217.722595,247.229752 217.240311,242.976746 
	C216.650543,237.775894 218.240311,232.327911 218.887634,226.986786 
	C221.207916,225.310532 223.528198,223.634247 225.939301,221.659363 
	C230.064163,220.648499 234.098206,219.936234 238.554214,219.365128 
	C242.726776,221.306763 246.477371,223.107224 250.617401,225.245209 
	C251.301453,226.047791 251.596054,226.512878 251.890656,226.977966 
	C252.619995,228.743988 253.349319,230.510010 253.871643,232.797394 
	C254.109070,234.202332 254.553467,235.085922 254.997879,235.969498 
z"/>
<path fill="#FEFEFF" opacity="1.000000" stroke="none" 
	d="
M142.498276,330.554413 
	C142.498276,330.554413 142.128906,330.453308 141.986572,329.977478 
	C139.236923,327.647430 136.629623,325.793274 134.022308,323.939087 
	C133.324097,321.975983 132.625870,320.012848 131.551392,317.786743 
	C131.175140,317.523773 131.106827,317.206482 131.106827,317.206482 
	C131.432907,316.688507 131.758972,316.170532 132.482025,315.281403 
	C133.884781,310.273102 134.890549,305.635925 136.112610,300.743225 
	C137.212448,299.294281 138.096008,298.100922 139.370117,296.922607 
	C142.535095,295.744751 145.309525,294.551819 148.083954,293.358887 
	C148.520767,293.277313 148.957581,293.195709 150.021896,293.371552 
	C155.297287,295.084076 160.241821,295.976379 164.479446,298.209869 
	C166.937576,299.505493 169.004150,302.713593 169.914078,305.496796 
	C171.206436,309.449738 171.271561,313.803925 171.876694,318.360779 
	C171.152756,320.845825 170.413208,322.956757 169.466644,325.237854 
	C169.146561,325.925537 169.033508,326.442993 168.596497,327.012085 
	C166.838135,328.342194 165.403717,329.620697 163.720505,330.906372 
	C163.029388,331.092010 162.587051,331.270508 162.144714,331.449036 
	C156.692276,331.677399 151.239838,331.905762 145.331512,331.585205 
	C144.083176,330.875641 143.290726,330.715027 142.498276,330.554413 
z"/>
<path fill="#FCFEFE" opacity="1.000000" stroke="none" 
	d="
M71.736298,177.174911 
	C71.066925,177.047424 70.397560,176.919952 69.270493,176.366333 
	C66.393524,175.427048 63.974243,174.913910 61.554966,174.400757 
	C59.048038,172.196518 56.541111,169.992264 53.970497,167.066162 
	C50.822075,159.538300 51.531700,152.735031 53.921627,145.932983 
	C53.921627,145.932983 54.036304,145.470917 54.482487,145.215485 
	C58.613880,142.289978 62.299091,139.619934 65.984299,136.949890 
	C68.041702,136.945374 70.099113,136.940887 72.951965,137.002823 
	C75.853546,137.685196 77.959663,138.301132 80.065788,138.917084 
	C82.697266,141.353653 85.328743,143.790222 88.035446,146.950623 
	C91.495148,154.669464 89.435677,161.401001 87.121147,168.120193 
	C85.530579,169.570602 83.940002,171.021011 81.835419,172.773804 
	C80.551147,174.051605 79.780884,175.027023 78.640427,176.158020 
	C76.092262,176.600693 73.914276,176.887802 71.736298,177.174911 
z"/>
<path fill="#FEFEFF" opacity="1.000000" stroke="none" 
	d="
M333.973450,328.670532 
	C333.216309,328.714264 332.459167,328.757965 331.092651,328.584442 
	C325.996918,329.594147 321.460510,331.935638 317.038116,331.737183 
	C312.541290,331.535400 307.842712,329.357727 303.863007,326.986877 
	C302.026886,325.893036 301.797211,322.227753 300.629639,319.830475 
	C300.097504,318.737915 299.057434,317.892792 298.165222,316.498596 
	C298.037354,313.398590 297.992065,310.735474 298.013184,307.732788 
	C298.061096,306.933167 298.042664,306.473114 298.356689,305.942871 
	C299.815735,303.932770 300.942383,301.992798 302.252319,299.966064 
	C302.686951,299.582062 302.938293,299.284790 303.189667,298.987549 
	C304.159454,298.314178 305.129242,297.640778 306.822388,296.915100 
	C309.722198,295.678802 311.898651,294.494812 314.075104,293.310822 
	C314.514648,293.243317 314.954224,293.175781 316.014526,293.365417 
	C317.446655,293.739105 318.269653,293.803284 319.067535,293.980377 
	C325.921173,295.502106 333.311584,296.210266 335.200226,305.037262 
	C335.983276,308.697113 336.962769,312.314941 337.852905,315.951874 
	C337.848297,316.394409 337.843689,316.836945 337.446899,317.715912 
	C336.744537,319.419037 336.434387,320.685760 336.124207,321.952454 
	C335.397919,323.682312 334.671631,325.412140 333.905823,327.707031 
	C333.866333,328.272034 333.973450,328.670563 333.973450,328.670532 
z"/>
<path fill="#FEFEFF" opacity="1.000000" stroke="none" 
	d="
M227.984375,393.111603 
	C225.140457,391.207275 222.296539,389.302948 219.233078,387.135315 
	C218.020645,383.873749 217.027771,380.875519 216.277557,377.164307 
	C217.089508,372.017975 217.658798,367.584595 218.455475,363.041138 
	C219.140625,362.457855 219.598389,361.984680 220.279190,361.274658 
	C221.330139,360.346497 222.158066,359.655151 223.365402,358.955933 
	C228.392227,357.951416 233.021729,356.239655 237.691147,356.122803 
	C245.017715,355.939453 252.247086,362.651581 253.172745,369.826447 
	C253.775436,374.497833 253.779770,379.246429 254.052155,383.960419 
	C252.070724,385.777557 250.089294,387.594696 248.088242,389.761292 
	C242.965790,394.344513 237.252182,396.071198 230.329529,393.850128 
	C229.302917,393.275452 228.643646,393.193512 227.984375,393.111603 
z"/>
<path fill="#D3DDE4" opacity="1.000000" stroke="none" 
	d="
M171.861069,317.986664 
	C171.271561,313.803925 171.206436,309.449738 169.914078,305.496796 
	C169.004150,302.713593 166.937576,299.505493 164.479446,298.209869 
	C160.241821,295.976379 155.297287,295.084076 150.355621,293.392944 
	C154.019867,293.656830 157.968109,294.272003 161.939941,294.609863 
	C164.041931,294.788696 166.701904,295.276825 168.230453,294.278595 
	C185.863632,282.763123 201.580658,268.927917 216.016876,253.640350 
	C216.912064,252.692368 217.194839,250.310944 216.678696,249.034821 
	C214.558502,243.792816 213.622711,238.731949 215.207581,233.028595 
	C215.888290,230.578964 215.276978,226.973038 213.837006,224.854843 
	C199.553513,203.843887 187.464813,181.664810 179.254654,157.633606 
	C174.121613,142.609238 170.487411,127.072784 166.279388,111.364845 
	C167.224869,111.856216 168.659912,112.647873 168.832993,113.656158 
	C174.195343,144.894699 186.664108,173.524658 201.408798,201.218048 
	C206.193787,210.205170 212.585236,218.336990 218.564758,226.923401 
	C218.240311,232.327911 216.650543,237.775894 217.240311,242.976746 
	C217.722595,247.229752 220.442612,251.426331 222.904617,255.164413 
	C223.949631,256.751038 226.870529,257.102081 228.623932,258.433350 
	C226.461029,259.782349 224.289291,260.360931 222.825363,261.708466 
	C218.293884,265.879578 214.318985,270.687073 209.607269,274.624359 
	C198.769135,283.681091 187.677536,292.438660 176.565979,301.161194 
	C173.647430,303.452271 171.391739,305.372772 172.518066,309.759491 
	C173.165085,312.279510 172.135757,315.229980 171.861069,317.986664 
z"/>
<path fill="#FEFEFF" opacity="1.000000" stroke="none" 
	d="
M388.239227,170.924835 
	C387.678131,170.335983 387.117035,169.747131 386.252716,168.653793 
	C384.095703,165.400467 382.241913,162.651611 380.388153,159.902756 
	C380.297424,159.470978 380.206696,159.039200 380.358765,157.968445 
	C381.717407,152.215836 382.833221,147.102188 383.949036,141.988525 
	C384.761261,141.060989 385.573456,140.133438 387.023926,139.051697 
	C390.797028,136.958466 393.931854,135.019409 397.066711,133.080353 
	C399.469177,133.668732 401.871613,134.257111 404.852844,135.175858 
	C407.220093,136.707352 409.003326,137.916443 410.797943,139.108337 
	C422.383209,146.802536 420.943695,164.673477 408.568634,170.363708 
	C405.199310,171.912979 401.540314,172.832321 397.623810,174.028870 
	C394.235291,172.986252 391.237274,171.955536 388.239227,170.924835 
z"/>
<path fill="#CBD6E1" opacity="1.000000" stroke="none" 
	d="
M254.455109,383.966370 
	C253.779770,379.246429 253.775436,374.497833 253.172745,369.826447 
	C252.247086,362.651581 245.017715,355.939453 237.691147,356.122803 
	C233.021729,356.239655 228.392227,357.951416 223.449478,358.620483 
	C230.104858,353.045654 237.546661,352.729095 245.043152,356.689575 
	C248.380798,358.452881 251.176910,358.784088 254.233566,356.503998 
	C267.397064,346.684753 280.547607,336.847473 293.779236,327.120636 
	C297.330292,324.510132 299.760162,321.651184 298.247772,316.935425 
	C299.057434,317.892792 300.097504,318.737915 300.629639,319.830475 
	C301.797211,322.227753 302.026886,325.893036 303.863007,326.986877 
	C307.842712,329.357727 312.541290,331.535400 317.038116,331.737183 
	C321.460510,331.935638 325.996918,329.594147 330.713257,328.580505 
	C325.973419,333.859497 317.166626,335.580994 310.240295,332.263763 
	C306.977081,330.700928 305.096405,331.355774 302.332672,333.462921 
	C288.228973,344.215820 274.109222,354.984833 259.473083,364.984253 
	C253.470230,369.085419 256.751038,374.234467 256.127563,378.860413 
	C255.955475,380.137329 258.985382,382.455688 260.970886,383.317413 
	C277.447021,390.468231 294.483856,395.892853 312.150574,399.273315 
	C313.603271,399.551270 314.985077,400.200012 316.671631,400.924316 
	C312.188446,400.664398 307.293976,400.701965 302.709015,399.529358 
	C294.523499,397.436005 286.480804,394.743378 278.462036,392.052032 
	C272.108978,389.919739 265.894379,387.377716 259.588074,385.101379 
	C258.072937,384.554474 256.437927,384.339783 254.455109,383.966370 
z"/>
<path fill="#D3DDE4" opacity="1.000000" stroke="none" 
	d="
M218.228088,363.151184 
	C217.658798,367.584595 217.089508,372.017975 216.285980,376.757385 
	C215.717041,377.063110 215.382324,377.062805 214.801376,377.070007 
	C214.516083,375.582428 214.477036,374.087341 214.600281,371.898193 
	C213.542007,369.956940 212.477661,368.488342 211.075348,367.498688 
	C202.551285,361.482819 193.957733,355.565125 185.371475,349.637756 
	C181.638550,347.060791 177.867783,344.538666 174.114197,341.991638 
	C173.853592,341.765808 173.592987,341.540009 173.120560,340.775391 
	C170.994446,338.804504 169.080154,337.372375 167.165878,335.940247 
	C166.865326,335.753174 166.564774,335.566101 166.087433,334.836121 
	C165.297714,333.850983 164.684799,333.408813 164.071869,332.966614 
	C164.071869,332.966614 164.007339,332.991943 164.012955,332.622986 
	C164.002151,331.802399 163.985733,331.350830 163.969299,330.899231 
	C165.403717,329.620697 166.838135,328.342194 168.901367,327.168121 
	C173.567902,330.892151 177.428879,334.738525 181.696045,338.063629 
	C185.509048,341.034821 189.770355,343.430664 193.885605,346.076538 
	C193.937363,346.072693 193.926926,346.175964 194.000549,346.504303 
	C202.125488,352.272156 210.176788,357.711670 218.228088,363.151184 
z"/>
<path fill="#D1DCE3" opacity="1.000000" stroke="none" 
	d="
M452.366089,167.678024 
	C450.113617,162.214752 448.093689,156.481003 446.089050,150.741913 
	C438.095978,127.858253 426.841644,106.760048 411.706024,87.772682 
	C410.914581,86.779823 410.466614,85.513161 409.858765,84.373955 
	C409.456055,84.740051 409.053345,85.106148 408.650604,85.472244 
	C407.884094,99.765060 407.117554,114.057877 406.093323,128.644699 
	C405.555450,127.345497 405.040314,125.753471 405.032318,124.158890 
	C404.969635,111.677505 404.938385,99.194855 405.082581,86.714745 
	C405.103302,84.921875 406.114655,83.140450 406.667511,81.353729 
	C408.300323,82.265343 410.524261,82.771439 411.472046,84.153008 
	C418.775269,94.798813 426.075317,105.462074 432.903656,116.414619 
	C442.006775,131.015915 446.819366,147.495102 452.559937,163.543442 
	C452.969879,164.689484 452.608459,166.111435 452.366089,167.678024 
z"/>
<path fill="#D3DCE3" opacity="1.000000" stroke="none" 
	d="
M64.415878,126.609245 
	C63.549992,122.061920 62.469585,117.196556 62.409931,112.318718 
	C62.306751,103.882065 62.848179,95.437973 63.076199,86.995850 
	C63.091896,86.414719 62.750816,85.823959 62.132099,83.753021 
	C58.891426,87.822838 56.139557,90.941071 53.760273,94.321533 
	C38.072151,116.611130 25.980051,140.606934 19.469515,167.224152 
	C19.277433,168.009430 18.764280,168.716187 18.133644,169.703995 
	C18.302820,166.356689 18.159077,162.574097 19.267868,159.203552 
	C27.672844,133.653793 39.271889,109.720901 55.977737,88.456924 
	C57.916992,85.988548 59.750954,83.437454 61.689575,80.968567 
	C61.954285,80.631454 62.545315,80.550560 62.966129,80.359718 
	C65.278465,82.999107 66.300430,111.529129 64.415878,126.609245 
z"/>
<path fill="#D1DCE3" opacity="1.000000" stroke="none" 
	d="
M398.403717,90.616699 
	C397.503571,85.409019 397.056152,79.842827 396.106262,74.363731 
	C395.647858,71.719543 394.934113,68.541542 393.163757,66.790390 
	C369.997192,43.875839 343.236511,26.479246 312.566956,15.255738 
	C312.003571,15.049566 311.298706,15.229907 309.868408,15.229907 
	C309.868408,17.973450 309.868408,20.559444 309.766479,23.587841 
	C308.846985,20.709896 307.913727,17.406599 307.417084,14.038914 
	C307.374390,13.749362 310.538177,12.203913 311.688477,12.636198 
	C339.120880,22.945379 364.087860,37.403099 385.795563,57.253685 
	C387.256348,58.589500 388.829865,59.824451 390.458832,60.950279 
	C401.340698,68.471176 399.256439,79.583641 398.403717,90.616699 
z"/>
<path fill="#D3DDE4" opacity="1.000000" stroke="none" 
	d="
M160.669006,38.885818 
	C160.330002,31.138536 160.330002,23.254862 160.330002,14.351135 
	C156.389618,15.871974 152.565125,17.200729 148.858536,18.802328 
	C122.699226,30.105682 98.984871,45.113953 78.899162,65.497612 
	C76.987534,67.437599 75.830772,70.121414 74.078598,72.698181 
	C74.148285,70.869347 73.704086,68.006592 74.901253,66.864769 
	C82.440331,59.674206 90.119003,52.591244 98.176018,45.990879 
	C113.109215,33.757500 130.338318,25.294321 147.606033,16.973263 
	C151.140961,15.269835 154.769714,13.636895 158.528076,12.594898 
	C159.699982,12.269996 162.748459,14.046976 162.719589,14.773625 
	C162.401657,22.775599 161.645432,30.760151 160.669006,38.885818 
z"/>
<path fill="#D1DCE3" opacity="1.000000" stroke="none" 
	d="
M303.330505,109.053612 
	C301.101746,119.416489 299.036011,130.029007 295.849457,140.293564 
	C286.760040,169.572571 273.166779,196.721878 255.806107,221.983612 
	C255.153687,222.932968 254.298828,223.743179 253.218811,224.714050 
	C253.699341,223.029068 254.352570,221.163666 255.322693,219.480972 
	C262.740204,206.615128 270.954010,194.144409 277.466370,180.839218 
	C283.595459,168.317062 288.397339,155.080154 292.939514,141.867691 
	C296.358826,131.921371 298.416382,121.508957 301.175537,111.329895 
	C301.400696,110.499214 302.362366,109.868172 303.330505,109.053612 
z"/>
<path fill="#D1DCE3" opacity="1.000000" stroke="none" 
	d="
M409.059082,345.663574 
	C410.601959,345.445007 412.284363,345.375763 413.860901,345.751129 
	C421.896698,347.664490 421.996643,347.771240 426.438751,340.456696 
	C438.297119,320.930359 447.135345,300.144958 452.213745,277.816467 
	C452.542328,276.371674 453.165955,274.994019 453.904144,273.321594 
	C453.654633,277.478394 454.052521,282.248444 452.493256,286.257294 
	C446.382294,301.969086 439.848328,317.526489 433.041992,332.951782 
	C430.859894,337.897034 427.374451,342.271790 424.425049,346.868958 
	C423.994965,347.539337 423.143250,348.540985 422.629517,348.461823 
	C418.117859,347.766724 413.638641,346.861176 409.059082,345.663574 
z"/>
<path fill="#D3DCE3" opacity="1.000000" stroke="none" 
	d="
M15.625380,271.337952 
	C17.173594,275.286743 18.621473,279.482819 19.762125,283.760834 
	C25.011919,303.450104 32.948620,321.997345 43.573532,339.356964 
	C44.660038,341.132141 47.329872,341.938263 49.649956,343.292969 
	C47.858627,347.756775 45.096867,346.470367 43.394932,343.445312 
	C38.381844,334.534943 33.260445,325.617523 29.186195,316.265137 
	C24.689598,305.943268 21.093266,295.206940 17.547491,284.504456 
	C16.194284,280.419983 16.068628,275.928833 15.625380,271.337952 
z"/>
<path fill="#CBD6E1" opacity="1.000000" stroke="none" 
	d="
M334.126221,329.002625 
	C333.973450,328.670563 333.866333,328.272034 333.882690,328.064789 
	C341.137970,330.937775 348.266388,334.319183 355.642120,337.026764 
	C366.354675,340.959198 377.197632,344.557404 388.080505,347.995880 
	C393.652985,349.756531 399.443146,350.821564 405.105713,352.312103 
	C405.786194,352.491211 406.282990,353.368134 406.960114,354.262482 
	C398.716644,352.636322 390.119629,351.397064 382.094238,348.547760 
	C366.348389,342.957489 350.919128,336.474945 335.369965,330.333496 
	C334.941620,330.164337 334.639801,329.674805 334.126221,329.002625 
z"/>
<path fill="#CCD7E1" opacity="1.000000" stroke="none" 
	d="
M133.843109,324.255402 
	C136.629623,325.793274 139.236923,327.647430 141.841583,329.852356 
	C136.578491,325.636139 131.687820,327.864685 126.037560,330.085938 
	C110.768570,336.088531 95.173615,341.261963 79.326637,346.673828 
	C81.684769,345.117401 84.304176,343.336731 87.183777,342.238037 
	C102.533890,336.381256 117.949326,330.695709 133.338287,324.940582 
	C133.473846,324.889862 133.556549,324.697815 133.843109,324.255402 
z"/>
<path fill="#D3DCE3" opacity="1.000000" stroke="none" 
	d="
M130.731445,317.146729 
	C131.106827,317.206482 131.175140,317.523773 131.203751,317.682831 
	C124.363426,321.190826 117.698311,325.079803 110.579468,327.766602 
	C98.876564,332.183502 86.888901,335.849701 74.989830,339.736115 
	C73.982277,340.065186 72.738014,339.669525 71.329689,339.371765 
	C76.652412,337.242615 82.319191,335.535309 87.832108,333.425903 
	C101.558167,328.173859 115.213264,322.736450 128.902344,317.387482 
	C129.356674,317.209930 129.870148,317.183716 130.731445,317.146729 
z"/>
<path fill="#D1DCE3" opacity="1.000000" stroke="none" 
	d="
M336.488098,321.973450 
	C336.434387,320.685760 336.744537,319.419037 337.369354,318.039734 
	C338.924866,319.121796 339.957153,320.838135 341.438812,321.430573 
	C356.358643,327.395966 371.351776,333.178192 386.325653,339.008423 
	C387.706940,339.546234 389.097626,340.059998 390.717651,340.856232 
	C387.263306,340.502380 383.352875,340.459473 379.925842,339.150757 
	C365.489288,333.637726 351.197052,327.746979 336.488098,321.973450 
z"/>
<path fill="#D3DDE4" opacity="1.000000" stroke="none" 
	d="
M73.339500,77.093781 
	C73.417351,83.582161 72.923462,90.192085 72.971657,96.798050 
	C73.034492,105.409966 73.538025,114.018387 73.825951,122.629181 
	C73.886963,124.453835 73.835838,126.282227 73.724304,128.568359 
	C72.742989,126.687004 71.168747,124.360138 71.122192,122.003090 
	C70.873116,109.390602 70.905327,96.769073 71.095848,84.154533 
	C71.130928,81.831772 72.341080,79.526772 73.339500,77.093781 
z"/>
<path fill="#C4E1F1" opacity="1.000000" stroke="none" 
	d="
M398.014282,174.040787 
	C401.540314,172.832321 405.199310,171.912979 408.568634,170.363708 
	C420.943695,164.673477 422.383209,146.802536 410.797943,139.108337 
	C409.003326,137.916443 407.220093,136.707352 405.211121,135.255341 
	C405.088470,134.720459 405.246490,134.475235 405.652954,134.155670 
	C416.702637,138.707245 421.929474,147.120819 420.287231,157.296051 
	C418.598053,167.761887 411.132477,174.043732 398.546021,174.947495 
	C398.056183,174.479935 398.035248,174.260361 398.014282,174.040787 
z"/>
<path fill="#D1DCE3" opacity="1.000000" stroke="none" 
	d="
M458.733826,242.940460 
	C458.295624,230.991516 458.209564,218.945374 458.215820,206.436401 
	C459.201508,207.750641 460.814789,209.506866 460.866974,211.308273 
	C461.130676,220.413269 461.069305,229.531509 460.903198,238.641098 
	C460.877502,240.052383 459.720001,241.443039 458.733826,242.940460 
z"/>
<path fill="#CCD7E1" opacity="1.000000" stroke="none" 
	d="
M85.018707,391.487793 
	C87.972740,393.384277 90.813080,395.885712 94.022003,397.754059 
	C96.717209,399.323273 99.774071,400.870392 102.791245,401.156281 
	C108.188675,401.667664 113.676765,401.222321 119.589462,401.283325 
	C118.815521,402.250488 117.614639,403.786865 116.336433,403.854126 
	C111.020508,404.133942 105.024742,405.509491 100.515053,403.585052 
	C94.742409,401.121704 90.160019,395.869110 85.018707,391.487793 
z"/>
<path fill="#CBD6E1" opacity="1.000000" stroke="none" 
	d="
M348.044220,405.734924 
	C351.888672,405.360657 356.001495,404.614594 359.736176,405.487030 
	C365.457855,406.823669 369.113159,404.064178 372.946442,400.845886 
	C375.328064,398.846313 377.869385,397.036896 380.682190,395.138306 
	C375.578918,401.421204 370.558533,408.525940 360.863495,407.931519 
	C356.601746,407.670258 352.381989,406.723572 348.044220,405.734924 
z"/>
<path fill="#D1DCE3" opacity="1.000000" stroke="none" 
	d="
M397.096741,132.683899 
	C393.931854,135.019409 390.797028,136.958466 387.296021,138.900787 
	C388.364075,137.648407 389.620758,135.690872 391.267212,135.274445 
	C395.469971,134.211456 395.966705,131.435226 396.133728,127.833832 
	C396.445740,121.106766 397.113647,114.396194 397.895447,107.368851 
	C399.520477,115.538162 399.975281,123.980286 397.096741,132.683899 
z"/>
<path fill="#CCD7E1" opacity="1.000000" stroke="none" 
	d="
M59.660439,350.614014 
	C57.915516,351.790771 55.881466,352.726044 52.933666,354.081451 
	C58.119579,360.760803 62.999119,367.045563 67.894127,373.673401 
	C63.629814,369.389313 59.343224,364.768402 55.080486,360.125580 
	C54.640549,359.646423 54.228439,359.080322 53.999546,358.479797 
	C53.181717,356.334167 52.448448,354.156281 51.683193,351.990601 
	C54.245899,351.451233 56.808605,350.911865 59.660439,350.614014 
z"/>
<path fill="#CBD6E1" opacity="1.000000" stroke="none" 
	d="
M382.506897,394.029358 
	C389.569519,386.462524 396.983185,378.888428 404.715820,371.230499 
	C404.591309,372.346710 404.467896,373.857208 403.653168,374.697144 
	C397.693787,380.840820 391.618652,386.873383 385.507507,392.867096 
	C384.864899,393.497375 383.752411,393.648590 382.506897,394.029358 
z"/>
<path fill="#D3DCE3" opacity="1.000000" stroke="none" 
	d="
M11.258636,215.063324 
	C11.690257,221.344528 11.770601,227.723007 11.753735,234.563187 
	C10.811859,233.909363 9.305786,232.832306 9.238246,231.671555 
	C8.961540,226.916168 9.046034,222.132675 9.203657,217.366364 
	C9.228567,216.613144 10.312872,215.894974 11.258636,215.063324 
z"/>
<path fill="#CBD6E1" opacity="1.000000" stroke="none" 
	d="
M406.420593,369.973114 
	C408.790771,365.980804 411.498901,361.945312 414.462769,357.528748 
	C412.507568,356.644379 411.031525,355.976746 409.305420,355.070496 
	C411.491394,354.961761 413.927399,355.091644 416.363403,355.221497 
	C415.734558,357.426483 415.621704,360.002655 414.361938,361.753754 
	C412.205536,364.751129 409.331329,367.232117 406.420593,369.973114 
z"/>
<path fill="#D3DDE4" opacity="1.000000" stroke="none" 
	d="
M162.366058,80.638344 
	C161.461365,73.934669 160.812332,66.913712 160.275406,59.434746 
	C161.239075,61.988075 162.556473,64.958214 162.827332,68.020912 
	C163.186584,72.083130 162.728546,76.217621 162.366058,80.638344 
z"/>
<path fill="#CCD7E1" opacity="1.000000" stroke="none" 
	d="
M191.282257,387.342407 
	C197.670593,384.388855 204.302643,381.669586 210.936798,378.955414 
	C211.699631,378.643280 212.473907,378.359161 213.610062,378.005890 
	C213.059433,379.020050 212.343765,380.653381 211.190369,381.067474 
	C204.693985,383.399811 198.092346,385.439056 191.282257,387.342407 
z"/>
<path fill="#D1DCE3" opacity="1.000000" stroke="none" 
	d="
M309.596252,33.383339 
	C310.044464,40.156918 310.246521,47.253254 310.172516,54.655190 
	C309.714355,47.875893 309.532227,40.790997 309.596252,33.383339 
z"/>
<path fill="#D1DCE3" opacity="1.000000" stroke="none" 
	d="
M309.347595,65.096489 
	C309.239777,70.439293 308.800751,75.906906 308.101990,81.657516 
	C306.398956,76.238594 306.218597,70.625374 309.347595,65.096489 
z"/>
<path fill="#D3DCE3" opacity="1.000000" stroke="none" 
	d="
M65.989975,136.574249 
	C62.299091,139.619934 58.613880,142.289978 54.606556,145.012329 
	C56.342842,142.892120 58.530933,140.825409 60.417431,138.512695 
	C61.852734,136.753098 62.904900,134.680954 64.222015,132.363556 
	C64.876213,133.385696 65.435936,134.792145 65.989975,136.574249 
z"/>
<path fill="#D3DCE3" opacity="1.000000" stroke="none" 
	d="
M13.253220,193.063141 
	C13.181909,197.429871 12.761206,201.894104 12.084955,206.646545 
	C10.964290,202.247971 9.352659,197.502945 13.253220,193.063141 
z"/>
<path fill="#D3DCE3" opacity="1.000000" stroke="none" 
	d="
M11.610102,243.371262 
	C12.521316,247.421051 13.183925,251.786133 13.747732,256.588196 
	C8.910755,253.260757 11.519444,248.236435 11.610102,243.371262 
z"/>
<path fill="#D1DCE3" opacity="1.000000" stroke="none" 
	d="
M393.053223,341.734253 
	C397.459778,342.461700 401.957977,343.525787 406.703369,344.859497 
	C401.726044,346.920135 397.482574,344.282837 393.053223,341.734253 
z"/>
<path fill="#CCD7E1" opacity="1.000000" stroke="none" 
	d="
M125.377762,401.416962 
	C129.100189,400.509705 133.140503,399.846344 137.616562,399.288208 
	C135.873795,400.260742 133.758469,401.441620 131.497009,401.897247 
	C129.653900,402.268555 127.636024,401.772369 125.377762,401.416962 
z"/>
<path fill="#CCD7E1" opacity="1.000000" stroke="none" 
	d="
M162.321793,395.360046 
	C166.454147,393.812897 170.868713,392.512512 175.667648,391.302185 
	C172.288284,395.091125 167.620773,395.906158 162.321793,395.360046 
z"/>
<path fill="#CBD6E1" opacity="1.000000" stroke="none" 
	d="
M331.045746,403.730347 
	C335.079803,403.818054 339.213226,404.256317 343.644409,404.936462 
	C339.572723,406.022095 335.148224,407.508301 331.045746,403.730347 
z"/>
<path fill="#D3DDE4" opacity="1.000000" stroke="none" 
	d="
M164.383835,96.636078 
	C163.465179,93.244972 162.792068,89.545341 162.206268,85.410400 
	C166.867065,87.978447 164.598923,92.389465 164.383835,96.636078 
z"/>
<path fill="#D1DCE3" opacity="1.000000" stroke="none" 
	d="
M458.382019,200.639832 
	C457.472107,197.240540 456.809814,193.533173 456.247559,189.398483 
	C460.807709,192.014877 458.629150,196.392166 458.382019,200.639832 
z"/>
<path fill="#D1DCE3" opacity="1.000000" stroke="none" 
	d="
M456.710449,259.910767 
	C456.813568,256.232147 457.245575,252.434036 457.927704,248.351013 
	C459.267090,252.117111 460.151947,256.148254 456.710449,259.910767 
z"/>
<path fill="#D1DCE3" opacity="1.000000" stroke="none" 
	d="
M307.384766,85.086105 
	C307.263214,88.450829 306.811310,91.929199 306.095276,95.671570 
	C306.238922,92.356964 306.646698,88.778358 307.384766,85.086105 
z"/>
<path fill="#CCD7E1" opacity="1.000000" stroke="none" 
	d="
M178.286102,391.330902 
	C181.456970,389.801727 184.884155,388.517944 188.682983,387.325531 
	C185.550552,388.803345 182.046478,390.189819 178.286102,391.330902 
z"/>
<path fill="#D3DDE4" opacity="1.000000" stroke="none" 
	d="
M166.422455,108.622215 
	C165.502808,105.884392 164.813538,102.845642 164.209595,99.390915 
	C168.358566,101.263496 166.866241,104.953720 166.422455,108.622215 
z"/>
<path fill="#CCD7E1" opacity="1.000000" stroke="none" 
	d="
M140.364731,399.414368 
	C143.118912,398.516510 146.177353,397.857422 149.643890,397.294250 
	C147.858353,402.017151 143.930313,399.452972 140.364731,399.414368 
z"/>
<path fill="#CBD6E1" opacity="1.000000" stroke="none" 
	d="
M319.044800,401.651001 
	C321.781403,401.734528 324.607727,402.166779 327.698547,402.855072 
	C324.818085,404.346100 321.728546,405.140991 319.044800,401.651001 
z"/>
<path fill="#D3DCE3" opacity="1.000000" stroke="none" 
	d="
M13.611521,260.354340 
	C14.514103,262.778931 15.175874,265.498901 15.743049,268.625061 
	C11.285074,267.216858 13.311921,263.665863 13.611521,260.354340 
z"/>
<path fill="#D3DCE3" opacity="1.000000" stroke="none" 
	d="
M15.268129,181.058060 
	C15.175001,183.771301 14.741343,186.576752 14.061494,189.655945 
	C12.707676,186.815918 11.864854,183.735687 15.268129,181.058060 
z"/>
<path fill="#D1DCE3" opacity="1.000000" stroke="none" 
	d="
M456.392883,186.650620 
	C455.479065,184.219131 454.802582,181.497772 454.214844,178.375092 
	C457.979309,179.964890 457.035828,183.237411 456.392883,186.650620 
z"/>
<path fill="#D1DCE3" opacity="1.000000" stroke="none" 
	d="
M305.293945,99.050247 
	C305.215576,101.451935 304.801300,103.944824 304.127472,106.693832 
	C302.716400,104.135635 301.861725,101.362762 305.293945,99.050247 
z"/>
<path fill="#CCD7E1" opacity="1.000000" stroke="none" 
	d="
M152.334534,397.383789 
	C154.456268,396.495850 156.862228,395.847229 159.660217,395.295349 
	C158.544769,399.368927 155.394958,397.873596 152.334534,397.383789 
z"/>
<path fill="#D1DCE3" opacity="1.000000" stroke="none" 
	d="
M454.719238,270.947876 
	C454.793213,268.549316 455.204773,266.060913 455.871338,263.309906 
	C457.294891,265.859711 458.131134,268.626587 454.719238,270.947876 
z"/>
<path fill="#D3DCE3" opacity="1.000000" stroke="none" 
	d="
M52.349655,343.396301 
	C54.462914,342.510406 56.862400,341.858582 59.648018,341.297546 
	C58.554386,345.390350 55.400330,343.867584 52.349655,343.396301 
z"/>
<path fill="#CCD7E1" opacity="1.000000" stroke="none" 
	d="
M72.971504,379.520203 
	C75.193306,381.248840 77.423386,383.329590 79.736595,385.724792 
	C77.539742,383.983643 75.259758,381.928009 72.971504,379.520203 
z"/>
<path fill="#D3DCE3" opacity="1.000000" stroke="none" 
	d="
M62.338985,341.393677 
	C64.138123,340.512756 66.212738,339.863037 68.661224,339.309631 
	C67.867218,342.959167 65.164337,342.070648 62.338985,341.393677 
z"/>
<path fill="#CCD7E1" opacity="1.000000" stroke="none" 
	d="
M68.683701,348.635101 
	C66.870430,349.517181 64.784966,350.159973 62.323723,350.706116 
	C63.127686,347.025360 65.858536,347.970276 68.683701,348.635101 
z"/>
<path fill="#D3DCE3" opacity="1.000000" stroke="none" 
	d="
M17.265163,172.052948 
	C17.174158,174.117935 16.754530,176.270859 16.086018,178.680923 
	C16.203602,176.672348 16.570072,174.406616 17.265163,172.052948 
z"/>
<path fill="#D1DCE3" opacity="1.000000" stroke="none" 
	d="
M454.361206,175.693115 
	C453.487030,174.195236 452.845306,172.440475 452.300568,170.323318 
	C453.129578,171.786026 453.861664,173.611115 454.361206,175.693115 
z"/>
<path fill="#CCD7E1" opacity="1.000000" stroke="none" 
	d="
M76.702606,346.646149 
	C75.195770,347.520660 73.433304,348.159912 71.308884,348.698425 
	C72.780273,347.868713 74.613625,347.139801 76.702606,346.646149 
z"/>
<path fill="#D3DDE4" opacity="1.000000" stroke="none" 
	d="
M79.962517,138.600800 
	C77.959663,138.301132 75.853546,137.685196 73.392296,136.978760 
	C73.156502,136.095169 73.275841,135.302078 73.605438,134.290222 
	C75.830215,135.475800 77.844734,136.880157 79.962517,138.600800 
z"/>
<path fill="#D1DCE3" opacity="1.000000" stroke="none" 
	d="
M252.129700,226.794434 
	C251.596054,226.512878 251.301453,226.047791 250.971863,225.297501 
	C251.350861,224.991455 251.764832,224.970612 252.486130,224.926025 
	C252.651901,225.471802 252.510315,226.041336 252.129700,226.794434 
z"/>
<path fill="#D1DCE3" opacity="1.000000" stroke="none" 
	d="
M397.623810,174.028870 
	C398.035248,174.260361 398.056183,174.479935 398.133484,175.026886 
	C393.946198,188.782532 390.440491,202.500290 385.309692,215.580597 
	C373.578125,245.488556 357.200623,272.785217 336.782837,297.646790 
	C335.846802,298.786560 336.003815,301.133514 336.218170,302.847382 
	C336.742981,307.043335 337.599731,311.197784 338.087891,315.660400 
	C336.962769,312.314941 335.983276,308.697113 335.200226,305.037262 
	C333.311584,296.210266 325.921173,295.502106 319.067535,293.980377 
	C318.269653,293.803284 317.446655,293.739105 316.348206,293.387756 
	C317.971069,292.973907 320.037476,292.242401 321.758575,292.729980 
	C325.425781,293.768829 327.772552,292.432648 329.939789,289.723053 
	C353.151825,260.702454 371.024475,228.777740 382.260681,193.278946 
	C384.501617,186.199051 386.179352,178.940887 388.178009,171.344879 
	C391.237274,171.955536 394.235291,172.986252 397.623810,174.028870 
z"/>
<path fill="#D1DCE3" opacity="1.000000" stroke="none" 
	d="
M249.861572,253.964905 
	C249.861588,253.964905 249.939972,253.864075 249.995789,253.840454 
	C263.918030,266.367950 277.784515,278.919037 291.765472,291.798706 
	C291.879974,292.127258 291.840912,292.170135 291.490967,292.111389 
	C289.826569,291.404266 288.287109,291.008514 287.232208,290.068787 
	C275.279205,279.420532 263.370789,268.721313 251.556763,257.919434 
	C250.592545,257.037842 250.408264,255.303192 249.861572,253.964905 
z"/>
<path fill="#D1DCE3" opacity="1.000000" stroke="none" 
	d="
M383.611908,142.068634 
	C382.833221,147.102188 381.717407,152.215836 380.359650,157.636505 
	C377.956604,152.036285 379.424133,146.854355 383.611908,142.068634 
z"/>
<path fill="#D1DCE3" opacity="1.000000" stroke="none" 
	d="
M302.867004,298.743896 
	C302.938293,299.284790 302.686951,299.582062 301.898346,299.904907 
	C298.187714,297.343689 295.014313,294.756927 291.840912,292.170135 
	C291.840912,292.170135 291.879974,292.127258 291.898315,292.105560 
	C295.459198,294.222656 299.001740,296.361481 302.867004,298.743896 
z"/>
<path fill="#D1DCE3" opacity="1.000000" stroke="none" 
	d="
M380.310913,160.254883 
	C382.241913,162.651611 384.095703,165.400467 385.992188,168.488220 
	C384.101105,166.087067 382.167389,163.347031 380.310913,160.254883 
z"/>
<path fill="#D1DCE3" opacity="1.000000" stroke="none" 
	d="
M313.711792,293.213989 
	C311.898651,294.494812 309.722198,295.678802 307.172882,296.831512 
	C308.982849,295.572510 311.165680,294.344818 313.711792,293.213989 
z"/>
<path fill="#D1DCE3" opacity="1.000000" stroke="none" 
	d="
M255.219727,235.815063 
	C254.553467,235.085922 254.109070,234.202332 253.904572,233.160461 
	C254.576843,233.888321 255.009201,234.774475 255.219727,235.815063 
z"/>
<path fill="#D1DCE3" opacity="1.000000" stroke="none" 
	d="
M254.424301,245.078552 
	C254.276199,244.556549 254.381805,243.960739 254.752701,243.196014 
	C254.904663,243.686310 254.791336,244.345535 254.424301,245.078552 
z"/>
<path fill="#D3DCE3" opacity="1.000000" stroke="none" 
	d="
M71.790161,177.580383 
	C73.914276,176.887802 76.092262,176.600693 78.904266,176.274872 
	C80.246284,176.488541 80.954277,176.740921 81.662270,176.993317 
	C81.759392,177.445724 81.856522,177.898163 81.693184,178.958740 
	C81.972832,183.686111 81.661652,188.117294 85.616737,190.985184 
	C85.726753,191.438126 85.836769,191.891052 85.695923,192.940582 
	C87.252655,199.120834 88.923958,204.753021 90.891258,210.279816 
	C99.781624,235.255783 112.580009,258.191162 127.639748,279.910400 
	C129.007309,281.882721 131.106720,283.347595 132.866257,285.048126 
	C132.866257,285.048126 132.949585,285.041199 132.974731,285.435699 
	C133.823975,287.214478 134.703171,288.569427 135.459595,289.989746 
	C136.675552,292.272980 137.810410,294.599396 138.979553,296.907562 
	C138.096008,298.100922 137.212448,299.294281 135.789703,300.744507 
	C134.817123,301.006500 134.383713,301.011627 133.950317,301.016724 
	C130.141113,296.478882 126.036819,292.154663 122.571320,287.367981 
	C102.366615,259.460297 87.070122,229.030762 76.544975,196.233551 
	C74.628929,190.263016 73.393593,184.074005 71.790161,177.580383 
z"/>
<path fill="#D3DDE4" opacity="1.000000" stroke="none" 
	d="
M132.830002,284.700043 
	C131.106720,283.347595 129.007309,281.882721 127.639748,279.910400 
	C112.580009,258.191162 99.781624,235.255783 90.891258,210.279816 
	C88.923958,204.753021 87.252655,199.120834 85.678818,193.291290 
	C89.224380,201.515289 92.403046,210.040146 95.873795,218.444397 
	C105.043945,240.649536 116.294098,261.702911 130.897964,280.871307 
	C131.689346,281.910034 132.168991,283.186279 132.830002,284.700043 
z"/>
<path fill="#D3DDE4" opacity="1.000000" stroke="none" 
	d="
M139.370117,296.922607 
	C137.810410,294.599396 136.675552,292.272980 135.459595,289.989746 
	C134.703171,288.569427 133.823975,287.214478 132.972153,285.477417 
	C134.465866,286.622467 136.391144,287.885193 137.427475,289.665405 
	C139.830322,293.792969 142.921890,295.081757 147.697388,293.262939 
	C145.309525,294.551819 142.535095,295.744751 139.370117,296.922607 
z"/>
<path fill="#D3DDE4" opacity="1.000000" stroke="none" 
	d="
M87.453201,168.014282 
	C89.435677,161.401001 91.495148,154.669464 88.117279,147.277771 
	C93.275276,151.445999 92.467224,161.658569 87.453201,168.014282 
z"/>
<path fill="#D3DDE4" opacity="1.000000" stroke="none" 
	d="
M85.685272,190.611343 
	C81.661652,188.117294 81.972832,183.686111 81.672806,179.306610 
	C83.193199,182.776733 84.473503,186.507126 85.685272,190.611343 
z"/>
<path fill="#D3DDE4" opacity="1.000000" stroke="none" 
	d="
M81.753075,176.603821 
	C80.954277,176.740921 80.246284,176.488541 79.274460,176.119293 
	C79.780884,175.027023 80.551147,174.051605 81.659882,173.053345 
	C81.946854,174.091766 81.895370,175.153061 81.753075,176.603821 
z"/>
<path fill="#D3DCE3" opacity="1.000000" stroke="none" 
	d="
M53.586285,146.038605 
	C51.531700,152.735031 50.822075,159.538300 53.888580,166.741714 
	C48.796352,162.116867 48.524437,152.900192 53.586285,146.038605 
z"/>
<path fill="#D3DDE4" opacity="1.000000" stroke="none" 
	d="
M133.942474,301.420959 
	C134.383713,301.011627 134.817123,301.006500 135.573425,301.000061 
	C134.890549,305.635925 133.884781,310.273102 132.595856,314.994812 
	C132.853333,310.661316 133.393967,306.243256 133.942474,301.420959 
z"/>
<path fill="#D3DCE3" opacity="1.000000" stroke="none" 
	d="
M61.771690,174.679901 
	C63.974243,174.913910 66.393524,175.427048 68.947372,176.258484 
	C66.717422,176.037537 64.352921,175.498291 61.771690,174.679901 
z"/>
<path fill="#E4E4E5" opacity="1.000000" stroke="none" 
	d="
M228.137924,393.377991 
	C228.643646,393.193512 229.302917,393.275452 229.978119,393.641846 
	C229.426514,393.832336 228.858994,393.738342 228.137924,393.377991 
z"/>
<path fill="#CCD7E1" opacity="1.000000" stroke="none" 
	d="
M174.236115,342.296143 
	C177.867783,344.538666 181.638550,347.060791 185.371475,349.637756 
	C193.957733,355.565125 202.551285,361.482819 211.075348,367.498688 
	C212.477661,368.488342 213.542007,369.956940 214.665314,371.453735 
	C201.164703,362.002441 187.761353,352.301544 174.236115,342.296143 
z"/>
<path fill="#CCD7E1" opacity="1.000000" stroke="none" 
	d="
M167.268463,336.250061 
	C169.080154,337.372375 170.994446,338.804504 172.956375,340.575073 
	C171.126358,339.462280 169.248703,338.011047 167.268463,336.250061 
z"/>
<path fill="#CCD7E1" opacity="1.000000" stroke="none" 
	d="
M164.118500,333.270233 
	C164.684799,333.408813 165.297714,333.850983 165.973297,334.590607 
	C165.412338,334.449982 164.788742,334.011902 164.118500,333.270233 
z"/>
<path fill="#CCD7E1" opacity="1.000000" stroke="none" 
	d="
M163.720505,330.906372 
	C163.985733,331.350830 164.002151,331.802399 164.027252,332.591400 
	C163.459732,332.650543 162.883530,332.372314 162.226028,331.771545 
	C162.587051,331.270508 163.029388,331.092010 163.720505,330.906372 
z"/>
<path fill="#CCD7E1" opacity="1.000000" stroke="none" 
	d="
M142.676880,330.802948 
	C143.290726,330.715027 144.083176,330.875641 144.980530,331.349792 
	C144.342117,331.459412 143.598785,331.255432 142.676880,330.802948 
z"/>
<path fill="#3D86C3" opacity="1.000000" stroke="none" 
	d="
M298.165222,316.498596 
	C299.760162,321.651184 297.330292,324.510132 293.779236,327.120636 
	C280.547607,336.847473 267.397064,346.684753 254.233566,356.503998 
	C251.176910,358.784088 248.380798,358.452881 245.043152,356.689575 
	C237.546661,352.729095 230.104858,353.045654 223.070053,358.628357 
	C222.158066,359.655151 221.330139,360.346497 219.891754,361.184265 
	C217.043808,360.345703 214.649109,359.612091 212.598175,358.329010 
	C206.303665,354.391083 200.140915,350.242584 193.926926,346.175964 
	C193.926926,346.175964 193.937363,346.072693 193.777527,345.763824 
	C185.636368,338.659180 177.655014,331.863434 169.673645,325.067688 
	C170.413208,322.956757 171.152756,320.845825 171.876694,318.360779 
	C172.135757,315.229980 173.165085,312.279510 172.518066,309.759491 
	C171.391739,305.372772 173.647430,303.452271 176.565979,301.161194 
	C187.677536,292.438660 198.769135,283.681091 209.607269,274.624359 
	C214.318985,270.687073 218.293884,265.879578 222.825363,261.708466 
	C224.289291,260.360931 226.461029,259.782349 228.684723,258.745270 
	C233.003738,258.797272 236.946991,258.956055 241.422089,259.462769 
	C252.109100,269.580170 261.930420,279.731628 272.528870,288.993835 
	C280.483765,295.945831 289.437653,301.754608 297.946808,308.072327 
	C297.992065,310.735474 298.037354,313.398590 298.165222,316.498596 
z"/>
<path fill="#DEE3E5" opacity="1.000000" stroke="none" 
	d="
M291.490967,292.111389 
	C295.014313,294.756927 298.187714,297.343689 301.715088,299.991638 
	C300.942383,301.992798 299.815735,303.932770 298.051208,305.790222 
	C289.514221,299.756104 281.187073,294.286072 273.819214,287.736908 
	C263.498169,278.562714 253.891464,268.584991 243.979187,258.950989 
	C245.721695,257.324554 247.464188,255.698090 249.534134,254.018280 
	C250.408264,255.303192 250.592545,257.037842 251.556763,257.919434 
	C263.370789,268.721313 275.279205,279.420532 287.232208,290.068787 
	C288.287109,291.008514 289.826569,291.404266 291.490967,292.111389 
z"/>
<path fill="#CBD6E1" opacity="1.000000" stroke="none" 
	d="
M243.611404,258.952454 
	C253.891464,268.584991 263.498169,278.562714 273.819214,287.736908 
	C281.187073,294.286072 289.514221,299.756104 297.718781,305.860352 
	C298.042664,306.473114 298.061096,306.933167 298.013184,307.732788 
	C289.437653,301.754608 280.483765,295.945831 272.528870,288.993835 
	C261.930420,279.731628 252.109100,269.580170 241.871124,259.481750 
	C242.273407,259.086548 242.758514,259.020264 243.611404,258.952454 
z"/>
<path fill="#CCD7E1" opacity="1.000000" stroke="none" 
	d="
M169.466644,325.237854 
	C177.655014,331.863434 185.636368,338.659180 193.725769,345.767670 
	C189.770355,343.430664 185.509048,341.034821 181.696045,338.063629 
	C177.428879,334.738525 173.567902,330.892151 169.225311,327.116516 
	C169.033508,326.442993 169.146561,325.925537 169.466644,325.237854 
z"/>
<path fill="#CCD7E1" opacity="1.000000" stroke="none" 
	d="
M194.000549,346.504303 
	C200.140915,350.242584 206.303665,354.391083 212.598175,358.329010 
	C214.649109,359.612091 217.043808,360.345703 219.668701,361.421051 
	C219.598389,361.984680 219.140625,362.457855 218.455475,363.041138 
	C210.176788,357.711670 202.125488,352.272156 194.000549,346.504303 
z"/>
</svg>